<svg width="125" height="125" viewBox="0 0 125 125" fill="none" xmlns="http://www.w3.org/2000/svg">
<path d="M112.339 13.5279C112.957 12.5349 112.756 11.1549 111.891 10.4456C111.026 9.73629 109.824 9.9663 109.206 10.9593L108.003 12.8927C107.385 13.8857 107.586 15.2658 108.451 15.9751C109.316 16.6844 110.518 16.4544 111.136 15.4613L112.339 13.5279Z" fill="white"/>
<path d="M106.219 18.6532C106.911 17.7267 106.817 16.3318 106.01 15.5376C105.203 14.7434 103.988 14.8507 103.296 15.7772L101.852 17.7106C101.16 18.6372 101.254 20.0321 102.061 20.8263C102.868 21.6205 104.083 21.5132 104.775 20.5866L106.219 18.6532Z" fill="white"/>
<path d="M111.652 22.9207C112.404 22.0578 112.404 20.6587 111.652 19.7958C110.901 18.9329 109.682 18.9329 108.93 19.7958L107.487 21.453C106.735 22.3159 106.735 23.715 107.487 24.5779C108.238 25.4408 109.457 25.4408 110.209 24.5779L111.652 22.9207Z" fill="white"/>
<path d="M105.477 26.8505C105.994 25.7838 105.659 24.4385 104.73 23.8459C103.8 23.2533 102.628 23.6376 102.112 24.7044L100.909 27.1902C100.393 28.2569 100.728 29.6021 101.657 30.1948C102.586 30.7874 103.758 30.4031 104.274 29.3363L105.477 26.8505Z" fill="white"/>
<path fill-rule="evenodd" clip-rule="evenodd" d="M98.9697 9.9619C98.7658 8.61029 98.3961 7.39898 97.7837 6.44998L96.8604 5.01912L95.8722 6.41687C95.8722 6.41687 95.7481 6.59354 95.7264 6.62453C95.6249 6.76946 95.4759 6.98313 95.2844 7.25973C94.9015 7.81291 94.3485 8.61797 93.6666 9.62845C92.303 11.649 90.4221 14.493 88.3521 17.7885C84.2233 24.3615 79.2989 32.7978 76.2431 40.0939C75.9552 40.7813 76.2072 41.6064 76.8061 41.9369C77.4049 42.2674 78.1237 41.978 78.4116 41.2906C81.3712 34.2243 86.1916 25.9505 90.3038 19.4039C92.3542 16.1396 94.2179 13.3215 95.5687 11.3199C95.9197 10.7999 96.2359 10.3352 96.5117 9.93214C96.6788 10.773 96.7714 11.8194 96.7753 13.0772C96.7938 19.0348 95.1586 28.132 93.4778 35.8568C92.6428 39.6939 91.8064 43.1502 91.1786 45.6474C90.8647 46.8956 90.6033 47.9033 90.4205 48.5982C90.3291 48.9456 90.2574 49.2147 90.2086 49.3965L90.1886 49.471L90.1532 49.6025L90.1392 49.6543L90.1357 49.667L90.1349 49.67L90.1347 49.6706C90.1347 49.6706 90.1347 49.6707 90.1551 49.678L90.1347 49.6706L92.1822 51.0001L92.1826 50.9998L92.1842 50.9978L92.2214 50.9501C92.2482 50.9157 92.2886 50.864 92.3421 50.7959C92.4492 50.6597 92.6085 50.4582 92.8156 50.1994C93.23 49.6815 93.8354 48.9344 94.5965 48.0216C96.1192 46.1953 98.2614 43.7098 100.739 41.0729C105.736 35.7548 111.952 29.9814 117.164 27.614C118.025 27.2229 118.848 26.9412 119.627 26.7762C119.446 27.3691 119.223 28.0837 118.96 28.9039C118.132 31.486 116.907 35.1114 115.324 39.277C112.153 47.6233 107.566 58.0734 101.875 66.6467C101.473 67.2534 101.575 68.1199 102.103 68.5822C102.632 69.0444 103.387 68.9273 103.789 68.3206C109.648 59.4933 114.325 48.8141 117.53 40.3813C119.135 36.1573 120.377 32.4806 121.218 29.8581C121.638 28.5466 121.959 27.4979 122.175 26.7754C122.283 26.4141 122.505 25.6486 122.504 25.6504L122.504 25.6492L122.505 25.6486L123 23.8838L121.385 23.8443C120.394 23.8201 119.384 23.974 118.368 24.2656C118.405 24.0583 118.443 23.84 118.481 23.6119C118.791 21.7633 119.132 19.244 119.25 16.5923C119.366 13.9568 119.266 11.102 118.644 8.62225C118.021 6.13718 116.824 3.8516 114.643 2.7025C112.664 1.65991 110.513 1.89336 108.538 2.65148C106.56 3.41061 104.627 4.74335 102.956 6.13435C101.381 7.44635 99.9948 8.84794 98.9697 9.9619ZM99.1789 13.6187C99.1033 19.9495 97.4407 29.0416 95.8122 36.5261C95.1245 39.6867 94.4362 42.5894 93.8621 44.9194C95.2916 43.2377 97.0873 41.1929 99.1033 39.0475C103.936 33.9045 110.171 28.0327 115.702 25.3185C115.71 25.2811 115.718 25.2423 115.726 25.202C115.83 24.6996 115.97 23.9739 116.118 23.0904C116.415 21.3186 116.737 18.9341 116.847 16.4523C116.957 13.9543 116.848 11.4458 116.332 9.3861C115.817 7.33174 114.947 5.90174 113.639 5.21274C112.423 4.57168 110.956 4.63573 109.301 5.27091C107.649 5.90508 105.941 7.06145 104.369 8.37002C102.807 9.67146 101.428 11.0816 100.437 12.1716C99.9433 12.7152 99.5486 13.1757 99.279 13.4984L99.2539 13.5284C99.2276 13.5599 99.2026 13.5901 99.1789 13.6187Z" fill="white"/>
<path d="M77.5295 60.7355C74.389 63.3905 71.2575 68.0446 70.339 75.9523C70.2512 76.7083 69.6461 77.2394 68.9875 77.1386C68.3289 77.0378 67.8662 76.3432 67.954 75.5872C68.9604 66.9228 72.4458 61.6031 76.1026 58.5116C77.918 56.9768 79.7612 56.0029 81.3388 55.4334C82.8845 54.8754 84.2676 54.6732 85.1598 54.787C86.8689 55.0049 89.049 56.2937 90.6156 59.1389C92.1861 61.9911 93.1009 66.3216 92.4783 72.6113C92.4033 73.3691 91.8073 73.9136 91.1471 73.8275C90.4869 73.7414 90.0125 73.0572 90.0875 72.2994C90.6679 66.4363 89.7782 62.7876 88.5817 60.6146C87.3812 58.4344 85.8318 57.6517 84.8941 57.5321C84.4629 57.4771 83.4399 57.5703 82.0607 58.0682C80.7134 58.5545 79.1128 59.397 77.5295 60.7355Z" fill="white"/>
<path fill-rule="evenodd" clip-rule="evenodd" d="M49.4162 18.0438C48.0874 18.0438 47.0101 19.2804 47.0101 20.8058V29.0919C47.0101 30.524 47.9597 31.7016 49.1756 31.8402V34.6123C49.0876 34.6687 48.9925 34.7307 48.8913 34.7982C48.3214 35.1778 47.5474 35.7363 46.7305 36.4535C45.1376 37.8517 43.1993 40.0098 42.4874 42.7884L42.4385 42.9792V74.1125C42.4385 74.8752 42.9771 75.4935 43.6415 75.4935C44.306 75.4935 44.8446 74.8752 44.8446 74.1125V43.3882C45.3765 41.5443 46.7633 39.9017 48.1921 38.6475C48.909 38.0182 49.5937 37.5237 50.0991 37.1869C50.351 37.0191 50.5563 36.8919 50.6961 36.808C50.7659 36.766 50.8633 36.7101 50.8978 36.6903L50.8983 36.69L51.5818 36.3148V31.8539H64.0936V36.3148L64.8016 36.7038C64.8016 36.7038 65.3244 37.0191 65.5763 37.1869C66.0817 37.5237 66.7664 38.0182 67.4833 38.6475C68.9583 39.9423 70.3886 41.6509 70.8797 43.5677C71.0672 44.2995 71.7359 44.7182 72.3733 44.503C73.0108 44.2878 73.3755 43.5201 73.188 42.7884C72.4761 40.0098 70.5378 37.8517 68.9449 36.4535C68.128 35.7363 67.354 35.1778 66.7841 34.7982C66.6829 34.7307 66.5878 34.6687 66.4998 34.6123V31.7274C67.476 31.3755 68.1841 30.3286 68.1841 29.0919V20.8058C68.1841 19.2804 67.1068 18.0438 65.7779 18.0438H49.4162ZM49.4162 20.8058H65.7779V29.0919H49.4162V20.8058Z" fill="white"/>
<path fill-rule="evenodd" clip-rule="evenodd" d="M26.075 35.0128C26.2266 34.6725 26.4087 34.2424 26.5992 33.7452C27.0801 32.4898 27.6367 30.7495 27.8689 28.9157C28.0991 27.0986 28.0325 25.0116 27.0801 23.2273C26.0984 21.3883 24.329 20.1501 21.6753 19.7149C19.072 19.288 17.0658 19.7226 15.5663 20.799C14.0691 21.8737 13.2367 23.4738 12.785 25.0237C12.3458 26.5306 12.2452 28.0556 12.2488 29.1892C12.2073 29.1791 12.1652 29.1689 12.1225 29.1589C11.0531 28.907 9.58132 28.6821 8.08889 28.8573C6.5974 29.0324 4.96519 29.6238 3.74814 31.1372C2.51747 32.6677 1.8862 34.9216 2.01692 37.9976C2.14801 41.082 2.98244 43.268 4.3441 44.6814C5.68876 46.0772 7.37331 46.5371 8.89308 46.5953C10.4137 46.6535 11.8818 46.3159 12.9435 45.9815C13.2988 45.8695 13.6147 45.756 13.8792 45.6537L18.6134 52.634L15.6244 55.3026L17.6732 68.8252C17.787 69.5766 18.41 70.0798 19.0646 69.9491C19.7192 69.8185 20.1576 69.1034 20.0437 68.3519L18.2427 56.4641L34.5022 41.9474L37.0318 42.8409C37.6669 43.0652 38.3401 42.656 38.5355 41.9271C38.7309 41.1981 38.3745 40.4253 37.7395 40.201L34.0132 38.8849L30.838 41.7197L26.075 35.0128ZM14.7085 30.3955L15.0901 33.1134L13.1635 32.3271L13.1627 32.3268L13.1619 32.3265L13.1635 32.3271C13.1635 32.3271 12.8987 32.2284 12.7641 32.1834C12.4944 32.0931 12.1053 31.9744 11.6388 31.8645C10.6931 31.6417 9.48803 31.4695 8.33369 31.605C7.17842 31.7406 6.19395 32.1678 5.51617 33.0107C4.85201 33.8366 4.31029 35.2768 4.4202 37.863C4.52974 40.4406 5.19916 41.8452 5.95791 42.6328C6.73367 43.438 7.7861 43.7894 8.97324 43.8348C10.1595 43.8802 11.3683 43.6136 12.3067 43.318C12.77 43.172 13.154 43.0233 13.4194 42.9124C13.5518 42.857 13.654 42.8114 13.7208 42.7807C13.7543 42.7653 13.7788 42.7537 13.7939 42.7465L13.8093 42.7391L13.8099 42.7388L13.8106 42.7385L13.8111 42.7382L14.6643 42.3153L20.5127 50.9383L28.9382 43.4159L23.1685 35.2915L23.5998 34.4611L23.601 34.4587L23.6112 34.4388C23.6208 34.4198 23.636 34.3895 23.6561 34.3486C23.6963 34.2669 23.756 34.143 23.8298 33.9826C23.9777 33.6613 24.1808 33.1966 24.3966 32.6333C24.833 31.4941 25.299 30.0088 25.4878 28.5183C25.6787 27.0111 25.5649 25.6752 25.0285 24.6704C24.5213 23.7203 23.4936 22.8031 21.3351 22.4492C19.1262 22.087 17.7337 22.5007 16.8421 23.1408C15.9482 23.7824 15.3971 24.7668 15.0668 25.9C14.7334 27.0441 14.6483 28.268 14.6552 29.2384C14.6586 29.7169 14.6842 30.118 14.7085 30.3955Z" fill="white"/>
<path fill-rule="evenodd" clip-rule="evenodd" d="M112.144 77.3607L112.72 74.9076L110.696 75.543C82.7484 84.3167 40.6204 84.5906 11.9589 75.5435L10.1026 74.9576L10.4624 77.1593C10.4624 77.1593 10.4994 77.3669 10.5198 77.4725C10.5604 77.6836 10.6221 77.988 10.709 78.3745C10.8828 79.1474 11.1571 80.2498 11.5638 81.5924C12.3765 84.2756 13.7212 87.9298 15.8541 91.833C19.9219 99.2769 26.8646 107.634 38.4158 111.851C38.3715 112.06 38.3481 112.279 38.3481 112.504V120.238C38.3481 121.763 39.4253 123 40.7542 123H82.1396C83.4685 123 84.5457 121.763 84.5457 120.238V112.504C84.5457 112.306 84.5275 112.112 84.4929 111.926C95.1745 107.373 102.038 98.9254 106.245 91.5446C108.43 87.7113 109.908 84.1523 110.84 81.5471C111.307 80.2437 111.638 79.1766 111.853 78.4301C111.961 78.0568 112.144 77.3607 112.144 77.3607ZM40.7542 112.505H82.1396V120.238H40.7542V112.505ZM82.6626 109.743C93.2946 105.566 100.083 97.3096 104.232 90.0323C106.317 86.3737 107.727 82.976 108.614 80.4975C108.831 79.8934 109.016 79.3445 109.172 78.8603C81.5047 86.926 41.5779 87.1512 13.3117 78.8142C13.451 79.3559 13.6242 79.9845 13.8365 80.6853C14.6028 83.2153 15.8748 86.6732 17.8924 90.3653C21.9036 97.7057 28.8841 105.964 40.7077 109.743H82.6626Z" fill="white"/>
<path d="M26.8949 58.1481C26.257 57.1719 25.0505 56.974 24.2 57.7062C23.3495 58.4384 23.1772 59.8234 23.815 60.7997L25.2587 63.0093C25.8966 63.9855 27.1031 64.1834 27.9536 63.4512C28.8041 62.719 28.9764 61.334 28.3386 60.3577L26.8949 58.1481Z" fill="white"/>
<path d="M31.4184 58.811C32.2689 58.0788 33.4754 58.2767 34.1133 59.2529L35.5569 61.4625C36.1948 62.4388 36.0224 63.8238 35.172 64.556C34.3215 65.2882 33.115 65.0903 32.4771 64.1141L31.0334 61.9045C30.3956 60.9282 30.5679 59.5432 31.4184 58.811Z" fill="white"/>
<path d="M29.1222 66.7499C28.3705 65.887 27.1517 65.887 26.4 66.7499C25.6482 67.6128 25.6482 69.0118 26.4 69.8747L27.8436 71.5319C28.5954 72.3948 29.8142 72.3948 30.5659 71.5319C31.3176 70.669 31.3176 69.27 30.5659 68.4071L29.1222 66.7499Z" fill="white"/>
<path d="M33.1371 72.2739C33.8889 71.411 35.1076 71.411 35.8594 72.2739L37.303 73.9311C38.0548 74.794 38.0548 76.193 37.303 77.056C36.5513 77.9188 35.3325 77.9188 34.5808 77.056L33.1371 75.3988C32.3854 74.5358 32.3854 73.1368 33.1371 72.2739Z" fill="white"/>
<path d="M50.8599 45.1115C50.8599 44.3488 51.3986 43.7305 52.063 43.7305C52.7274 43.7305 53.2661 44.3488 53.2661 45.1115V50.9117C53.2661 51.6744 52.7274 52.2927 52.063 52.2927C51.3986 52.2927 50.8599 51.6744 50.8599 50.9117V45.1115Z" fill="white"/>
<path d="M66.1561 47.4949C67.2689 46.7852 68.8097 45.9485 70.4425 45.9059C72.1996 45.8601 73.9101 46.7364 75.2114 49.0601C75.5707 49.7017 75.4089 50.5561 74.85 50.9686C74.291 51.381 73.5467 51.1952 73.1874 50.5537C72.3232 49.0105 71.3869 48.644 70.4972 48.6672C69.4833 48.6937 68.3774 49.2379 67.3246 49.9093C66.9752 50.1322 66.2013 50.8604 65.2685 52.1669C64.3587 53.441 63.3564 55.184 62.5152 57.3445C60.8378 61.6521 59.8 67.6173 61.4097 74.8767C61.5736 75.6158 61.1845 76.3675 60.5406 76.5556C59.8967 76.7438 59.2418 76.2971 59.0779 75.558C57.3191 67.6263 58.4468 61.0244 60.3185 56.2174C61.2518 53.8206 62.3698 51.8694 63.4075 50.416C64.4222 48.995 65.4228 47.9625 66.1561 47.4949Z" fill="white"/>
<path d="M90.1347 49.6706L90.1349 49.67L90.1357 49.667L90.1392 49.6543L90.1532 49.6025L90.1886 49.471L90.2087 49.3965C90.2574 49.2147 90.3291 48.9456 90.4205 48.5982C90.6033 47.9033 90.8647 46.8956 91.1786 45.6474C91.8064 43.1502 92.6428 39.6939 93.4778 35.8568C95.1586 28.132 96.7938 19.0348 96.7753 13.0772C96.7714 11.8194 96.6788 10.773 96.5117 9.93214C96.2359 10.3352 95.9197 10.7999 95.5687 11.3199C94.2179 13.3215 92.3542 16.1396 90.3038 19.4039C86.1916 25.9505 81.3712 34.2243 78.4116 41.2906C78.1237 41.978 77.4049 42.2674 76.8061 41.9369C76.2072 41.6064 75.9552 40.7813 76.2431 40.0939C79.2989 32.7978 84.2233 24.3615 88.3521 17.7885C90.4221 14.493 92.303 11.649 93.6666 9.62845C94.3485 8.61797 94.9014 7.81291 95.2844 7.25973C95.4759 6.98313 95.6249 6.76946 95.7264 6.62453C95.7481 6.59354 95.8722 6.41687 95.8722 6.41687L96.8604 5.01912L97.7837 6.44998C98.3961 7.39898 98.7658 8.61029 98.9697 9.9619C99.9947 8.84794 101.381 7.44635 102.956 6.13435C104.627 4.74335 106.56 3.41061 108.538 2.65148C110.513 1.89336 112.664 1.65991 114.643 2.7025C116.824 3.8516 118.021 6.13718 118.644 8.62226C119.266 11.102 119.366 13.9568 119.25 16.5923C119.132 19.244 118.791 21.7633 118.481 23.6119C118.443 23.84 118.405 24.0583 118.368 24.2656C119.384 23.974 120.394 23.8201 121.385 23.8443L123 23.8838L122.505 25.6486M90.1347 49.6706C90.1347 49.6706 90.1347 49.6707 90.1551 49.678L90.1347 49.6706ZM90.1347 49.6706L92.1822 51.0001L92.1826 50.9998L92.1843 50.9978L92.2214 50.9501C92.2482 50.9157 92.2886 50.864 92.3421 50.7959C92.4492 50.6597 92.6085 50.4582 92.8156 50.1994C93.23 49.6815 93.8354 48.9344 94.5965 48.0216C96.1192 46.1953 98.2614 43.7098 100.739 41.0729C105.736 35.7548 111.952 29.9814 117.164 27.614C118.025 27.2229 118.848 26.9412 119.627 26.7762C119.446 27.3691 119.223 28.0837 118.96 28.9039C118.132 31.486 116.907 35.1114 115.324 39.277C112.153 47.6233 107.566 58.0734 101.875 66.6467C101.473 67.2534 101.575 68.1199 102.103 68.5822C102.632 69.0444 103.387 68.9273 103.789 68.3206C109.648 59.4933 114.325 48.8141 117.53 40.3813C119.135 36.1573 120.377 32.4806 121.218 29.8581C121.638 28.5465 121.959 27.4979 122.175 26.7754C122.283 26.4141 122.505 25.6486 122.504 25.6504M122.504 25.6504L122.505 25.6486M122.504 25.6504L122.504 25.6492L122.505 25.6486M13.1635 32.3271L15.0901 33.1134L14.7085 30.3955C14.6842 30.118 14.6586 29.7169 14.6552 29.2384C14.6483 28.268 14.7334 27.0441 15.0668 25.9C15.3971 24.7668 15.9482 23.7824 16.8421 23.1408C17.7337 22.5007 19.1262 22.087 21.3351 22.4492C23.4936 22.8031 24.5213 23.7203 25.0285 24.6704C25.5649 25.6752 25.6787 27.0111 25.4878 28.5183C25.299 30.0088 24.833 31.4941 24.3966 32.6333C24.1808 33.1966 23.9777 33.6613 23.8298 33.9826C23.756 34.143 23.6963 34.2669 23.6561 34.3486C23.636 34.3895 23.6208 34.4198 23.6112 34.4388L23.601 34.4587L23.5998 34.4611L23.1685 35.2915L28.9382 43.4159L20.5127 50.9383L14.6643 42.3153L13.8111 42.7382L13.8106 42.7385L13.8099 42.7388L13.8093 42.7391L13.7939 42.7465C13.7788 42.7537 13.7543 42.7653 13.7208 42.7807C13.654 42.8114 13.5518 42.857 13.4194 42.9124C13.154 43.0233 12.77 43.172 12.3067 43.3179C11.3683 43.6136 10.1595 43.8802 8.97324 43.8348C7.7861 43.7894 6.73367 43.438 5.95791 42.6328C5.19916 41.8452 4.52974 40.4406 4.4202 37.863C4.31029 35.2768 4.85201 33.8366 5.51617 33.0107C6.19395 32.1678 7.17842 31.7406 8.33369 31.605C9.48803 31.4695 10.6931 31.6417 11.6388 31.8645C12.1053 31.9744 12.4944 32.0931 12.7641 32.1834C12.8987 32.2284 13.1635 32.3271 13.1635 32.3271ZM13.1635 32.3271L13.1627 32.3268L13.1619 32.3265L13.1635 32.3271ZM95.8122 36.5261C97.4407 29.0416 99.1033 19.9495 99.1789 13.6187C99.2026 13.5901 99.2276 13.5599 99.2539 13.5284L99.279 13.4984C99.5486 13.1757 99.9432 12.7152 100.437 12.1716C101.428 11.0816 102.807 9.67146 104.369 8.37002C105.941 7.06145 107.649 5.90508 109.301 5.27091C110.956 4.63573 112.423 4.57168 113.639 5.21274C114.947 5.90174 115.817 7.33174 116.332 9.3861C116.848 11.4458 116.957 13.9543 116.847 16.4523C116.737 18.9341 116.415 21.3186 116.118 23.0904C115.97 23.9739 115.83 24.6996 115.726 25.202C115.718 25.2423 115.71 25.2811 115.702 25.3185C110.171 28.0327 103.936 33.9045 99.1033 39.0475C97.0873 41.1929 95.2916 43.2377 93.8621 44.9194C94.4362 42.5894 95.1245 39.6867 95.8122 36.5261ZM70.339 75.9523C71.2575 68.0446 74.389 63.3905 77.5295 60.7355C79.1128 59.397 80.7134 58.5545 82.0607 58.0682C83.4399 57.5703 84.4629 57.4771 84.8941 57.5321C85.8318 57.6517 87.3812 58.4344 88.5817 60.6146C89.7782 62.7876 90.6679 66.4363 90.0875 72.2994C90.0125 73.0572 90.4869 73.7414 91.1471 73.8275C91.8073 73.9136 92.4033 73.3691 92.4783 72.6113C93.1009 66.3216 92.1861 61.9911 90.6156 59.1389C89.049 56.2937 86.8689 55.0049 85.1598 54.787C84.2676 54.6732 82.8845 54.8754 81.3388 55.4334C79.7612 56.0029 77.918 56.9768 76.1026 58.5116C72.4458 61.6031 68.9604 66.9228 67.954 75.5872C67.8662 76.3432 68.3289 77.0378 68.9875 77.1386C69.6461 77.2394 70.2512 76.7083 70.339 75.9523ZM47.0101 20.8058C47.0101 19.2804 48.0874 18.0438 49.4162 18.0438H65.7779C67.1068 18.0438 68.1841 19.2804 68.1841 20.8058V29.0918C68.1841 30.3286 67.476 31.3755 66.4998 31.7274V34.6123C66.5878 34.6687 66.6829 34.7307 66.7841 34.7982C67.354 35.1778 68.128 35.7363 68.9449 36.4535C70.5378 37.8517 72.4761 40.0098 73.188 42.7884C73.3755 43.5201 73.0108 44.2878 72.3733 44.503C71.7359 44.7182 71.0672 44.2995 70.8797 43.5677C70.3886 41.6509 68.9583 39.9423 67.4833 38.6475C66.7664 38.0182 66.0817 37.5237 65.5763 37.1869C65.3244 37.0191 64.8016 36.7038 64.8016 36.7038L64.0936 36.3148V31.8539H51.5818V36.3148L50.8983 36.69L50.8978 36.6903C50.8633 36.7101 50.7659 36.766 50.6961 36.808C50.5563 36.8919 50.351 37.0191 50.0991 37.1869C49.5937 37.5237 48.909 38.0182 48.1921 38.6475C46.7633 39.9017 45.3765 41.5443 44.8446 43.3882V74.1125C44.8446 74.8752 44.306 75.4935 43.6415 75.4935C42.9771 75.4935 42.4385 74.8752 42.4385 74.1125V42.9792L42.4874 42.7884C43.1993 40.0098 45.1376 37.8517 46.7305 36.4535C47.5474 35.7363 48.3214 35.1778 48.8913 34.7982C48.9925 34.7307 49.0876 34.6687 49.1756 34.6123V31.8402C47.9597 31.7016 47.0101 30.524 47.0101 29.0918V20.8058ZM49.4162 20.8058H65.7779V29.0918H49.4162V20.8058ZM26.5992 33.7452C26.4087 34.2424 26.2266 34.6725 26.075 35.0128L30.838 41.7197L34.0132 38.8849L37.7395 40.201C38.3745 40.4253 38.7309 41.1981 38.5355 41.9271C38.3401 42.656 37.6669 43.0652 37.0318 42.8408L34.5022 41.9474L18.2427 56.4641L20.0437 68.3519C20.1576 69.1034 19.7192 69.8185 19.0646 69.9491C18.41 70.0798 17.787 69.5766 17.6732 68.8252L15.6244 55.3026L18.6134 52.634L13.8792 45.6537C13.6147 45.756 13.2988 45.8695 12.9435 45.9815C11.8818 46.3159 10.4137 46.6535 8.89308 46.5953C7.37331 46.5371 5.68876 46.0772 4.3441 44.6814C2.98244 43.268 2.14801 41.082 2.01692 37.9976C1.8862 34.9216 2.51747 32.6677 3.74814 31.1372C4.96519 29.6238 6.5974 29.0324 8.08889 28.8573C9.58132 28.6821 11.0531 28.907 12.1225 29.1589C12.1652 29.1689 12.2073 29.1791 12.2488 29.1892C12.2452 28.0556 12.3458 26.5306 12.785 25.0237C13.2367 23.4738 14.0691 21.8737 15.5663 20.799C17.0658 19.7226 19.072 19.288 21.6753 19.7149C24.329 20.1501 26.0984 21.3883 27.0801 23.2273C28.0325 25.0116 28.0991 27.0986 27.8689 28.9157C27.6367 30.7495 27.0801 32.4898 26.5992 33.7452ZM112.144 77.3607L112.72 74.9076L110.696 75.543C82.7484 84.3167 40.6204 84.5906 11.9589 75.5435L10.1026 74.9576L10.4624 77.1593C10.4624 77.1593 10.4994 77.3669 10.5198 77.4725C10.5604 77.6836 10.6221 77.988 10.709 78.3745C10.8828 79.1474 11.1571 80.2498 11.5638 81.5924C12.3765 84.2756 13.7212 87.9298 15.8541 91.833C19.9219 99.2769 26.8646 107.634 38.4158 111.851C38.3715 112.06 38.3481 112.279 38.3481 112.504V120.238C38.3481 121.763 39.4253 123 40.7542 123H82.1396C83.4685 123 84.5457 121.763 84.5457 120.238V112.504C84.5457 112.306 84.5275 112.112 84.4928 111.926C95.1745 107.373 102.038 98.9254 106.245 91.5446C108.43 87.7114 109.908 84.1523 110.84 81.5472C111.307 80.2437 111.638 79.1766 111.853 78.4301C111.961 78.0568 112.144 77.3607 112.144 77.3607ZM82.1396 112.505H40.7542V120.238H82.1396V112.505ZM82.6626 109.743C93.2946 105.566 100.083 97.3096 104.232 90.0323C106.317 86.3737 107.727 82.976 108.614 80.4975C108.831 79.8934 109.016 79.3445 109.172 78.8603C81.5047 86.926 41.5779 87.1512 13.3117 78.8142C13.451 79.3558 13.6242 79.9845 13.8365 80.6853C14.6028 83.2153 15.8748 86.6732 17.8924 90.3653C21.9036 97.7057 28.8841 105.964 40.7077 109.743H82.6626ZM24.2 57.7062C25.0505 56.974 26.257 57.1719 26.8949 58.1481L28.3386 60.3577C28.9764 61.334 28.8041 62.719 27.9536 63.4512C27.1031 64.1834 25.8966 63.9855 25.2587 63.0093L23.815 60.7997C23.1772 59.8234 23.3495 58.4384 24.2 57.7062ZM34.1133 59.2529C33.4754 58.2767 32.2689 58.0788 31.4184 58.811C30.5679 59.5432 30.3956 60.9282 31.0334 61.9045L32.4771 64.1141C33.115 65.0903 34.3215 65.2882 35.172 64.556C36.0224 63.8238 36.1948 62.4388 35.5569 61.4625L34.1133 59.2529ZM26.4 66.7499C27.1517 65.887 28.3705 65.887 29.1222 66.7499L30.5659 68.4071C31.3176 69.27 31.3176 70.669 30.5659 71.5319C29.8142 72.3948 28.5954 72.3948 27.8436 71.5319L26.4 69.8747C25.6482 69.0118 25.6482 67.6128 26.4 66.7499ZM35.8594 72.2739C35.1076 71.411 33.8889 71.411 33.1371 72.2739C32.3854 73.1368 32.3854 74.5358 33.1371 75.3988L34.5808 77.056C35.3325 77.9188 36.5513 77.9188 37.303 77.056C38.0548 76.193 38.0548 74.794 37.303 73.9311L35.8594 72.2739ZM52.063 43.7305C51.3986 43.7305 50.8599 44.3488 50.8599 45.1115V50.9117C50.8599 51.6744 51.3986 52.2927 52.063 52.2927C52.7274 52.2927 53.2661 51.6744 53.2661 50.9117V45.1115C53.2661 44.3488 52.7274 43.7305 52.063 43.7305ZM70.4425 45.9059C68.8097 45.9485 67.2689 46.7852 66.1561 47.4949C65.4228 47.9625 64.4222 48.995 63.4075 50.416C62.3698 51.8694 61.2518 53.8206 60.3185 56.2174C58.4468 61.0244 57.3191 67.6263 59.0779 75.558C59.2418 76.2971 59.8967 76.7438 60.5406 76.5557C61.1845 76.3675 61.5736 75.6158 61.4097 74.8767C59.8 67.6173 60.8379 61.6521 62.5152 57.3445C63.3564 55.184 64.3587 53.441 65.2685 52.1669C66.2013 50.8604 66.9752 50.1322 67.3246 49.9093C68.3774 49.2379 69.4833 48.6937 70.4972 48.6672C71.3869 48.644 72.3232 49.0105 73.1874 50.5537C73.5467 51.1952 74.291 51.381 74.85 50.9686C75.4089 50.5561 75.5707 49.7017 75.2114 49.0601C73.9101 46.7364 72.1996 45.8601 70.4425 45.9059ZM111.891 10.4456C112.756 11.1549 112.957 12.5349 112.339 13.5279L111.136 15.4613C110.518 16.4544 109.316 16.6844 108.451 15.9751C107.586 15.2658 107.385 13.8857 108.003 12.8927L109.206 10.9593C109.824 9.9663 111.026 9.73629 111.891 10.4456ZM106.01 15.5376C106.817 16.3318 106.911 17.7267 106.219 18.6532L104.775 20.5866C104.083 21.5132 102.868 21.6205 102.061 20.8263C101.254 20.0321 101.16 18.6372 101.852 17.7106L103.296 15.7772C103.988 14.8507 105.203 14.7434 106.01 15.5376ZM111.652 19.7958C112.404 20.6587 112.404 22.0578 111.652 22.9207L110.209 24.5779C109.457 25.4408 108.238 25.4408 107.487 24.5779C106.735 23.715 106.735 22.3159 107.487 21.453L108.93 19.7958C109.682 18.9329 110.901 18.9329 111.652 19.7958ZM104.73 23.8459C105.659 24.4385 105.994 25.7838 105.477 26.8505L104.274 29.3363C103.758 30.4031 102.586 30.7874 101.657 30.1948C100.728 29.6021 100.393 28.2569 100.909 27.1902L102.112 24.7044C102.628 23.6376 103.8 23.2533 104.73 23.8459Z" stroke="white" stroke-width="3" stroke-linecap="round"/>
</svg>
