<svg width="125" height="125" viewBox="0 0 125 125" fill="none" xmlns="http://www.w3.org/2000/svg">
<path d="M23.3086 4.41332C23.7764 3.86124 23.7764 2.96614 23.3086 2.41406C22.8407 1.86198 22.0822 1.86198 21.6143 2.41406L19.9201 4.41332C19.4522 4.9654 19.4522 5.8605 19.9201 6.41258C20.3879 6.96465 21.1465 6.96465 21.6143 6.41258L23.3086 4.41332Z" fill="white"/>
<path d="M16.5316 12.4103C16.9994 11.8583 16.9994 10.9632 16.5316 10.4111C16.0637 9.85901 15.3052 9.85901 14.8373 10.4111L13.143 12.4103C12.6752 12.9624 12.6752 13.8575 13.143 14.4096C13.6109 14.9617 14.3694 14.9617 14.8373 14.4096L16.5316 12.4103Z" fill="white"/>
<path d="M13.4819 2.41406C13.9498 1.86198 14.7083 1.86198 15.1762 2.41406L16.8704 4.41332C17.3383 4.9654 17.3383 5.8605 16.8704 6.41258C16.4026 6.96466 15.644 6.96465 15.1762 6.41258L13.4819 4.41332C13.014 3.86124 13.014 2.96614 13.4819 2.41406Z" fill="white"/>
<path d="M21.9532 10.4111C21.4853 9.85901 20.7268 9.85901 20.2589 10.4111C19.7911 10.9632 19.7911 11.8583 20.2589 12.4103L21.9532 14.4096C22.421 14.9617 23.1796 14.9617 23.6474 14.4096C24.1153 13.8575 24.1153 12.9624 23.6474 12.4103L21.9532 10.4111Z" fill="white"/>
<path d="M53.978 11.485C54.5648 10.7925 54.5648 9.66987 53.978 8.97743C53.3912 8.28498 52.4398 8.28498 51.853 8.97743L49.728 11.485C49.1412 12.1774 49.1412 13.3001 49.728 13.9926C50.3148 14.685 51.2662 14.685 51.853 13.9926L53.978 11.485Z" fill="white"/>
<path d="M45.4779 21.5152C46.0647 20.8228 46.0647 19.7001 45.4779 19.0077C44.8911 18.3152 43.9397 18.3152 43.3529 19.0077L41.2279 21.5152C40.6411 22.2077 40.6411 23.3304 41.2279 24.0228C41.8147 24.7153 42.7661 24.7153 43.3529 24.0228L45.4779 21.5152Z" fill="white"/>
<path d="M41.6529 8.97743C42.2397 8.28498 43.1911 8.28498 43.7779 8.97743L45.9029 11.485C46.4897 12.1774 46.4897 13.3001 45.9029 13.9926C45.3161 14.685 44.3647 14.685 43.7779 13.9926L41.6529 11.485C41.0661 10.7925 41.0661 9.66987 41.6529 8.97743Z" fill="white"/>
<path d="M52.278 19.0077C51.6912 18.3152 50.7398 18.3152 50.153 19.0077C49.5662 19.7001 49.5662 20.8228 50.153 21.5152L52.278 24.0228C52.8648 24.7153 53.8162 24.7153 54.403 24.0228C54.9898 23.3304 54.9898 22.2077 54.403 21.5152L52.278 19.0077Z" fill="white"/>
<path d="M79.8713 5.66386C79.8713 4.8831 79.3349 4.25017 78.6733 4.25017C78.0116 4.25017 77.4752 4.8831 77.4752 5.66386V33.3188L77.5367 33.5365C78.1773 35.8042 78.9285 37.3919 80.2419 38.7743C81.3671 39.9585 82.8657 40.9435 84.8862 42.1504L83.9445 91.3174V91.3334H85.1426C83.9445 91.3334 83.9445 91.334 83.9445 91.3346V91.3359L83.9446 91.3385L83.9446 91.3444L83.9447 91.3585C83.9448 91.3688 83.945 91.3812 83.9454 91.3955C83.9458 91.4142 83.9465 91.4363 83.9475 91.4614C83.9481 91.4747 83.9487 91.4887 83.9494 91.5037C83.9537 91.5901 83.9618 91.7053 83.9771 91.8431C84.0074 92.1172 84.067 92.4909 84.1857 92.9114C84.423 93.7515 84.914 94.8318 85.9157 95.6198C86.8067 96.3207 87.7481 96.6556 88.4418 96.8193C88.7932 96.9022 89.0937 96.9442 89.311 96.9656C89.42 96.9763 89.509 96.9819 89.5741 96.9849C89.5913 96.9857 89.6067 96.9863 89.6205 96.9867L89.6322 96.9871L89.6537 96.9876L89.6793 96.988L89.6884 96.9881L89.6921 96.9881H89.6944C89.6947 96.9881 89.6951 96.9881 89.6951 95.5745C89.6951 96.9881 89.6954 96.9881 89.6957 96.9881H89.6981L89.7017 96.9881L89.7108 96.988L89.7364 96.9876C89.7567 96.9872 89.7834 96.9864 89.816 96.9849C89.8811 96.9819 89.9701 96.9763 90.0791 96.9656C90.2964 96.9442 90.5969 96.9022 90.9483 96.8193C91.642 96.6556 92.5834 96.3207 93.4745 95.6198C94.4761 94.8318 94.9671 93.7515 95.2044 92.9114C95.3231 92.4909 95.3827 92.1172 95.413 91.8431C95.4283 91.7053 95.4364 91.5901 95.4407 91.5037C95.4411 91.4944 95.4416 91.4855 95.4419 91.477C95.4423 91.4684 95.4427 91.4601 95.443 91.4521L95.4438 91.4302C95.4442 91.4176 95.4445 91.406 95.4447 91.3955L95.4451 91.379L95.4454 91.3585L95.4455 91.3444L95.4455 91.3385L95.4456 91.3359V91.3346C95.4456 91.334 95.4456 91.3334 94.2475 91.3334H95.4456V91.3174L94.5039 42.1504C96.5244 40.9435 98.023 39.9585 99.1482 38.7743C100.462 37.3919 101.213 35.8042 101.853 33.5365L101.915 33.3188V5.66386C101.915 4.8831 101.378 4.25017 100.717 4.25017C100.055 4.25017 99.5188 4.8831 99.5188 5.66386V32.8563C98.9808 34.6962 98.423 35.7489 97.5533 36.6642C96.5848 37.6836 95.1769 38.5945 92.7533 40.0244L92.0743 40.425L93.0491 91.3298L93.0488 91.3376C93.0475 91.3639 93.0443 91.4121 93.0371 91.4775C93.0225 91.6099 92.9922 91.8016 92.9313 92.0173C92.8092 92.4495 92.5814 92.9243 92.1454 93.2672C91.5988 93.6972 90.9828 93.9278 90.4784 94.0469C90.2308 94.1053 90.0222 94.134 89.8801 94.148C89.8094 94.1549 89.7561 94.1581 89.7239 94.1596L89.7077 94.1603L89.6951 94.1607C89.6901 94.1605 89.6823 94.1603 89.6717 94.1598L89.6662 94.1596C89.634 94.1581 89.5807 94.1549 89.51 94.148C89.3679 94.134 89.1593 94.1053 88.9117 94.0469C88.4073 93.9278 87.7913 93.6972 87.2447 93.2672C86.8088 92.9243 86.5809 92.4495 86.4588 92.0173C86.3979 91.8016 86.3676 91.6099 86.353 91.4775C86.3458 91.4121 86.3426 91.3639 86.3413 91.3376L86.341 91.3298L87.3159 40.425L86.6368 40.0244C84.2132 38.5945 82.8053 37.6836 81.8368 36.6642C80.9671 35.7489 80.4093 34.6962 79.8713 32.8563V5.66386Z" fill="white"/>
<path d="M86.101 4.5329C86.7626 4.5329 87.299 5.16583 87.299 5.94659V27.4347C87.299 28.2154 86.7626 28.8484 86.101 28.8484C85.4394 28.8484 84.903 28.2154 84.903 27.4347V5.94659C84.903 5.16583 85.4394 4.5329 86.101 4.5329Z" fill="white"/>
<path d="M93.2891 4.5329C93.9508 4.5329 94.4871 5.16583 94.4871 5.94659V27.4347C94.4871 28.2154 93.9508 28.8484 93.2891 28.8484C92.6275 28.8484 92.0911 28.2154 92.0911 27.4347V5.94659C92.0911 5.16583 92.6275 4.5329 93.2891 4.5329Z" fill="white"/>
<path d="M21.6475 47.7918C21.6475 47.011 22.1839 46.3781 22.8455 46.3781H50.6396C51.3013 46.3781 51.8376 47.011 51.8376 47.7918C51.8376 48.5726 51.3013 49.2055 50.6396 49.2055H22.8455C22.1839 49.2055 21.6475 48.5726 21.6475 47.7918Z" fill="white"/>
<path d="M21.6475 59.6668C21.6475 58.886 22.1839 58.2531 22.8455 58.2531H50.6396C51.3013 58.2531 51.8376 58.886 51.8376 59.6668C51.8376 60.4475 51.3013 61.0805 50.6396 61.0805H22.8455C22.1839 61.0805 21.6475 60.4475 21.6475 59.6668Z" fill="white"/>
<path d="M22.8455 70.1281C22.1839 70.1281 21.6475 70.761 21.6475 71.5418C21.6475 72.3225 22.1839 72.9555 22.8455 72.9555H50.6396C51.3013 72.9555 51.8376 72.3225 51.8376 71.5418C51.8376 70.761 51.3013 70.1281 50.6396 70.1281H22.8455Z" fill="white"/>
<path d="M21.6475 83.4167C21.6475 82.636 22.1839 82.0031 22.8455 82.0031H39.6178C40.2795 82.0031 40.8158 82.636 40.8158 83.4167C40.8158 84.1975 40.2795 84.8304 39.6178 84.8304H22.8455C22.1839 84.8304 21.6475 84.1975 21.6475 83.4167Z" fill="white"/>
<path fill-rule="evenodd" clip-rule="evenodd" d="M68.8495 35.3512H72.9226C73.5843 35.3512 74.1208 34.7183 74.1208 33.9376C74.1208 33.1568 73.5844 32.5239 72.9228 32.5239H68.8495C67.7573 32.5239 66.7394 33.0379 65.8883 33.6675C65.0267 34.3048 64.2411 35.1311 63.5895 35.9188C63.1607 36.4372 62.7782 36.9531 62.4578 37.4121C62.1742 36.9574 61.8306 36.452 61.4311 35.9443C60.1843 34.3599 58.2094 32.5238 55.6713 32.5239H10.6262C10.6259 32.5239 10.6257 32.5239 10.6257 33.9375L10.6262 32.5239H9.42772V113.67H10.6257V112.256C10.6257 113.67 10.6254 113.67 10.6257 113.67H55.6713C57.2984 113.67 58.5942 114.117 59.5065 115.246C60.4338 116.394 61.1822 118.512 61.1822 122.434H63.5782C63.5782 118.486 64.2765 116.362 65.1545 115.22C66.0038 114.115 67.2245 113.67 68.8495 113.67H113.895C113.895 113.67 113.895 113.67 113.895 112.256L113.895 113.67H115.093V103.491C115.093 102.71 114.557 102.077 113.895 102.077C113.233 102.077 112.697 102.71 112.697 103.491V110.842H68.8495C66.9668 110.842 65.043 111.34 63.5782 113.074V40.3216C63.6626 40.1839 63.7717 40.0099 63.9023 39.8097C64.2462 39.2826 64.7319 38.5854 65.3041 37.8938C65.8804 37.1971 66.5175 36.539 67.1609 36.0631C67.8148 35.5794 68.3843 35.3512 68.8495 35.3512ZM60.9043 39.725C61.0206 39.9334 61.1137 40.1119 61.1822 40.2479V113.224C59.6452 111.371 57.6135 110.842 55.6713 110.842H11.8238V35.3512H55.6713C57.2065 35.3512 58.586 36.484 59.6753 37.8682C60.2027 38.5384 60.6193 39.2145 60.9043 39.725Z" fill="white"/>
<path d="M4.39604 42.9852C4.39604 42.2045 3.85967 41.5715 3.19802 41.5715C2.53637 41.5715 2 42.2045 2 42.9852V123H51.8376C52.4993 123 53.0357 122.367 53.0357 121.586C53.0357 120.806 52.4993 120.173 51.8376 120.173H4.39604V42.9852Z" fill="white"/>
<path d="M122.76 102.926C122.76 102.145 122.224 101.512 121.562 101.512C120.901 101.512 120.364 102.145 120.364 102.926V120.173H72.9228C72.2611 120.173 71.7248 120.806 71.7248 121.586C71.7248 122.367 72.2611 123 72.9228 123H122.76V102.926Z" fill="white"/>
<path fill-rule="evenodd" clip-rule="evenodd" d="M122.874 7.01086C122.32 5.70373 121.601 4.7791 120.676 4.39934C119.734 4.01304 118.867 4.3066 118.243 4.69925C117.626 5.08738 117.132 5.63872 116.812 6.04695C116.646 6.2583 116.514 6.44876 116.421 6.58886C116.375 6.65924 116.338 6.71779 116.311 6.76101C116.298 6.78264 116.287 6.8005 116.279 6.81415L116.269 6.83145L116.265 6.83766L116.263 6.84013L116.263 6.84121C116.263 6.8417 116.262 6.84218 117.25 7.64307L116.262 6.84218L116.174 6.99342L116.122 7.16619L117.25 7.64307C116.122 7.16619 116.122 7.16644 116.122 7.16681L116.114 7.19275L116.091 7.26785C116.071 7.33382 116.042 7.43135 116.004 7.55879C115.928 7.81368 115.817 8.1883 115.677 8.66966C115.396 9.63231 114.997 11.0222 114.523 12.7354C113.576 16.1608 112.327 20.8838 111.122 26.0716C109.919 31.256 108.755 36.9235 107.982 42.2336C107.213 47.5165 106.815 52.5549 107.194 56.436L107.316 57.6876H113.576L111.716 91.6943L111.919 92.079L112.937 91.3334C111.919 92.079 111.919 92.0795 111.919 92.0801L111.92 92.0815L111.922 92.0848L111.927 92.0937L111.941 92.1201L111.957 92.149L111.969 92.1705C111.975 92.1815 111.981 92.1934 111.988 92.2061C112.029 92.2773 112.085 92.3756 112.158 92.4949C112.303 92.7327 112.513 93.0575 112.78 93.4179C113.305 94.1249 114.099 95.0337 115.103 95.6587C116.127 96.2956 117.426 96.6672 118.853 96.1421C120.255 95.6262 121.577 94.3182 122.804 92.1082L123 91.7553V7.30935L122.874 7.01086ZM118.571 7.96685C118.463 8.1038 118.377 8.2273 118.318 8.3163C118.303 8.36694 118.285 8.42713 118.264 8.49659C118.19 8.74588 118.081 9.11455 117.942 9.58964C117.665 10.5399 117.271 11.9155 116.801 13.6128C115.862 17.0085 114.625 21.6865 113.433 26.8187C112.241 31.9541 111.098 37.5254 110.344 42.7121C109.673 47.3234 109.321 51.5453 109.484 54.8603H116.131L114.159 90.9342C114.265 91.1031 114.408 91.319 114.583 91.555C115.009 92.1292 115.578 92.7578 116.221 93.1577C116.844 93.5457 117.477 93.6866 118.14 93.4429C118.783 93.206 119.636 92.5395 120.604 90.9009V7.99508C120.258 7.27838 119.985 7.10942 119.888 7.06979C119.796 7.03198 119.645 7.02116 119.371 7.19399C119.089 7.37135 118.805 7.66823 118.571 7.96685Z" fill="white"/>
<path d="M10.6262 32.5239C10.6259 32.5239 10.6257 32.5239 10.6257 33.9375L10.6262 32.5239ZM10.6262 32.5239H9.42772V113.67H10.6257M10.6262 32.5239H55.6713C58.2094 32.5238 60.1843 34.3599 61.4311 35.9443C61.8306 36.452 62.1742 36.9574 62.4578 37.4121C62.7782 36.9531 63.1607 36.4372 63.5895 35.9188C64.2411 35.1311 65.0267 34.3048 65.8883 33.6675C66.7394 33.0379 67.7573 32.5239 68.8495 32.5239H72.9228C73.5845 32.5239 74.1208 33.1568 74.1208 33.9376C74.1208 34.7183 73.5843 35.3512 72.9226 35.3512H68.8495C68.3843 35.3512 67.8148 35.5794 67.1609 36.0631C66.5175 36.539 65.8804 37.1971 65.3041 37.8938C64.7319 38.5854 64.2462 39.2826 63.9023 39.8097C63.7717 40.0099 63.6626 40.1839 63.5782 40.3216V113.074C65.043 111.34 66.9668 110.842 68.8495 110.842H112.697V103.491C112.697 102.71 113.233 102.077 113.895 102.077C114.557 102.077 115.093 102.71 115.093 103.491V113.67H113.895M10.6257 113.67V112.256C10.6257 113.67 10.6254 113.67 10.6257 113.67ZM10.6257 113.67H55.6713C57.2984 113.67 58.5942 114.117 59.5065 115.246C60.4338 116.394 61.1822 118.512 61.1822 122.434H63.5782C63.5782 118.486 64.2765 116.362 65.1545 115.22C66.0038 114.115 67.2245 113.67 68.8495 113.67H113.895M113.895 113.67C113.895 113.67 113.895 113.67 113.895 112.256L113.895 113.67ZM117.25 7.64307C116.262 6.84218 116.263 6.8417 116.263 6.84121L116.263 6.84013L116.265 6.83766L116.269 6.83145L116.279 6.81415C116.287 6.8005 116.298 6.78264 116.311 6.76101C116.338 6.71779 116.375 6.65924 116.421 6.58886C116.514 6.44876 116.646 6.2583 116.812 6.04695C117.132 5.63872 117.626 5.08738 118.243 4.69925C118.867 4.3066 119.734 4.01304 120.676 4.39934C121.601 4.7791 122.32 5.70373 122.874 7.01086L123 7.30935V91.7553L122.804 92.1082C121.577 94.3182 120.255 95.6262 118.853 96.1421C117.426 96.6672 116.127 96.2956 115.103 95.6587C114.099 95.0337 113.305 94.1249 112.78 93.4179C112.513 93.0575 112.303 92.7327 112.158 92.4949C112.085 92.3756 112.029 92.2773 111.988 92.2061C111.981 92.1934 111.975 92.1815 111.969 92.1705L111.957 92.149L111.941 92.1201L111.927 92.0937L111.922 92.0848L111.92 92.0815L111.919 92.0801C111.919 92.0795 111.919 92.079 112.937 91.3334L111.919 92.079L111.716 91.6943L113.576 57.6877H107.316L107.194 56.436C106.815 52.5549 107.213 47.5165 107.982 42.2336C108.755 36.9235 109.919 31.256 111.122 26.0716C112.327 20.8838 113.576 16.1608 114.523 12.7354C114.997 11.0222 115.396 9.63231 115.677 8.66966C115.817 8.1883 115.928 7.81368 116.004 7.55879C116.042 7.43135 116.071 7.33382 116.091 7.26785L116.114 7.19275L116.122 7.16681C116.122 7.16644 116.122 7.16619 117.25 7.64307ZM117.25 7.64307L116.262 6.84218L116.174 6.99342L116.122 7.16619L117.25 7.64307ZM23.3086 2.41406C23.7764 2.96614 23.7764 3.86124 23.3086 4.41332L21.6143 6.41258C21.1465 6.96465 20.3879 6.96465 19.9201 6.41258C19.4522 5.8605 19.4522 4.9654 19.9201 4.41332L21.6143 2.41406C22.0822 1.86198 22.8407 1.86198 23.3086 2.41406ZM16.5316 10.4111C16.9994 10.9632 16.9994 11.8583 16.5316 12.4103L14.8373 14.4096C14.3694 14.9617 13.6109 14.9617 13.143 14.4096C12.6752 13.8575 12.6752 12.9624 13.143 12.4103L14.8373 10.4111C15.3052 9.85901 16.0637 9.85901 16.5316 10.4111ZM15.1762 2.41406C14.7083 1.86198 13.9498 1.86198 13.4819 2.41406C13.014 2.96614 13.014 3.86124 13.4819 4.41332L15.1762 6.41258C15.644 6.96465 16.4026 6.96466 16.8704 6.41258C17.3383 5.8605 17.3383 4.9654 16.8704 4.41332L15.1762 2.41406ZM20.2589 10.4111C20.7268 9.85901 21.4853 9.85901 21.9532 10.4111L23.6474 12.4103C24.1153 12.9624 24.1153 13.8575 23.6474 14.4096C23.1796 14.9617 22.421 14.9617 21.9532 14.4096L20.2589 12.4103C19.7911 11.8583 19.7911 10.9632 20.2589 10.4111ZM53.978 8.97743C54.5648 9.66987 54.5648 10.7925 53.978 11.485L51.853 13.9926C51.2662 14.685 50.3148 14.685 49.728 13.9926C49.1412 13.3001 49.1412 12.1774 49.728 11.485L51.853 8.97743C52.4398 8.28498 53.3912 8.28498 53.978 8.97743ZM45.4779 19.0077C46.0647 19.7001 46.0647 20.8228 45.4779 21.5152L43.3529 24.0228C42.7661 24.7153 41.8147 24.7153 41.2279 24.0228C40.6411 23.3304 40.6411 22.2077 41.2279 21.5152L43.3529 19.0077C43.9397 18.3152 44.8911 18.3152 45.4779 19.0077ZM43.7779 8.97743C43.1911 8.28498 42.2397 8.28498 41.6529 8.97743C41.0661 9.66987 41.0661 10.7925 41.6529 11.485L43.7779 13.9926C44.3647 14.685 45.3161 14.685 45.9029 13.9926C46.4897 13.3001 46.4897 12.1774 45.9029 11.485L43.7779 8.97743ZM50.153 19.0077C50.7398 18.3152 51.6912 18.3152 52.278 19.0077L54.403 21.5152C54.9898 22.2077 54.9898 23.3304 54.403 24.0228C53.8162 24.7153 52.8648 24.7153 52.278 24.0228L50.153 21.5152C49.5662 20.8228 49.5662 19.7001 50.153 19.0077ZM78.6733 4.25017C79.3349 4.25017 79.8713 4.8831 79.8713 5.66386V32.8563C80.4093 34.6962 80.9671 35.7489 81.8368 36.6642C82.8053 37.6836 84.2133 38.5945 86.6368 40.0244L87.3159 40.425L86.341 91.3298L86.3413 91.3376C86.3426 91.3639 86.3458 91.4121 86.353 91.4775C86.3676 91.6099 86.3979 91.8016 86.4588 92.0173C86.5809 92.4495 86.8088 92.9243 87.2447 93.2672C87.7913 93.6972 88.4073 93.9278 88.9117 94.0469C89.1593 94.1053 89.3679 94.134 89.51 94.148C89.5807 94.1549 89.634 94.1581 89.6662 94.1596L89.6717 94.1598C89.6823 94.1603 89.6901 94.1605 89.6951 94.1607L89.7077 94.1603L89.7239 94.1596C89.7561 94.1581 89.8094 94.1549 89.8801 94.148C90.0222 94.134 90.2308 94.1053 90.4784 94.0469C90.9828 93.9278 91.5988 93.6972 92.1454 93.2672C92.5814 92.9243 92.8092 92.4495 92.9313 92.0173C92.9922 91.8016 93.0225 91.6099 93.0371 91.4775C93.0443 91.4121 93.0475 91.3639 93.0488 91.3376L93.0491 91.3298L92.0743 40.425L92.7533 40.0244C95.1769 38.5945 96.5848 37.6836 97.5533 36.6642C98.4231 35.7489 98.9808 34.6962 99.5188 32.8563V5.66386C99.5188 4.8831 100.055 4.25017 100.717 4.25017C101.378 4.25017 101.915 4.8831 101.915 5.66386V33.3188L101.853 33.5365C101.213 35.8042 100.462 37.3919 99.1482 38.7743C98.023 39.9585 96.5244 40.9435 94.5039 42.1504L95.4456 91.3174V91.3334H94.2475C95.4456 91.3334 95.4456 91.334 95.4456 91.3346V91.3359L95.4456 91.3385L95.4455 91.3444L95.4454 91.3585L95.4451 91.379L95.4447 91.3955C95.4445 91.406 95.4442 91.4176 95.4438 91.4302L95.443 91.4522C95.4427 91.4601 95.4423 91.4684 95.4419 91.477C95.4416 91.4855 95.4411 91.4944 95.4407 91.5037C95.4364 91.5901 95.4283 91.7053 95.413 91.8431C95.3827 92.1172 95.3231 92.4909 95.2044 92.9114C94.9671 93.7515 94.4761 94.8318 93.4745 95.6198C92.5834 96.3207 91.642 96.6556 90.9483 96.8193C90.5969 96.9022 90.2964 96.9442 90.0791 96.9656C89.9701 96.9763 89.8811 96.9819 89.816 96.9849C89.7834 96.9864 89.7567 96.9872 89.7364 96.9876L89.7108 96.988L89.7017 96.9881L89.6981 96.9881H89.6957C89.6954 96.9881 89.6951 96.9881 89.6951 95.5745C89.6951 96.9881 89.6947 96.9881 89.6944 96.9881H89.6921L89.6884 96.9881L89.6793 96.988L89.6537 96.9876L89.6322 96.9871L89.6205 96.9867C89.6067 96.9863 89.5913 96.9857 89.5741 96.9849C89.509 96.9819 89.42 96.9763 89.311 96.9656C89.0937 96.9442 88.7932 96.9022 88.4418 96.8193C87.7481 96.6556 86.8067 96.3207 85.9157 95.6198C84.914 94.8318 84.423 93.7515 84.1857 92.9114C84.067 92.4909 84.0074 92.1172 83.9771 91.8431C83.9618 91.7053 83.9537 91.5901 83.9494 91.5037C83.9487 91.4887 83.9481 91.4747 83.9475 91.4614C83.9465 91.4363 83.9458 91.4142 83.9454 91.3955C83.945 91.3812 83.9448 91.3688 83.9447 91.3585L83.9446 91.3444L83.9446 91.3385L83.9446 91.3359V91.3346C83.9446 91.334 83.9446 91.3334 85.1426 91.3334H83.9446V91.3174L84.8862 42.1504C82.8657 40.9435 81.3671 39.9585 80.2419 38.7743C78.9285 37.3919 78.1773 35.8042 77.5367 33.5365L77.4752 33.3188V5.66386C77.4752 4.8831 78.0116 4.25017 78.6733 4.25017ZM87.299 5.94659C87.299 5.16584 86.7626 4.5329 86.101 4.5329C85.4394 4.5329 84.903 5.16583 84.903 5.94659V27.4347C84.903 28.2154 85.4394 28.8483 86.101 28.8483C86.7626 28.8483 87.299 28.2154 87.299 27.4347V5.94659ZM94.4871 5.94659C94.4871 5.16584 93.9508 4.5329 93.2891 4.5329C92.6275 4.5329 92.0911 5.16583 92.0911 5.94659V27.4347C92.0911 28.2154 92.6275 28.8483 93.2891 28.8483C93.9508 28.8483 94.4871 28.2154 94.4871 27.4347V5.94659ZM22.8455 46.3781C22.1839 46.3781 21.6475 47.011 21.6475 47.7918C21.6475 48.5726 22.1839 49.2055 22.8455 49.2055H50.6396C51.3013 49.2055 51.8376 48.5726 51.8376 47.7918C51.8376 47.011 51.3013 46.3781 50.6396 46.3781H22.8455ZM22.8455 58.2531C22.1839 58.2531 21.6475 58.886 21.6475 59.6668C21.6475 60.4475 22.1839 61.0805 22.8455 61.0805H50.6396C51.3013 61.0805 51.8376 60.4475 51.8376 59.6668C51.8376 58.886 51.3013 58.2531 50.6396 58.2531H22.8455ZM21.6475 71.5418C21.6475 70.761 22.1839 70.1281 22.8455 70.1281H50.6396C51.3013 70.1281 51.8376 70.761 51.8376 71.5418C51.8376 72.3225 51.3013 72.9555 50.6396 72.9555H22.8455C22.1839 72.9555 21.6475 72.3225 21.6475 71.5418ZM22.8455 82.0031C22.1839 82.0031 21.6475 82.636 21.6475 83.4167C21.6475 84.1975 22.1839 84.8304 22.8455 84.8304H39.6178C40.2795 84.8304 40.8158 84.1975 40.8158 83.4167C40.8158 82.636 40.2795 82.0031 39.6178 82.0031H22.8455ZM61.1822 40.2479C61.1137 40.1119 61.0206 39.9334 60.9043 39.725C60.6193 39.2145 60.2027 38.5384 59.6753 37.8682C58.586 36.484 57.2065 35.3512 55.6713 35.3512H11.8238V110.842H55.6713C57.6135 110.842 59.6452 111.371 61.1822 113.224V40.2479ZM3.19802 41.5715C3.85967 41.5715 4.39604 42.2045 4.39604 42.9852V120.173H51.8376C52.4993 120.173 53.0357 120.806 53.0357 121.586C53.0357 122.367 52.4993 123 51.8376 123H2V42.9852C2 42.2045 2.53637 41.5715 3.19802 41.5715ZM121.562 101.512C122.224 101.512 122.76 102.145 122.76 102.926V123H72.9228C72.2611 123 71.7248 122.367 71.7248 121.586C71.7248 120.806 72.2611 120.173 72.9228 120.173H120.364V102.926C120.364 102.145 120.901 101.512 121.562 101.512ZM118.318 8.3163C118.377 8.2273 118.463 8.10379 118.571 7.96685C118.805 7.66823 119.089 7.37135 119.371 7.19399C119.645 7.02116 119.796 7.03198 119.888 7.06979C119.985 7.10942 120.258 7.27838 120.604 7.99508V90.9009C119.636 92.5395 118.783 93.206 118.14 93.4429C117.477 93.6866 116.844 93.5457 116.221 93.1577C115.578 92.7578 115.009 92.1292 114.583 91.555C114.408 91.319 114.265 91.1031 114.159 90.9342L116.131 54.8603H109.484C109.321 51.5453 109.673 47.3234 110.344 42.7121C111.098 37.5254 112.241 31.9541 113.433 26.8187C114.625 21.6865 115.862 17.0085 116.801 13.6128C117.271 11.9155 117.665 10.5399 117.942 9.58964C118.081 9.11455 118.19 8.74588 118.264 8.49659C118.285 8.42713 118.303 8.36694 118.318 8.3163Z" stroke="white" stroke-width="3" stroke-linecap="round"/>
</svg>
