<svg width="125" height="111" viewBox="0 0 125 111" fill="none" xmlns="http://www.w3.org/2000/svg">
<path d="M24.8408 6.91509C28.8552 5.25859 33.1579 4.406 37.503 4.406C41.8482 4.406 46.1508 5.25859 50.1652 6.9151C54.1796 8.57161 57.8271 10.9996 60.8996 14.0604L60.9027 14.0634L81.3061 34.0603C82.6467 35.4819 83.3962 37.3615 83.3962 39.318C83.3962 41.3547 82.5841 43.3079 81.1385 44.748C79.6929 46.1881 77.7322 46.9972 75.6878 46.9972C73.6434 46.9972 71.1108 45.8689 69.6652 44.4288L61.5425 36.294C61.0709 35.8242 60.3063 35.8242 59.8347 36.294C59.3631 36.7638 59.3631 37.5255 59.8347 37.9953L68.3595 46.2373C70.2581 48.1286 73.0029 49.4032 75.6878 49.4032C78.3727 49.4032 80.9477 48.3407 82.8463 46.4493C84.7448 44.558 85.8114 41.9928 85.8114 39.318C85.8114 36.6433 84.7448 34.0781 82.8463 32.1868L62.6074 12.3591L62.6043 12.356C59.3082 9.07322 55.3955 6.4691 51.0894 4.69225C46.782 2.91483 42.1653 2 37.503 2C32.8407 2 28.224 2.91482 23.9166 4.69224C19.6092 6.46966 15.6954 9.07486 12.3986 12.3591C9.10183 15.6433 6.4867 19.5423 4.70251 23.8334C2.91831 28.1244 2 32.7236 2 37.3682C2 42.0128 2.91831 46.6119 4.7025 50.903C6.4867 55.1941 9.10183 59.093 12.3986 62.3773L17.3716 67.3314C17.8432 67.8012 18.6078 67.8012 19.0794 67.3314C19.551 66.8616 19.551 66.0999 19.0794 65.6301L14.1064 60.676C11.0339 57.6151 8.59665 53.9814 6.93383 49.9823C5.27101 45.9831 4.41517 41.6968 4.41517 37.3682C4.41517 33.0395 5.27101 28.7533 6.93383 24.7541C8.59665 20.7549 11.0339 17.1212 14.1064 14.0604C17.1789 10.9996 20.8264 8.5716 24.8408 6.91509Z" fill="white"/>
<path d="M120.585 37.3682C120.585 33.0395 119.729 28.7533 118.066 24.7541C116.403 20.7549 113.966 17.1212 110.894 14.0604C107.821 10.9996 104.174 8.5716 100.159 6.9151C96.1448 5.25859 91.8422 4.406 87.497 4.406C83.1519 4.406 78.8493 5.25859 74.8349 6.9151C74.2187 7.16935 73.5123 6.87786 73.2571 6.26404C73.0018 5.65021 73.2944 4.9465 73.9106 4.69224C78.218 2.91482 82.8347 2 87.497 2C92.1593 2 96.776 2.91483 101.083 4.69224C105.391 6.46966 109.305 9.07486 112.601 12.3591C115.898 15.6433 118.513 19.5423 120.298 23.8334C122.082 28.1244 123 32.7236 123 37.3682C123 42.0128 122.082 46.6119 120.297 50.903C118.513 55.1941 115.898 59.093 112.601 62.3773L68.3351 106.569C68.1987 106.705 67.2834 107.503 67.1121 107.561C65.8642 108.376 64.395 108.82 62.8799 108.82C60.8337 108.82 58.8714 108.011 57.4246 106.569C55.9777 105.128 55.1649 103.173 55.1649 101.135C55.1649 100.563 55.2288 99.9985 55.3526 99.4498C54.7415 99.6031 54.109 99.6825 53.4683 99.6825C51.4221 99.6825 49.4598 98.8728 48.013 97.4314C46.5661 95.9901 45.7533 94.0352 45.7533 91.9969C45.7533 91.4437 45.8132 90.8966 45.9293 90.3644C45.395 90.4801 44.8459 90.5397 44.2906 90.5397C42.2445 90.5397 40.2822 89.73 38.8353 88.2886C37.3885 86.8473 36.5757 84.8924 36.5757 82.8541C36.5757 82.3009 36.6355 81.7539 36.7517 81.2216C36.2174 81.3373 35.6682 81.3969 35.113 81.3969C33.0668 81.3969 31.1045 80.5872 29.6577 79.1459C28.2108 77.7045 27.398 75.7496 27.398 73.7113C27.398 71.6729 28.2108 69.718 29.6577 68.2767L45.085 52.8783C45.5566 52.4085 46.3212 52.4085 46.7928 52.8783C47.2644 53.3481 47.2644 54.1098 46.7928 54.5796L31.3655 69.978C30.3716 70.9681 29.8132 72.311 29.8132 73.7113C29.8132 75.1115 30.3716 76.4544 31.3655 77.4445C32.3594 78.4347 33.7074 78.9909 35.113 78.9909C36.3232 78.9909 37.4908 78.5785 38.4264 77.8318L53.7796 62.5023C54.2512 62.0325 55.0158 62.0325 55.4874 62.5023C55.959 62.9721 55.959 63.7338 55.4874 64.2036L40.224 79.4684C39.4305 80.4142 38.9908 81.6116 38.9908 82.8541C38.9908 84.2543 39.5492 85.5972 40.5431 86.5873C41.537 87.5775 42.885 88.1337 44.2906 88.1337C45.5009 88.1337 46.6685 87.7213 47.6041 86.9746L62.9573 71.6451C63.4289 71.1753 64.1935 71.1753 64.6651 71.6451C65.1367 72.1149 65.1367 72.8766 64.6651 73.3464L49.4016 88.6112C48.6081 89.557 48.1685 90.7544 48.1685 91.9969C48.1685 93.3971 48.7269 94.74 49.7208 95.7301C50.7146 96.7203 52.0627 97.2765 53.4683 97.2765C54.8667 97.2765 56.2082 96.7259 57.2006 95.7452L72.618 80.3067C73.0896 79.8369 73.8542 79.8369 74.3258 80.3067C74.7973 80.7765 74.7973 81.5382 74.3258 82.008L58.998 97.5182C58.998 97.5182 57.5801 99.7344 57.5801 101.135C57.5801 102.535 58.1385 103.878 59.1324 104.868C60.1263 105.858 61.4743 106.414 62.8799 106.414C64.079 106.414 65.2362 106.009 66.1674 105.276L110.893 60.6764L110.894 60.676C113.966 57.6152 116.403 53.9814 118.066 49.9823C119.729 45.9831 120.585 41.6968 120.585 37.3682Z" fill="white"/>
<path d="M24.8408 6.91509C28.8552 5.25859 33.1579 4.406 37.503 4.406C41.8482 4.406 46.1508 5.25859 50.1652 6.9151C54.1796 8.57161 57.8271 10.9996 60.8996 14.0604L60.9027 14.0634L81.3061 34.0603C82.6467 35.4819 83.3962 37.3615 83.3962 39.318C83.3962 41.3547 82.5841 43.3079 81.1385 44.748C79.6929 46.1881 77.7322 46.9972 75.6878 46.9972C73.6434 46.9972 71.1108 45.8689 69.6652 44.4288L61.5425 36.294C61.0709 35.8242 60.3063 35.8242 59.8347 36.294C59.3631 36.7638 59.3631 37.5255 59.8347 37.9953L68.3595 46.2373C70.2581 48.1286 73.0029 49.4032 75.6878 49.4032C78.3727 49.4032 80.9477 48.3407 82.8463 46.4493C84.7448 44.558 85.8114 41.9928 85.8114 39.318C85.8114 36.6433 84.7448 34.0781 82.8463 32.1868L62.6074 12.3591L62.6043 12.356C59.3082 9.07322 55.3955 6.4691 51.0894 4.69225C46.782 2.91483 42.1653 2 37.503 2C32.8407 2 28.224 2.91482 23.9166 4.69224C19.6092 6.46966 15.6954 9.07486 12.3986 12.3591C9.10183 15.6433 6.4867 19.5423 4.70251 23.8334C2.91831 28.1244 2 32.7236 2 37.3682C2 42.0128 2.91831 46.6119 4.7025 50.903C6.4867 55.1941 9.10183 59.093 12.3986 62.3773L17.3716 67.3314C17.8432 67.8012 18.6078 67.8012 19.0794 67.3314C19.551 66.8616 19.551 66.0999 19.0794 65.6301L14.1064 60.676C11.0339 57.6151 8.59665 53.9814 6.93383 49.9823C5.27101 45.9831 4.41517 41.6968 4.41517 37.3682C4.41517 33.0395 5.27101 28.7533 6.93383 24.7541C8.59665 20.7549 11.0339 17.1212 14.1064 14.0604C17.1789 10.9996 20.8264 8.5716 24.8408 6.91509Z" stroke="white" stroke-width="4" stroke-linecap="round"/>
<path d="M120.585 37.3682C120.585 33.0395 119.729 28.7533 118.066 24.7541C116.403 20.7549 113.966 17.1212 110.894 14.0604C107.821 10.9996 104.174 8.5716 100.159 6.9151C96.1448 5.25859 91.8422 4.406 87.497 4.406C83.1519 4.406 78.8493 5.25859 74.8349 6.9151C74.2187 7.16935 73.5123 6.87786 73.2571 6.26404C73.0018 5.65021 73.2944 4.9465 73.9106 4.69224C78.218 2.91482 82.8347 2 87.497 2C92.1593 2 96.776 2.91483 101.083 4.69224C105.391 6.46966 109.305 9.07486 112.601 12.3591C115.898 15.6433 118.513 19.5423 120.298 23.8334C122.082 28.1244 123 32.7236 123 37.3682C123 42.0128 122.082 46.6119 120.297 50.903C118.513 55.1941 115.898 59.093 112.601 62.3773L68.3351 106.569C68.1987 106.705 67.2834 107.503 67.1121 107.561C65.8642 108.376 64.395 108.82 62.8799 108.82C60.8337 108.82 58.8714 108.011 57.4246 106.569C55.9777 105.128 55.1649 103.173 55.1649 101.135C55.1649 100.563 55.2288 99.9985 55.3526 99.4498C54.7415 99.6031 54.109 99.6825 53.4683 99.6825C51.4221 99.6825 49.4598 98.8728 48.013 97.4314C46.5661 95.9901 45.7533 94.0352 45.7533 91.9969C45.7533 91.4437 45.8132 90.8966 45.9293 90.3644C45.395 90.4801 44.8459 90.5397 44.2906 90.5397C42.2445 90.5397 40.2822 89.73 38.8353 88.2886C37.3885 86.8473 36.5757 84.8924 36.5757 82.8541C36.5757 82.3009 36.6355 81.7539 36.7517 81.2216C36.2174 81.3373 35.6682 81.3969 35.113 81.3969C33.0668 81.3969 31.1045 80.5872 29.6577 79.1459C28.2108 77.7045 27.398 75.7496 27.398 73.7113C27.398 71.6729 28.2108 69.718 29.6577 68.2767L45.085 52.8783C45.5566 52.4085 46.3212 52.4085 46.7928 52.8783C47.2644 53.3481 47.2644 54.1098 46.7928 54.5796L31.3655 69.978C30.3716 70.9681 29.8132 72.311 29.8132 73.7113C29.8132 75.1115 30.3716 76.4544 31.3655 77.4445C32.3594 78.4347 33.7074 78.9909 35.113 78.9909C36.3232 78.9909 37.4908 78.5785 38.4264 77.8318L53.7796 62.5023C54.2512 62.0325 55.0158 62.0325 55.4874 62.5023C55.959 62.9721 55.959 63.7338 55.4874 64.2036L40.224 79.4684C39.4305 80.4142 38.9908 81.6116 38.9908 82.8541C38.9908 84.2543 39.5492 85.5972 40.5431 86.5873C41.537 87.5775 42.885 88.1337 44.2906 88.1337C45.5009 88.1337 46.6685 87.7213 47.6041 86.9746L62.9573 71.6451C63.4289 71.1753 64.1935 71.1753 64.6651 71.6451C65.1367 72.1149 65.1367 72.8766 64.6651 73.3464L49.4016 88.6112C48.6081 89.557 48.1685 90.7544 48.1685 91.9969C48.1685 93.3971 48.7269 94.74 49.7208 95.7301C50.7146 96.7203 52.0627 97.2765 53.4683 97.2765C54.8667 97.2765 56.2082 96.7259 57.2006 95.7452L72.618 80.3067C73.0896 79.8369 73.8542 79.8369 74.3258 80.3067C74.7973 80.7765 74.7973 81.5382 74.3258 82.008L58.998 97.5182C58.998 97.5182 57.5801 99.7344 57.5801 101.135C57.5801 102.535 58.1385 103.878 59.1324 104.868C60.1263 105.858 61.4743 106.414 62.8799 106.414C64.079 106.414 65.2362 106.009 66.1674 105.276L110.893 60.6764L110.894 60.676C113.966 57.6152 116.403 53.9814 118.066 49.9823C119.729 45.9831 120.585 41.6968 120.585 37.3682Z" stroke="white" stroke-width="4" stroke-linecap="round"/>
</svg>
