<svg width="50" height="50" viewBox="0 0 50 50" fill="none" xmlns="http://www.w3.org/2000/svg">
<path d="M19.3243 10.3243C19.5586 10.0899 19.5586 9.71005 19.3243 9.47574C19.0899 9.24142 18.7101 9.24142 18.4757 9.47574L15.5 12.4515L13.7243 10.6757C13.4899 10.4414 13.1101 10.4414 12.8757 10.6757C12.6414 10.9101 12.6414 11.29 12.8757 11.5243L15.5 14.1485L19.3243 10.3243Z" fill="#EE6616"/>
<path fill-rule="evenodd" clip-rule="evenodd" d="M21.6 11.2C21.6 14.2928 19.0928 16.8 16 16.8C12.9072 16.8 10.4 14.2928 10.4 11.2C10.4 8.1072 12.9072 5.6 16 5.6C19.0928 5.6 21.6 8.1072 21.6 11.2ZM20.4 11.2C20.4 13.6301 18.4301 15.6 16 15.6C13.5699 15.6 11.6 13.6301 11.6 11.2C11.6 8.76995 13.5699 6.8 16 6.8C18.4301 6.8 20.4 8.76995 20.4 11.2Z" fill="#EE6616"/>
<path d="M23.6 9.4C23.2686 9.4 23 9.66863 23 10C23 10.3314 23.2686 10.6 23.6 10.6H38.2C38.5314 10.6 38.8 10.3314 38.8 10C38.8 9.66863 38.5314 9.4 38.2 9.4H23.6Z" fill="#EE6616"/>
<path d="M23.6 12C23.2686 12 23 12.2686 23 12.6C23 12.9314 23.2686 13.2 23.6 13.2H38.2C38.5314 13.2 38.8 12.9314 38.8 12.6C38.8 12.2686 38.5314 12 38.2 12H23.6Z" fill="#EE6616"/>
<path d="M11 22.2C10.6686 22.2 10.4 22.4686 10.4 22.8C10.4 23.1314 10.6686 23.4 11 23.4H38.2C38.5314 23.4 38.8 23.1314 38.8 22.8C38.8 22.4686 38.5314 22.2 38.2 22.2H11Z" fill="#EE6616"/>
<path d="M11 26C10.6686 26 10.4 26.2686 10.4 26.6C10.4 26.9314 10.6686 27.2 11 27.2H38.2C38.5314 27.2 38.8 26.9314 38.8 26.6C38.8 26.2686 38.5314 26 38.2 26H11Z" fill="#EE6616"/>
<path d="M11 29.8C10.6686 29.8 10.4 30.0686 10.4 30.4C10.4 30.7314 10.6686 31 11 31H38.2C38.5314 31 38.8 30.7314 38.8 30.4C38.8 30.0686 38.5314 29.8 38.2 29.8H11Z" fill="#EE6616"/>
<path d="M23.6 33.4C23.2686 33.4 23 33.6686 23 34C23 34.3314 23.2686 34.6 23.6 34.6H38.2C38.5314 34.6 38.8 34.3314 38.8 34C38.8 33.6686 38.5314 33.4 38.2 33.4H23.6Z" fill="#EE6616"/>
<path d="M23.6 36.8C23.2686 36.8 23 37.0686 23 37.4C23 37.7314 23.2686 38 23.6 38H38.2C38.5314 38 38.8 37.7314 38.8 37.4C38.8 37.0686 38.5314 36.8 38.2 36.8H23.6Z" fill="#EE6616"/>
<path d="M11.2 34.4C11.2 33.9582 11.5582 33.6 12 33.6H20.6C21.0418 33.6 21.4 33.9582 21.4 34.4V43C21.4 43.4418 21.0418 43.8 20.6 43.8H12C11.5582 43.8 11.2 43.4418 11.2 43V34.4Z" fill="#EE6616"/>
<path fill-rule="evenodd" clip-rule="evenodd" d="M50 25C50 31.7381 47.3343 37.8536 43 42.3494V47.8H35.2698C32.1368 49.2134 28.6603 50 25 50C21.3397 50 17.8632 49.2134 14.7302 47.8H7V42.3494C2.66568 37.8536 0 31.7381 0 25C0 18.2619 2.66568 12.1464 7 7.65061V2.2H14.7302C17.8632 0.786597 21.3397 0 25 0C28.6603 0 32.1368 0.786597 35.2698 2.2H43V7.65061C47.3343 12.1464 50 18.2619 50 25ZM41.8 3.4V18.4H8.2V3.4H41.8ZM41.8 46.6V19.6H8.2V46.6H41.8Z" fill="#EE6616"/>
</svg>
