<svg width="51" height="45" viewBox="0 0 51 45" fill="none" xmlns="http://www.w3.org/2000/svg">
<path d="M32.4575 6.47414C32.5278 6.26506 32.6143 6.06341 32.7156 5.87068H34.5723C34.7413 5.87068 34.8783 5.73332 34.8783 5.56386C34.8783 5.39441 34.7413 5.25704 34.5723 5.25704H32.9597C32.4446 4.88648 31.8118 4.66789 31.1268 4.66789C29.3905 4.66789 27.9898 6.07251 27.9898 7.79656C27.9898 9.52061 29.3905 10.9252 31.1268 10.9252C31.8169 10.9252 32.4539 10.7034 32.971 10.3279H34.5723C34.7413 10.3279 34.8783 10.1905 34.8783 10.021C34.8783 9.85159 34.7413 9.71422 34.5723 9.71422H32.7113C32.6438 9.5851 32.5829 9.45199 32.5291 9.31535H35.3834C35.5524 9.31535 35.6894 9.17798 35.6894 9.00853C35.6894 8.83908 35.5524 8.70171 35.3834 8.70171H32.3412C32.3123 8.57161 32.2894 8.43922 32.273 8.30485H36.1945C36.3635 8.30485 36.5005 8.16748 36.5005 7.99803C36.5005 7.82857 36.3635 7.69121 36.1945 7.69121H32.2434C32.2486 7.48602 32.2686 7.28453 32.3025 7.08778H35.3834C35.5524 7.08778 35.6894 6.95041 35.6894 6.78096C35.6894 6.61151 35.5524 6.47414 35.3834 6.47414H32.4575Z" fill="#EE6616"/>
<path d="M4.01315 17.435C4.06628 17.5224 4.09284 17.6624 4.09284 17.8553V18.4082C4.09072 18.5904 4.06469 18.7257 4.01475 18.8141C3.96481 18.9025 3.88353 18.9467 3.7709 18.9467C3.65721 18.9467 3.57434 18.9009 3.52227 18.8093C3.47127 18.7166 3.44577 18.5754 3.44577 18.3858V17.8201C3.44896 17.6422 3.47605 17.5117 3.52705 17.4286C3.57912 17.3444 3.65934 17.3024 3.76771 17.3024C3.87928 17.3024 3.96109 17.3466 4.01315 17.435Z" fill="#EE6616"/>
<path d="M13.0163 18.4114H12.5031L12.9861 17.6427L13.0163 17.59V18.4114Z" fill="#EE6616"/>
<path d="M16.4605 18.1605C16.521 18.1211 16.5885 18.1014 16.6629 18.1014C16.767 18.1014 16.8499 18.1403 16.9115 18.218C16.9731 18.2958 17.0039 18.3981 17.0039 18.5248C17.0039 18.6495 16.9731 18.7512 16.9115 18.8301C16.8509 18.9078 16.7713 18.9467 16.6724 18.9467C16.563 18.9467 16.478 18.9036 16.4174 18.8173C16.3569 18.7299 16.3266 18.609 16.3266 18.4545V18.3139C16.3553 18.25 16.3999 18.1988 16.4605 18.1605Z" fill="#EE6616"/>
<path d="M22.249 18.373C22.3075 18.4338 22.3367 18.5147 22.3367 18.6159C22.3367 18.7193 22.308 18.8002 22.2506 18.8588C22.1943 18.9174 22.1162 18.9467 22.0163 18.9467C21.9143 18.9467 21.8347 18.9164 21.7773 18.8556C21.7199 18.7949 21.6912 18.715 21.6912 18.6159C21.6912 18.5137 21.7204 18.4327 21.7789 18.373C21.8373 18.3123 21.9154 18.2819 22.0132 18.2819C22.112 18.2819 22.1906 18.3123 22.249 18.373Z" fill="#EE6616"/>
<path d="M22.2172 17.3839C22.265 17.4382 22.2889 17.5106 22.2889 17.6012C22.2889 17.6939 22.265 17.7684 22.2172 17.8249C22.1704 17.8814 22.1035 17.9096 22.0163 17.9096C21.9292 17.9096 21.8617 17.8814 21.8139 17.8249C21.7661 17.7684 21.7422 17.6939 21.7422 17.6012C21.7422 17.5074 21.7661 17.4339 21.8139 17.3807C21.8617 17.3274 21.9287 17.3008 22.0147 17.3008C22.1019 17.3008 22.1693 17.3285 22.2172 17.3839Z" fill="#EE6616"/>
<path d="M24.0723 18.1237C24.0192 18.1621 23.9554 18.1813 23.881 18.1813C23.7759 18.1813 23.694 18.1408 23.6356 18.0598C23.5782 17.9778 23.5495 17.8734 23.5495 17.7466C23.5495 17.6188 23.5793 17.5128 23.6388 17.4286C23.6983 17.3434 23.7743 17.3008 23.8667 17.3008C23.9666 17.3008 24.0463 17.3439 24.1058 17.4302C24.1653 17.5165 24.195 17.6379 24.195 17.7945V17.9847C24.1674 18.039 24.1265 18.0854 24.0723 18.1237Z" fill="#EE6616"/>
<path d="M33.136 18.4114H32.6229L33.1058 17.6427L33.136 17.59V18.4114Z" fill="#EE6616"/>
<path d="M36.5802 18.1605C36.6407 18.1211 36.7082 18.1014 36.7826 18.1014C36.8867 18.1014 36.9696 18.1403 37.0312 18.218C37.0928 18.2958 37.1236 18.3981 37.1236 18.5248C37.1236 18.6495 37.0928 18.7512 37.0312 18.8301C36.9706 18.9078 36.891 18.9467 36.7921 18.9467C36.6827 18.9467 36.5977 18.9036 36.5371 18.8173C36.4766 18.7299 36.4463 18.609 36.4463 18.4545V18.3139C36.475 18.25 36.5196 18.1988 36.5802 18.1605Z" fill="#EE6616"/>
<path d="M7.18047 24.6132C7.24847 24.6132 7.31115 24.5983 7.36853 24.5685C7.42591 24.5376 7.46841 24.4966 7.49603 24.4454V24.1482H7.3239C7.09334 24.1482 6.97062 24.2281 6.95574 24.3879L6.95415 24.4151C6.95415 24.4726 6.97434 24.52 7.01471 24.5573C7.05509 24.5946 7.11034 24.6132 7.18047 24.6132Z" fill="#EE6616"/>
<path d="M11.8805 23.5474C11.7891 23.5474 11.7147 23.5783 11.6574 23.64C11.601 23.7018 11.5649 23.7903 11.549 23.9053H12.1897V23.8686C12.1875 23.7663 12.1599 23.6875 12.1068 23.6321C12.0537 23.5756 11.9782 23.5474 11.8805 23.5474Z" fill="#EE6616"/>
<path d="M15.2035 24.6132C15.2715 24.6132 15.3342 24.5983 15.3916 24.5685C15.4489 24.5376 15.4914 24.4966 15.5191 24.4454V24.1482H15.3469C15.1164 24.1482 14.9936 24.2281 14.9788 24.3879L14.9772 24.4151C14.9772 24.4726 14.9974 24.52 15.0377 24.5573C15.0781 24.5946 15.1334 24.6132 15.2035 24.6132Z" fill="#EE6616"/>
<path d="M22.3786 24.6132C22.4466 24.6132 22.5093 24.5983 22.5667 24.5685C22.6241 24.5376 22.6666 24.4966 22.6942 24.4454V24.1482H22.5221C22.2915 24.1482 22.1688 24.2281 22.1539 24.3879L22.1523 24.4151C22.1523 24.4726 22.1725 24.52 22.2129 24.5573C22.2532 24.5946 22.3085 24.6132 22.3786 24.6132Z" fill="#EE6616"/>
<path d="M27.0786 23.5474C26.9873 23.5474 26.9129 23.5783 26.8555 23.64C26.7992 23.7018 26.7631 23.7903 26.7471 23.9053H27.3878V23.8686C27.3857 23.7663 27.3581 23.6875 27.305 23.6321C27.2518 23.5756 27.1764 23.5474 27.0786 23.5474Z" fill="#EE6616"/>
<path fill-rule="evenodd" clip-rule="evenodd" d="M2.85603 0C1.27869 0 0 1.2821 0 2.86365V25.4874C0 27.069 1.27868 28.3511 2.85603 28.3511H41.7557C43.3331 28.3511 44.6118 27.069 44.6118 25.4874V2.86366C44.6118 1.2821 43.3331 0 41.7557 0H2.85603ZM40.5561 7.79656C40.5561 10.0893 38.695 11.948 36.3991 11.948C35.3985 11.948 34.4804 11.5949 33.763 11.0066C33.0456 11.5949 32.1275 11.948 31.1268 11.948C28.831 11.948 26.9698 10.0893 26.9698 7.79656C26.9698 5.5038 28.831 3.64516 31.1268 3.64516C32.1275 3.64516 33.0456 3.99825 33.763 4.58648C34.4804 3.99825 35.3985 3.64516 36.3991 3.64516C38.695 3.64516 40.5561 5.5038 40.5561 7.79656ZM4.35422 19.0634C4.48703 18.8929 4.55344 18.6468 4.55344 18.3251V17.8968C4.55025 17.5847 4.48172 17.3455 4.34784 17.1793C4.21397 17.0121 4.02059 16.9284 3.76771 16.9284C3.51484 16.9284 3.32093 17.0126 3.18599 17.1809C3.05211 17.3492 2.98517 17.5959 2.98517 17.9208V18.3491C2.98836 18.6612 3.05689 18.9009 3.19077 19.0682C3.32465 19.2354 3.51802 19.3191 3.7709 19.3191C4.02697 19.3191 4.22141 19.2338 4.35422 19.0634ZM5.52404 19.2871H5.98464V16.9572H5.93524L4.97419 17.3024V17.6779L5.52404 17.5069V19.2871ZM6.74009 19.2871H8.33067V18.9148H7.33297L7.86051 18.3571C8.00501 18.1983 8.10701 18.0593 8.16651 17.94C8.22601 17.8206 8.25576 17.7035 8.25576 17.5884C8.25576 17.3785 8.18935 17.2161 8.05654 17.101C7.92479 16.9859 7.73938 16.9284 7.50031 16.9284C7.34413 16.9284 7.20441 16.962 7.08115 17.0291C6.9579 17.0951 6.86228 17.1868 6.79428 17.304C6.72734 17.4211 6.69387 17.5506 6.69387 17.6923H7.15606C7.15606 17.5751 7.18581 17.4808 7.24531 17.4094C7.30587 17.337 7.38822 17.3008 7.49235 17.3008C7.58903 17.3008 7.66341 17.3306 7.71547 17.3902C7.76754 17.4488 7.79357 17.5298 7.79357 17.6331C7.79357 17.7088 7.7686 17.7887 7.71866 17.8729C7.66979 17.957 7.59382 18.0556 7.49075 18.1685L6.74009 18.9707V19.2871ZM9.32836 17.9192H9.08292V18.2803H9.32677C9.58177 18.2803 9.70927 18.3965 9.70927 18.6287C9.70927 18.7246 9.67793 18.8018 9.61524 18.8604C9.55362 18.918 9.46808 18.9467 9.35865 18.9467C9.26302 18.9467 9.18227 18.919 9.11639 18.8636C9.05158 18.8082 9.01917 18.7368 9.01917 18.6495H8.55858C8.55858 18.8508 8.63189 19.0128 8.77851 19.1353C8.9262 19.2578 9.11586 19.3191 9.34749 19.3191C9.59505 19.3191 9.79374 19.2567 9.94356 19.1321C10.0944 19.0074 10.1699 18.8418 10.1699 18.6351C10.1699 18.5073 10.1375 18.3965 10.0727 18.3027C10.0089 18.209 9.91168 18.1387 9.78099 18.0918C9.88618 18.0438 9.97118 17.9751 10.036 17.8856C10.1008 17.7961 10.1332 17.6981 10.1332 17.5916C10.1332 17.3849 10.0636 17.223 9.92443 17.1058C9.78524 16.9875 9.59293 16.9284 9.34749 16.9284C9.20618 16.9284 9.07655 16.9556 8.95861 17.0099C8.84173 17.0643 8.75036 17.1399 8.68448 17.2368C8.61967 17.3327 8.58726 17.4414 8.58726 17.5628H9.04786C9.04786 17.4851 9.07761 17.4222 9.13711 17.3743C9.19661 17.3253 9.27046 17.3008 9.35865 17.3008C9.4564 17.3008 9.5329 17.3269 9.58815 17.3791C9.64446 17.4313 9.67262 17.5042 9.67262 17.598C9.67262 17.6949 9.64446 17.7727 9.58815 17.8313C9.53183 17.8899 9.44524 17.9192 9.32836 17.9192ZM13.7399 18.4114H13.4769V16.9604H13.0116L12.0441 18.4929L12.0649 18.7837H13.0163V19.2871H13.4769V18.7837H13.7399V18.4114ZM14.1909 16.9604L14.0571 18.1429L14.4236 18.234L14.4683 18.1925C14.5363 18.1349 14.625 18.1062 14.7344 18.1062C14.8534 18.1062 14.9453 18.1413 15.0101 18.2116C15.075 18.2819 15.1074 18.3832 15.1074 18.5153C15.1074 18.6527 15.0792 18.7592 15.0229 18.8349C14.9666 18.9094 14.8864 18.9467 14.7822 18.9467C14.6887 18.9467 14.6128 18.9201 14.5543 18.8668C14.4969 18.8125 14.4635 18.7368 14.4539 18.6399H13.9981C14.0024 18.772 14.039 18.8897 14.1081 18.9931C14.1782 19.0964 14.2733 19.1768 14.3934 19.2344C14.5134 19.2908 14.6436 19.3191 14.7838 19.3191C14.9443 19.3191 15.0835 19.2866 15.2014 19.2216C15.3193 19.1555 15.4096 19.0634 15.4723 18.9451C15.5361 18.8258 15.568 18.691 15.568 18.5408C15.568 18.2937 15.5053 18.1014 15.3799 17.9639C15.2545 17.8265 15.0813 17.7578 14.8603 17.7578C14.7371 17.7578 14.6207 17.7871 14.5113 17.8457L14.5687 17.3455H15.4915V16.9604H14.1909ZM17.1123 17.3167V16.9364H17.0358C16.801 16.9375 16.5943 16.9913 16.4158 17.0978C16.2384 17.2033 16.1019 17.353 16.0062 17.5469C15.9117 17.7397 15.8644 17.9623 15.8644 18.2148V18.381C15.8644 18.6655 15.9393 18.8929 16.0891 19.0634C16.24 19.2338 16.4376 19.3191 16.682 19.3191C16.8329 19.3191 16.9678 19.285 17.0868 19.2168C17.2069 19.1486 17.2993 19.0533 17.3641 18.9307C17.43 18.8082 17.4629 18.6713 17.4629 18.5201C17.4629 18.2835 17.4034 18.0928 17.2844 17.948C17.1654 17.8031 17.005 17.7306 16.8031 17.7306C16.6151 17.7306 16.4594 17.7935 16.3362 17.9192C16.3617 17.7317 16.4376 17.5852 16.5641 17.4797C16.6916 17.3743 16.8594 17.3199 17.0677 17.3167H17.1123ZM18.4176 19.2871L19.3149 17.2193V16.9604H17.6765V17.3343H18.8304L17.9315 19.2871H18.4176ZM22.665 17.8792C22.7213 17.7919 22.7495 17.6917 22.7495 17.5788C22.7495 17.3785 22.6831 17.2203 22.5503 17.1042C22.4185 16.987 22.24 16.9284 22.0147 16.9284C21.7884 16.9284 21.6094 16.9875 21.4776 17.1058C21.3459 17.223 21.28 17.3807 21.28 17.5788C21.28 17.6917 21.3076 17.7919 21.3629 17.8792C21.4192 17.9666 21.4968 18.0364 21.5956 18.0886C21.484 18.1419 21.3953 18.2164 21.3294 18.3123C21.2635 18.4082 21.2306 18.5206 21.2306 18.6495C21.2306 18.8551 21.3013 19.0181 21.4426 19.1385C21.5839 19.2589 21.7751 19.3191 22.0163 19.3191C22.2575 19.3191 22.4482 19.2594 22.5885 19.1401C22.7288 19.0197 22.7989 18.8562 22.7989 18.6495C22.7989 18.5206 22.7659 18.4087 22.7001 18.3139C22.6342 18.218 22.5449 18.1429 22.4323 18.0886C22.5311 18.0364 22.6087 17.9666 22.665 17.8792ZM23.7679 18.5344C23.9283 18.5344 24.0686 18.4753 24.1886 18.3571C24.1557 18.7161 23.939 18.9046 23.5384 18.9228L23.4364 18.9244V19.3095L23.5495 19.3079C23.9023 19.293 24.1748 19.1747 24.3671 18.9531C24.5595 18.7315 24.6556 18.4268 24.6556 18.039V17.8681C24.6546 17.6827 24.6211 17.5181 24.5552 17.3743C24.4893 17.2304 24.3969 17.1202 24.2779 17.0435C24.1589 16.9668 24.0229 16.9284 23.8699 16.9284C23.7211 16.9284 23.5873 16.9641 23.4683 17.0355C23.3493 17.1058 23.2563 17.2049 23.1894 17.3327C23.1235 17.4595 23.0905 17.5991 23.0905 17.7514C23.0905 17.9911 23.1522 18.1818 23.2754 18.3235C23.3987 18.4641 23.5628 18.5344 23.7679 18.5344ZM25.6438 19.2871H26.1043V16.9572H26.0549L25.0939 17.3024V17.6779L25.6438 17.5069V19.2871ZM26.8598 19.2871H28.4504V18.9148H27.4527L27.9802 18.3571C28.1247 18.1983 28.2267 18.0593 28.2862 17.94C28.3457 17.8206 28.3755 17.7035 28.3755 17.5884C28.3755 17.3785 28.3091 17.2161 28.1762 17.101C28.0445 16.9859 27.8591 16.9284 27.62 16.9284C27.4638 16.9284 27.3241 16.962 27.2009 17.0291C27.0776 17.0951 26.982 17.1868 26.914 17.304C26.847 17.4211 26.8136 17.5506 26.8136 17.6923H27.2758C27.2758 17.5751 27.3055 17.4808 27.365 17.4094C27.4256 17.337 27.5079 17.3008 27.6121 17.3008C27.7087 17.3008 27.7831 17.3306 27.8352 17.3902C27.8872 17.4488 27.9133 17.5298 27.9133 17.6331C27.9133 17.7088 27.8883 17.7887 27.8384 17.8729C27.7895 17.957 27.7135 18.0556 27.6105 18.1685L26.8598 18.9707V19.2871ZM31.0737 17.9192H30.8283V18.2803H31.0721C31.3271 18.2803 31.4546 18.3965 31.4546 18.6287C31.4546 18.7246 31.4233 18.8018 31.3606 18.8604C31.299 18.918 31.2134 18.9467 31.104 18.9467C31.0084 18.9467 30.9276 18.919 30.8617 18.8636C30.7969 18.8082 30.7645 18.7368 30.7645 18.6495H30.3039C30.3039 18.8508 30.3772 19.0128 30.5239 19.1353C30.6716 19.2578 30.8612 19.3191 31.0928 19.3191C31.3404 19.3191 31.5391 19.2567 31.6889 19.1321C31.8398 19.0074 31.9152 18.8418 31.9152 18.6351C31.9152 18.5073 31.8828 18.3965 31.818 18.3027C31.7543 18.209 31.657 18.1387 31.5263 18.0918C31.6315 18.0438 31.7165 17.9751 31.7813 17.8856C31.8462 17.7961 31.8786 17.6981 31.8786 17.5916C31.8786 17.3849 31.809 17.223 31.6698 17.1058C31.5306 16.9875 31.3383 16.9284 31.0928 16.9284C30.9515 16.9284 30.8219 16.9556 30.704 17.0099C30.5871 17.0643 30.4957 17.1399 30.4298 17.2368C30.365 17.3327 30.3326 17.4414 30.3326 17.5628H30.7932C30.7932 17.4851 30.823 17.4222 30.8825 17.3743C30.942 17.3253 31.0158 17.3008 31.104 17.3008C31.2017 17.3008 31.2782 17.3269 31.3335 17.3791C31.3898 17.4313 31.418 17.5042 31.418 17.598C31.418 17.6949 31.3898 17.7727 31.3335 17.8313C31.2772 17.8899 31.1906 17.9192 31.0737 17.9192ZM33.8596 18.4114H33.5966V16.9604H33.1313L32.1638 18.4929L32.1846 18.7837H33.136V19.2871H33.5966V18.7837H33.8596V18.4114ZM34.3107 16.9604L34.1768 18.1429L34.5433 18.234L34.588 18.1925C34.656 18.1349 34.7447 18.1062 34.8541 18.1062C34.9731 18.1062 35.065 18.1413 35.1298 18.2116C35.1947 18.2819 35.2271 18.3832 35.2271 18.5153C35.2271 18.6527 35.1989 18.7592 35.1426 18.8349C35.0863 18.9094 35.0061 18.9467 34.9019 18.9467C34.8084 18.9467 34.7325 18.9201 34.674 18.8668C34.6167 18.8125 34.5832 18.7368 34.5736 18.6399H34.1178C34.1221 18.772 34.1587 18.8897 34.2278 18.9931C34.2979 19.0964 34.393 19.1768 34.5131 19.2344C34.6331 19.2908 34.7633 19.3191 34.9035 19.3191C35.064 19.3191 35.2032 19.2866 35.3211 19.2216C35.439 19.1555 35.5294 19.0634 35.592 18.9451C35.6558 18.8258 35.6877 18.691 35.6877 18.5408C35.6877 18.2937 35.625 18.1014 35.4996 17.9639C35.3742 17.8265 35.201 17.7578 34.98 17.7578C34.8568 17.7578 34.7404 17.7871 34.631 17.8457L34.6884 17.3455H35.6112V16.9604H34.3107ZM37.232 17.3167V16.9364H37.1555C36.9207 16.9375 36.7141 16.9913 36.5355 17.0978C36.3581 17.2033 36.2216 17.353 36.126 17.5469C36.0314 17.7397 35.9841 17.9623 35.9841 18.2148V18.381C35.9841 18.6655 36.059 18.8929 36.2088 19.0634C36.3597 19.2338 36.5573 19.3191 36.8017 19.3191C36.9526 19.3191 37.0875 19.285 37.2065 19.2168C37.3266 19.1486 37.419 19.0533 37.4838 18.9307C37.5497 18.8082 37.5827 18.6713 37.5827 18.5201C37.5827 18.2835 37.5232 18.0928 37.4042 17.948C37.2852 17.8031 37.1247 17.7306 36.9228 17.7306C36.7348 17.7306 36.5791 17.7935 36.4559 17.9192C36.4814 17.7317 36.5573 17.5852 36.6838 17.4797C36.8113 17.3743 36.9791 17.3199 37.1874 17.3167H37.232ZM6.1748 24.9344H5.69667L4.76591 23.4035V24.9344H4.28778V22.6077H4.76591L5.69826 24.1418V22.6077H6.1748V24.9344ZM7.56138 24.9344C7.54012 24.8929 7.52472 24.8412 7.51516 24.7794C7.40359 24.9041 7.25856 24.9664 7.08006 24.9664C6.91112 24.9664 6.77087 24.9174 6.6593 24.8194C6.5488 24.7214 6.49355 24.5978 6.49355 24.4486C6.49355 24.2654 6.56102 24.1248 6.69596 24.0268C6.83196 23.9288 7.028 23.8792 7.28406 23.8782H7.49603V23.7791C7.49603 23.6992 7.47531 23.6353 7.43387 23.5873C7.3935 23.5394 7.32922 23.5154 7.24103 23.5154C7.16347 23.5154 7.10237 23.534 7.05775 23.5713C7.01418 23.6086 6.9924 23.6598 6.9924 23.7247H6.5318C6.5318 23.6246 6.56262 23.5319 6.62424 23.4467C6.68587 23.3615 6.77299 23.2949 6.88562 23.2469C6.99824 23.1979 7.12468 23.1734 7.26494 23.1734C7.47744 23.1734 7.64585 23.2272 7.77016 23.3348C7.89553 23.4414 7.95822 23.5916 7.95822 23.7855V24.5349C7.95929 24.699 7.98213 24.8231 8.02676 24.9073V24.9344H7.56138ZM8.74395 23.2054L8.75829 23.3987C8.88048 23.2485 9.0457 23.1734 9.25396 23.1734C9.47602 23.1734 9.62849 23.2613 9.71137 23.4371C9.83249 23.2613 10.0052 23.1734 10.2293 23.1734C10.4163 23.1734 10.5555 23.2283 10.6469 23.338C10.7383 23.4467 10.784 23.6108 10.784 23.8302V24.9344H10.3218V23.8318C10.3218 23.7338 10.3027 23.6624 10.2644 23.6177C10.2262 23.5719 10.1587 23.549 10.062 23.549C9.92387 23.549 9.82824 23.615 9.77512 23.7471L9.77671 24.9344H9.31611V23.8334C9.31611 23.7333 9.29646 23.6608 9.25714 23.6161C9.21783 23.5713 9.15089 23.549 9.05633 23.549C8.92564 23.549 8.83108 23.6033 8.77264 23.712V24.9344H8.31204V23.2054H8.74395ZM11.9331 24.9664C11.6802 24.9664 11.4741 24.8886 11.3147 24.7331C11.1564 24.5776 11.0772 24.3703 11.0772 24.1115V24.0667C11.0772 23.8931 11.1107 23.7381 11.1776 23.6017C11.2446 23.4643 11.3391 23.3588 11.4613 23.2853C11.5846 23.2107 11.7248 23.1734 11.8821 23.1734C12.118 23.1734 12.3034 23.248 12.4383 23.3971C12.5743 23.5463 12.6423 23.7578 12.6423 24.0316V24.2201H11.5442C11.5591 24.3331 11.6037 24.4236 11.6781 24.4918C11.7535 24.56 11.8486 24.5941 11.9634 24.5941C12.1408 24.5941 12.2795 24.5296 12.3793 24.4007L12.6056 24.6548C12.5366 24.7528 12.4431 24.8295 12.3251 24.8849C12.2072 24.9392 12.0765 24.9664 11.9331 24.9664ZM14.2042 24.9344H13.742V22.4799H14.2042V24.9344ZM15.5844 24.9344C15.5631 24.8929 15.5477 24.8412 15.5382 24.7794C15.4266 24.9041 15.2816 24.9664 15.1031 24.9664C14.9341 24.9664 14.7939 24.9174 14.6823 24.8194C14.5718 24.7214 14.5166 24.5978 14.5166 24.4486C14.5166 24.2654 14.584 24.1248 14.719 24.0268C14.855 23.9288 15.051 23.8792 15.3071 23.8782H15.5191V23.7791C15.5191 23.6992 15.4983 23.6353 15.4569 23.5873C15.4165 23.5394 15.3522 23.5154 15.264 23.5154C15.1865 23.5154 15.1254 23.534 15.0808 23.5713C15.0372 23.6086 15.0154 23.6598 15.0154 23.7247H14.5548C14.5548 23.6246 14.5856 23.5319 14.6473 23.4467C14.7089 23.3615 14.796 23.2949 14.9086 23.2469C15.0213 23.1979 15.1477 23.1734 15.288 23.1734C15.5005 23.1734 15.6689 23.2272 15.7932 23.3348C15.9186 23.4414 15.9812 23.5916 15.9812 23.7855V24.5349C15.9823 24.699 16.0051 24.8231 16.0498 24.9073V24.9344H15.5844ZM17.269 24.4566C17.269 24.4002 17.2409 24.356 17.1845 24.324C17.1293 24.291 17.04 24.2617 16.9168 24.2361C16.5067 24.1498 16.3016 23.9751 16.3016 23.712C16.3016 23.5585 16.3648 23.4307 16.4912 23.3284C16.6187 23.2251 16.785 23.1734 16.9901 23.1734C17.209 23.1734 17.3838 23.2251 17.5144 23.3284C17.6462 23.4318 17.7121 23.566 17.7121 23.7311H17.2515C17.2515 23.6651 17.2302 23.6108 17.1877 23.5681C17.1452 23.5245 17.0788 23.5026 16.9885 23.5026C16.9109 23.5026 16.8509 23.5202 16.8084 23.5554C16.7659 23.5905 16.7447 23.6353 16.7447 23.6896C16.7447 23.7407 16.7686 23.7823 16.8164 23.8142C16.8653 23.8451 16.9471 23.8723 17.0618 23.8957C17.1766 23.9181 17.2733 23.9437 17.3519 23.9724C17.5952 24.0619 17.7169 24.2169 17.7169 24.4375C17.7169 24.5951 17.6494 24.723 17.5144 24.821C17.3795 24.9179 17.2053 24.9664 16.9917 24.9664C16.8472 24.9664 16.7186 24.9408 16.606 24.8897C16.4944 24.8375 16.4068 24.7667 16.343 24.6772C16.2793 24.5866 16.2474 24.4891 16.2474 24.3847H16.6841C16.6883 24.4668 16.7186 24.5296 16.7749 24.5733C16.8313 24.617 16.9067 24.6388 17.0013 24.6388C17.0894 24.6388 17.1558 24.6223 17.2005 24.5893C17.2462 24.5552 17.269 24.511 17.269 24.4566ZM18.5663 22.7803V23.2054H18.8612V23.5442H18.5663V24.4071C18.5663 24.471 18.5786 24.5168 18.603 24.5445C18.6274 24.5722 18.6742 24.5861 18.7432 24.5861C18.7942 24.5861 18.8394 24.5823 18.8787 24.5749V24.9249C18.7884 24.9526 18.6954 24.9664 18.5998 24.9664C18.2768 24.9664 18.1121 24.8029 18.1057 24.4758V23.5442H17.8539V23.2054H18.1057V22.7803H18.5663ZM20.3545 23.2054L20.3689 23.4051C20.4921 23.2507 20.6574 23.1734 20.8645 23.1734C21.0473 23.1734 21.1833 23.2272 21.2725 23.3348C21.3618 23.4424 21.4075 23.6033 21.4096 23.8174V24.9344H20.949V23.8286C20.949 23.7306 20.9278 23.6598 20.8853 23.6161C20.8428 23.5713 20.7721 23.549 20.6733 23.549C20.5437 23.549 20.4464 23.6044 20.3816 23.7152V24.9344H19.921V23.2054H20.3545ZM22.7595 24.9344C22.7383 24.8929 22.7229 24.8412 22.7133 24.7794C22.6017 24.9041 22.4567 24.9664 22.2782 24.9664C22.1093 24.9664 21.969 24.9174 21.8575 24.8194C21.747 24.7214 21.6917 24.5978 21.6917 24.4486C21.6917 24.2654 21.7592 24.1248 21.8941 24.0268C22.0301 23.9288 22.2262 23.8792 22.4822 23.8782H22.6942V23.7791C22.6942 23.6992 22.6735 23.6353 22.632 23.5873C22.5917 23.5394 22.5274 23.5154 22.4392 23.5154C22.3616 23.5154 22.3005 23.534 22.2559 23.5713C22.2123 23.6086 22.1906 23.6598 22.1906 23.7247H21.73C21.73 23.6246 21.7608 23.5319 21.8224 23.4467C21.884 23.3615 21.9711 23.2949 22.0838 23.2469C22.1964 23.1979 22.3228 23.1734 22.4631 23.1734C22.6756 23.1734 22.844 23.2272 22.9683 23.3348C23.0937 23.4414 23.1564 23.5916 23.1564 23.7855V24.5349C23.1574 24.699 23.1803 24.8231 23.2249 24.9073V24.9344H22.7595ZM23.9421 23.2054L23.9564 23.3987C24.0786 23.2485 24.2439 23.1734 24.4521 23.1734C24.6742 23.1734 24.8266 23.2613 24.9095 23.4371C25.0306 23.2613 25.2033 23.1734 25.4275 23.1734C25.6145 23.1734 25.7537 23.2283 25.8451 23.338C25.9364 23.4467 25.9821 23.6108 25.9821 23.8302V24.9344H25.5199V23.8318C25.5199 23.7338 25.5008 23.6624 25.4626 23.6177C25.4243 23.5719 25.3568 23.549 25.2602 23.549C25.122 23.549 25.0264 23.615 24.9733 23.7471L24.9749 24.9344H24.5143V23.8334C24.5143 23.7333 24.4946 23.6608 24.4553 23.6161C24.416 23.5713 24.349 23.549 24.2545 23.549C24.1238 23.549 24.0292 23.6033 23.9708 23.712V24.9344H23.5102V23.2054H23.9421ZM27.1312 24.9664C26.8784 24.9664 26.6722 24.8886 26.5129 24.7331C26.3545 24.5776 26.2754 24.3703 26.2754 24.1115V24.0667C26.2754 23.8931 26.3088 23.7381 26.3758 23.6017C26.4427 23.4643 26.5373 23.3588 26.6595 23.2853C26.7827 23.2107 26.923 23.1734 27.0802 23.1734C27.3161 23.1734 27.5015 23.248 27.6365 23.3971C27.7725 23.5463 27.8405 23.7578 27.8405 24.0316V24.2201H26.7424C26.7572 24.3331 26.8019 24.4236 26.8762 24.4918C26.9517 24.56 27.0468 24.5941 27.1615 24.5941C27.339 24.5941 27.4776 24.5296 27.5775 24.4007L27.8038 24.6548C27.7347 24.7528 27.6412 24.8295 27.5233 24.8849C27.4054 24.9392 27.2747 24.9664 27.1312 24.9664Z" fill="#EE6616"/>
<path d="M9.56463 43.2306L4.06495 29.9711H5.83247L7.58814 34.2039L17.8209 29.9711H36.3588L10.303 40.7492L11.0733 42.6065C11.3329 43.2324 12.0499 43.5302 12.6748 43.2717L48.6104 28.4067C49.2353 28.1482 49.5314 27.4313 49.2719 26.8055L48.5015 24.9482L46.0312 25.97V14.731L50.7805 26.1814C51.3862 27.6417 50.6952 29.3145 49.2371 29.9176L13.3015 44.7826C11.8434 45.3857 10.1703 44.6909 9.56463 43.2306Z" fill="#EE6616"/>
</svg>
