<svg width="40" height="40" viewBox="0 0 40 40" fill="none" xmlns="http://www.w3.org/2000/svg">
<path fill-rule="evenodd" clip-rule="evenodd" d="M8.27309 9.47791C7.38589 9.47791 6.66667 10.1971 6.66667 11.0843C6.66667 11.9715 7.38589 12.6908 8.27309 12.6908H10.683L15.222 25.1406H14.013C13.795 25.0881 13.5674 25.0602 13.3333 25.0602C11.7364 25.0602 10.4418 26.3548 10.4418 27.9518C10.4418 29.5488 11.7364 30.8434 13.3333 30.8434C14.794 30.8434 16.0017 29.7603 16.1972 28.3534H27.0156C27.2111 29.7603 28.4188 30.8434 29.8795 30.8434C31.4765 30.8434 32.7711 29.5488 32.7711 27.9518C32.7711 26.3548 31.4765 25.0602 29.8795 25.0602C29.6454 25.0602 29.4178 25.0881 29.1999 25.1406H18.6418L18.362 24.3732L28.0117 23.528C28.0314 23.5263 28.0511 23.5242 28.0706 23.5218C28.7389 23.6067 29.4152 23.2622 29.722 22.6214L33.3365 15.0712C33.4811 14.7692 33.5229 14.4445 33.476 14.1368C33.4878 14.0581 33.494 13.9776 33.494 13.8956C33.494 13.0084 32.7747 12.2892 31.8875 12.2892H13.9563L12.9314 9.47791H8.27309ZM27.2375 20.3707L17.2226 21.2479L15.1277 15.502H29.5682L27.2375 20.3707Z" fill="#EE6616"/>
<path fill-rule="evenodd" clip-rule="evenodd" d="M40 20C40 31.0457 31.0457 40 20 40C8.9543 40 0 31.0457 0 20C0 8.9543 8.9543 0 20 0C31.0457 0 40 8.9543 40 20ZM38.2329 20.0803C38.2329 30.1057 30.1057 38.2329 20.0803 38.2329C10.0549 38.2329 1.92771 30.1057 1.92771 20.0803C1.92771 10.0549 10.0549 1.92771 20.0803 1.92771C30.1057 1.92771 38.2329 10.0549 38.2329 20.0803Z" fill="#EE6616"/>
</svg>
