<svg width="100" height="92" viewBox="0 0 100 92" fill="none" xmlns="http://www.w3.org/2000/svg">
<path fill-rule="evenodd" clip-rule="evenodd" d="M16.737 47.7219L16.7168 47.4251L16.7269 47.1283L16.7742 46.8315L16.8519 46.5346L17.1863 45.5598L17.541 44.6052L17.9328 43.6574L18.3449 42.7197L18.7941 41.7921L19.2636 40.8848L19.7636 39.9943L20.2804 39.1173L20.8242 38.2538L21.3984 37.4038L22.003 36.5706L22.6246 35.7611L23.2663 34.9651L23.9453 34.1926L24.6377 33.4371L25.3538 32.6984L26.0159 32.0507L26.705 31.4267L27.394 30.8162L28.1101 30.2225L28.8296 29.6592L29.5761 29.1061L30.3226 28.5799L31.0995 28.0705L31.873 27.5747L32.6702 27.1058L33.4741 26.6673L34.2881 26.2356L35.1191 25.8342L35.9534 25.4531L36.8046 25.0888L37.6693 24.7548L37.3721 24.1814L37.0917 23.6181L36.835 23.0616L36.5952 22.5185L36.3756 21.9721L36.1628 21.4256L35.8014 20.3361L35.6291 19.783L35.4737 19.2095L35.3217 18.626L35.1866 18.0222L35.0549 17.3915L34.9299 16.7405L34.8049 16.0625L34.68 15.3541L34.6428 14.9932V14.6289L34.6698 13.8261L34.7374 13.0335L34.8522 12.2374L35.0144 11.465L35.217 10.6892L35.4569 9.93364L35.744 9.18819L36.0784 8.46299L36.3081 8.02112L36.558 7.58262L36.8249 7.15087L37.1221 6.73261L37.4295 6.31098L37.7538 5.90959L38.0983 5.51831L38.4631 5.12367L38.8448 4.75263L39.2366 4.38834L39.6386 4.03417L40.0608 3.69012L40.4932 3.35619L40.9424 3.03912L41.3917 2.73555L41.8612 2.43872L42.3307 2.16213L42.8103 1.9024L43.2967 1.6528L43.7967 1.41668L44.3033 1.20418L44.7999 1.00517L45.3167 0.823025L45.8267 0.650999L46.3435 0.505958L46.8603 0.374409L47.3771 0.259725L47.8939 0.172026L48.4107 0.0944455L48.9276 0.0371036L49.4342 0.0101192L49.9409 0L50.4982 0.0101192L51.0454 0.0371036L51.5893 0.0876994L52.1365 0.141668L52.6702 0.229368L53.2072 0.333932L53.7443 0.448616L54.2712 0.593657L54.788 0.745445L55.3048 0.91747L55.8217 1.10973L56.3182 1.31886L56.8181 1.54823L57.3045 1.78772L57.7842 2.05419L58.2537 2.33415L58.4834 2.49606L58.6928 2.66808L58.8752 2.85023L59.0373 3.04924L59.2873 3.14706L59.517 3.26174L59.7467 3.40341L59.9662 3.56532L60.5709 4.10163L61.1451 4.65481L61.6923 5.23835L62.199 5.85225L62.6685 6.48301L63.0975 7.14412L63.4994 7.82211L63.8642 8.52033L64.1817 9.23542L64.4688 9.97412L64.7053 10.7196L64.8978 11.4819L65.06 12.2577L65.168 13.0503L65.2424 13.8464L65.2626 14.6559V14.9527L65.2424 15.2496L65.1849 15.8129L65.1106 16.3897L65.0025 16.953L64.8809 17.5264L64.7458 18.0998L64.5837 18.6732L64.4114 19.2365L64.229 19.8032L64.0162 20.3665L63.8068 20.9197L63.3373 22.0092L62.8306 23.0616L62.2935 24.0768L61.9693 24.6604L62.8509 24.9943L63.7223 25.3552L64.5736 25.7398L65.4248 26.1412L66.2591 26.5729L67.0799 27.0215L67.8939 27.5005L68.6911 27.9963L69.4748 28.5023L70.2415 29.0487L70.9981 29.6019L71.7446 30.1854L72.4641 30.7791L73.1802 31.3997L73.8693 32.0406L74.5516 32.6984L75.1427 33.3123L75.7271 33.9329L76.2945 34.5738L76.8485 35.2248L77.3755 35.8927L77.8923 36.5639L78.3888 37.2621L78.8786 37.9603L79.338 38.6653L79.7872 39.3939L80.2196 40.1292L80.6317 40.8746L81.0235 41.6302L81.395 42.3959L81.7598 43.1683L82.0942 43.9542L82.1145 44.0959L82.1348 44.2207L82.1719 44.3354L82.2091 44.4332L82.2564 44.5277L82.3239 44.6052L82.3915 44.6727L82.4692 44.7267L82.5536 44.7671L82.6516 44.7941L82.861 44.8245L83.111 44.8144L83.3879 44.7469L83.7055 44.6423L84.0466 44.5007L84.4216 44.3084L84.8235 44.0892L85.2559 43.8092L85.7153 43.5056L86.2017 43.1616L86.7185 42.777L86.8333 42.7298L87.5055 42.5106L87.85 42.4161L88.2047 42.3284L88.5492 42.261L88.9039 42.2137L89.2586 42.1935L89.6099 42.1834L89.9173 42.2036L90.2246 42.234L90.5219 42.2711L90.8191 42.3386L90.9981 42.1564L91.3731 41.8225L91.775 41.5054L92.2074 41.2389L92.4371 41.1243L92.6668 41.0197L92.9539 40.8375L93.2512 40.6925L93.5552 40.5778L93.8828 40.4935L94.1024 40.4463L94.332 40.3687L94.4942 40.3215L94.6462 40.2709L95.1562 40.1764L95.6426 40.1191H96.1324L96.6019 40.1494L97.0613 40.2338L97.4903 40.3484L97.9024 40.5104L98.2875 40.7229L98.6387 40.9725L98.9664 41.2558L99.2434 41.5931L99.3785 41.7752L99.4933 41.9641L99.598 42.1665L99.6926 42.3858L99.7703 42.605L99.848 42.8344L99.9054 43.084L99.9527 43.3336L99.9797 43.59L100 43.8665V44.1634L99.9629 44.4501L99.8953 44.8346L99.8075 45.2056L99.6757 45.5497L99.4933 45.8769L99.2636 46.1805L99.1083 46.393L98.9867 46.6223L98.8887 46.8618L98.8144 47.1182L98.7367 47.388L98.6793 47.6342L98.4496 48.8216L98.2571 50.0055L97.9801 51.8809L97.7605 53.753L97.568 55.4766L97.5308 55.6958L97.4734 55.9724L97.3957 56.249L97.2133 56.7752L97.2234 57.0147L97.2133 57.2542L97.1863 57.5308L97.1289 57.7973L97.0512 58.0671L96.9465 58.3234L96.8316 58.573L96.7066 58.8227L96.4094 59.2915L96.075 59.73L95.5278 60.3439L94.9434 60.9173L94.4165 61.3828L93.8727 61.8247L93.4876 62.1114L93.2984 62.2531L93.0958 62.3677L92.8863 62.4656L92.6567 62.5499L92.3493 62.6376L92.0419 62.6949L91.7278 62.7152L91.4204 62.7219L91.1164 62.6949L90.7989 62.6544L90.4915 62.5971L90.1875 62.5229L89.7551 62.388L89.3329 62.2261L88.9309 62.0338L88.5594 61.8044L88.2148 62.081L88.0122 62.2362L87.7926 62.3779L87.3535 62.6376L86.884 62.8467L86.4043 63.0187L85.8571 63.1908L85.3133 63.3156L84.7458 63.3931L84.1919 63.4302L83.9352 64.7322L83.6278 66.0208L83.263 67.2924L82.861 68.5472L82.4118 69.7783L81.9118 70.9926L81.368 72.1901L80.7837 73.3639L80.152 74.5208L79.4731 75.6407L78.7536 76.7504L77.997 77.8197L77.193 78.862L76.3486 79.8874L75.4704 80.8689L74.5516 81.8269L73.9267 82.4306L73.2951 83.0209L72.6533 83.5876L71.9946 84.1408L71.3224 84.6771L70.6435 85.1932L69.9544 85.689L69.2451 86.168L68.5357 86.6368L67.8095 87.0753L67.0799 87.5071L66.3334 87.9186L65.5801 88.3099L64.8235 88.6708L64.0466 89.025L63.2697 89.3623L62.4861 89.676L61.6923 89.9728L60.885 90.2494L60.0743 90.499L59.2603 90.7385L58.4361 90.9577L57.6119 91.15L56.7776 91.3321L55.9365 91.4839L55.0954 91.6188L54.2408 91.7335L53.3896 91.828L52.5384 91.9056L51.6771 91.9629L50.8157 91.9899L49.9409 92L49.0796 91.9899L48.2081 91.9629L47.3569 91.9056L46.4955 91.828L45.6443 91.7335L44.7999 91.6188L43.9588 91.4839L43.1143 91.3321L42.2834 91.15L41.4592 90.9577L40.635 90.7385L39.821 90.499L39.0171 90.2494L38.2131 89.9728L37.4194 89.676L36.6323 89.3623L35.8588 89.025L35.0819 88.6708L34.3253 88.3099L33.5687 87.9186L32.8222 87.5071L32.0959 87.0753L31.3663 86.6368L30.6604 86.168L29.951 85.689L29.2619 85.1932L28.5796 84.6771L27.9108 84.1408L27.2488 83.5876L26.6104 83.0209L25.9753 82.4306L25.3538 81.8269L24.4249 80.8689L23.5366 79.8773L22.6921 78.8451L21.8781 77.7826L21.7159 77.5431L21.5909 77.3036L21.4862 77.054L21.4085 76.7977H21.3714L20.9965 76.71L20.6519 76.6256L20.3175 76.5278L19.9831 76.4064L19.6588 76.2613L19.2839 76.0792L18.9292 75.8701L18.5847 75.6306L18.2706 75.3742L18.0578 75.182L17.8686 74.9695L17.1491 75.698L16.4026 76.3963L16.048 76.71L15.6832 76.9967L15.2812 77.2564L14.8691 77.4959L14.18 77.8298L13.4808 78.1367L12.7715 78.4032L12.0554 78.6326L11.5386 78.7844L11.0117 78.9092L10.1604 79.0542L9.73822 79.1014L9.30586 79.1385L8.84648 79.1487L8.3871 79.1318L7.92772 79.0745L7.46833 78.9766L7.06637 78.862L6.66441 78.7203L6.27935 78.5584L5.89765 78.3661L5.54298 78.1637L5.19845 77.9445L4.52964 77.4756L4.48911 77.4487L3.88786 76.9596L3.31363 76.4435L2.76642 75.897L2.25975 75.3135L1.85779 74.7974L1.48286 74.2645L1.13832 73.7012L0.841074 73.1075L0.756629 72.9153L0.63165 72.5409L0.516805 72.1597L0.32427 71.394L0.182402 70.6115L0.087823 69.8256L0.0202668 69.0228L0 68.2301L0.0101334 67.4374L0.0472893 66.6515L0.104712 65.9634L0.172268 65.2854L0.260091 64.6074L0.35467 63.9295L0.469515 63.2582L0.604628 62.5904L0.746496 61.9191L0.918764 61.2614L1.09103 60.6003L1.28357 59.9493L1.49299 59.3016L1.71255 58.6608L1.95237 58.0098L2.21246 57.379L2.47931 56.7482L2.75629 56.1175L3.12109 55.3788L3.50616 54.6637L3.92501 53.9553L4.36751 53.2672L4.84378 52.596L5.35383 51.9551L5.88752 51.3345L6.45499 50.7442L7.00895 50.2247L7.59331 49.739L8.2047 49.2904L8.83635 48.8958L9.16399 48.717L9.50853 48.5416L9.84293 48.3898L10.1976 48.2481L10.5523 48.1233L10.9137 48.0087L11.2886 47.9108L11.6636 47.8265L12.0926 47.7489L12.5418 47.7017L13.4335 47.6241L14.1226 47.587H14.8117L15.5008 47.6073L16.1831 47.6545L16.737 47.7219Z" fill="white"/>
<path fill-rule="evenodd" clip-rule="evenodd" d="M49.9611 3.79148H50.4306H50.9001L51.3595 3.8387L51.8189 3.8893L52.2682 3.96351L52.7106 4.05121L53.1498 4.14565L53.5821 4.26034L54.0111 4.39526L54.4232 4.53693L54.8353 4.69209L55.2474 4.86411L55.6392 5.04626L56.031 5.24527L56.406 5.45777L56.7775 5.67702L56.6728 5.80857L56.5985 5.96373L56.5411 6.12563L56.5208 6.29766L56.5411 6.4798L56.5884 6.64171L56.6728 6.7935L56.7775 6.9183L56.9025 7.02287L57.0579 7.11056L57.22 7.15779L57.4024 7.17803H57.5274L57.649 7.14767L57.7638 7.11056L57.8719 7.05322L57.9665 6.97564L58.051 6.90143L58.1286 6.80362L58.1861 6.69905L58.6657 7.12068L59.1116 7.57605L59.5439 8.0449L59.9459 8.52387L60.3276 9.02983L60.6823 9.55603L61.0201 10.1025L61.3072 10.6556L61.5774 11.2392L61.8071 11.8328L62.0064 12.4332L62.1685 13.0573L62.2935 13.688L62.3914 14.3356L62.4489 14.9866L62.4658 15.6613V16.0255L62.3712 16.8958L62.209 17.766L62.0064 18.6363L61.7497 19.5065L61.547 19.4391L61.3477 19.3817L61.1248 19.3547H60.9052H60.6654L60.4357 19.3918L60.2161 19.4492L60.0067 19.5268L59.804 19.6212L59.6149 19.7359L59.4426 19.8708L59.2805 20.0226L59.1251 20.1845L58.99 20.3667L58.8751 20.5488L58.7806 20.7579L58.7029 20.9704L58.6455 21.1897L58.6083 21.4191V21.6585L58.6286 21.9958L58.7063 22.3129L58.811 22.6097L58.963 22.8863L59.1454 23.1326L59.3548 23.3619L59.6048 23.5542L59.8716 23.7161L59.2231 24.8258L58.5239 25.9457L57.7605 27.0352L56.9768 28.1449L56.1729 29.2445L55.3318 30.3441L53.6193 32.5333L53.5044 32.368L53.3693 32.196L53.2173 32.0408L53.045 31.9194L52.8525 31.8215L52.6431 31.7473L52.4337 31.6967H52.204H52.0385H51.8763L51.7345 31.744L51.5791 31.7946L51.4473 31.8586L51.3122 31.9463L51.1873 32.0307L51.0825 32.1386L50.9778 32.2533L50.8799 32.3781L50.8056 32.5096L50.738 32.6446L50.6806 32.7862L50.64 32.9414V33.1033V33.2652L50.6603 33.5418L50.7245 33.8015L50.8393 34.0309L50.9846 34.2501L51.1569 34.4424L51.3595 34.5942L51.5892 34.719L51.8358 34.8033L50.5455 36.4494L49.2518 38.1022L48.5762 37.2488L47.9006 36.3617L47.2251 35.4442L46.5495 34.5267L45.8909 33.5991L45.2389 32.6783L44.6174 31.7709L44.0229 30.9007L44.1378 30.8636L44.2627 30.8164L44.4823 30.6612L44.6816 30.4723L44.8539 30.2328L45.0092 29.9562L45.1241 29.6392L45.2085 29.3019L45.2491 28.9376V28.6812V28.4316L45.2288 28.1921L45.1916 27.9527L45.1444 27.7334L45.0768 27.5142L44.989 27.3118L44.8944 27.1229L44.7796 26.9306L44.6546 26.7586L44.5093 26.5967L44.3472 26.4516L44.1648 26.31L43.9655 26.1852L43.7527 26.0806L43.5163 25.9828L43.1312 25.8681L42.7394 25.8006L42.3577 25.7737H41.9929L41.6551 25.8108L41.5098 25.831L41.3747 25.8681L41.2599 25.9052L41.1653 25.9558L41.0876 26.003L41.0302 26.0502L40.6282 25.3419L40.2567 24.6673L39.9189 24.0365L39.6149 23.4226L39.3379 22.8324L39.0846 22.2488L38.865 21.6754L38.6522 21.1121L38.4631 20.5387L38.2908 19.9551L38.1354 19.3547L37.9834 18.7307L37.8314 18.0865L37.6997 17.4119L37.5747 16.6968L37.4396 15.921V15.6714L37.4598 14.9968L37.5173 14.3221L37.6118 13.6813L37.7368 13.0505L37.899 12.4299L38.1016 11.8295L38.3313 11.2358L38.588 10.6624L38.713 10.9086L38.8583 11.138L39.0204 11.3674L39.1927 11.5799L39.3852 11.7789L39.5845 11.9711L39.7973 12.1432L40.027 12.3051L40.2634 12.44L40.5134 12.5749L40.7633 12.6795L41.0302 12.7739L41.3072 12.8414L41.5875 12.8987L41.8746 12.9291H42.1719H42.5738L42.9657 12.8717L43.3474 12.7672L43.7122 12.6323L44.0499 12.4703L44.3877 12.268L44.6951 12.0386L44.9721 11.789L45.2322 11.5023L45.4517 11.1987L45.6544 10.8614L45.8267 10.5241L45.9483 10.1598L46.0564 9.77865L46.1138 9.38737V8.98598V8.67903L46.0733 8.3822L46.026 8.0955L45.9483 7.80879L45.8537 7.54231L45.7389 7.27247L45.6037 7.02624L45.4517 6.77663L45.2896 6.54726L45.1072 6.33814L44.9045 6.12563L44.6951 5.93674L44.4755 5.76472L44.2357 5.60956L43.9858 5.46789L43.7291 5.34309L44.4283 4.98891L45.1545 4.68197L45.901 4.4155L46.6779 4.19625L47.4818 4.03434L48.3026 3.89605L49.1369 3.81847L49.9611 3.79148ZM58.588 12.9493H58.7502L58.9157 12.9696L59.0575 13.0168L59.2095 13.064L59.3447 13.1315L59.4798 13.2192L59.6048 13.3035L59.7196 13.4081L59.8142 13.5227L59.9088 13.6374L59.9864 13.7723L60.054 13.9174L60.1114 14.0591L60.1486 14.2108L60.1688 14.366V14.5279V14.6898L60.1486 14.8517L60.1114 15.0069L60.054 15.1485L59.9864 15.2835L59.9088 15.4184L59.8142 15.5398L59.7196 15.6545L59.6048 15.7624L59.4798 15.8468L59.3447 15.9345L59.2095 15.9986L59.0575 16.0492L58.9157 16.0964L58.7502 16.1132H58.588H58.4259L58.2638 16.0964L58.1185 16.0492L57.9665 15.9986L57.8314 15.9345L57.6997 15.8468L57.5747 15.7624L57.47 15.6545L57.3619 15.5398L57.2673 15.4184L57.1896 15.2835L57.1221 15.1485L57.0646 15.0069L57.0275 14.8517L57.0072 14.6898V14.5279V14.366L57.0275 14.2108L57.0646 14.0591L57.1221 13.9174L57.1896 13.7723L57.2673 13.6374L57.3619 13.5227L57.47 13.4081L57.5747 13.3035L57.6997 13.2192L57.8314 13.1315L57.9665 13.064L58.1185 13.0168L58.2638 12.9696L58.4259 12.9493H58.588ZM57.4869 18.0089H57.622L57.7368 18.046L57.8517 18.1033L57.9462 18.1877L58.0239 18.2855L58.0915 18.3901L58.1286 18.5047V18.6397V18.7712L58.0915 18.896L58.0239 19.0006L57.9462 19.0984L57.8517 19.1827L57.7368 19.2401L57.622 19.2805H57.4869H57.3551L57.2302 19.2401L57.1221 19.1827L57.0275 19.0984L56.943 19.0006L56.8856 18.896L56.8451 18.7712V18.6397V18.5047L56.8856 18.3901L56.943 18.2855L57.0275 18.1877L57.1221 18.1033L57.2302 18.046L57.3551 18.0089H57.4869ZM47.9209 17.3579H48.056L48.181 17.395L48.2857 17.4523L48.3803 17.54L48.4681 17.6345L48.5255 17.7391L48.5627 17.8639V17.9988V18.1303L48.5255 18.245L48.4681 18.3529L48.3803 18.4474L48.3026 18.5385L48.1979 18.5958L48.0729 18.6363H47.9378H47.8061L47.6912 18.5958L47.5595 18.5385L47.4615 18.4541L47.3872 18.3597L47.3197 18.2518L47.2791 18.1371V18.0055V17.8706L47.3197 17.7458L47.3872 17.6412L47.4615 17.5468L47.5595 17.4591L47.6743 17.4017L47.7892 17.3646L47.9209 17.3579ZM51.9135 19.3278H52.0486L52.1634 19.3649L52.2783 19.4323L52.3762 19.5099L52.4506 19.6043L52.5181 19.719L52.5553 19.8337V19.9686V20.1002L52.5181 20.225L52.4506 20.3296L52.3762 20.4274L52.2783 20.5117L52.1634 20.569L52.0486 20.6095H51.9135H51.7817L51.6568 20.569L51.5521 20.5117L51.4541 20.4274L51.3697 20.3296L51.3122 20.225L51.2751 20.1002V19.9686V19.8337L51.3122 19.719L51.3697 19.6043L51.4541 19.5099L51.5521 19.4323L51.6568 19.3649L51.7817 19.3278H51.9135ZM41.6416 15.2261H41.7767L41.8983 15.2632L42.0064 15.3206L42.101 15.4083L42.1854 15.5027L42.2428 15.6073L42.2834 15.7321V15.867V15.9986L42.2428 16.1132L42.1854 16.2212L42.101 16.3156L42.0064 16.4033L41.8983 16.4607L41.7767 16.4978H41.6416H41.5065L41.3916 16.4607L41.2768 16.4033L41.1822 16.3156L41.1045 16.2212L41.0369 16.1132L40.9998 15.9986V15.867V15.7321L41.0369 15.6073L41.1045 15.5027L41.1822 15.4083L41.2768 15.3206L41.3916 15.2632L41.5065 15.2261H41.6416ZM43.6885 18.7914H43.8811L44.0635 18.8218L44.2492 18.8758L44.4215 18.9331L44.5836 19.0107L44.7356 19.1051L44.8809 19.2097L45.016 19.3345L45.141 19.4694L45.2457 19.6111L45.3403 19.7629L45.418 19.9282L45.4754 20.1002L45.5227 20.2823L45.5497 20.4611V20.6534V20.8456L45.5227 21.0278L45.4754 21.2099L45.418 21.3819L45.3403 21.5439L45.2457 21.6956L45.141 21.8474L45.016 21.9823L44.8809 22.097L44.7356 22.2016L44.5836 22.2994L44.4215 22.3837L44.2492 22.4411L44.0668 22.4883L43.8844 22.5187H43.6919H43.5027L43.3203 22.4883L43.1379 22.4411L42.9657 22.3837L42.8035 22.2994L42.6515 22.2016L42.4962 22.097L42.3712 21.9823L42.2462 21.8474L42.1415 21.6956L42.0469 21.5439L41.9591 21.3819L41.9017 21.2099L41.8544 21.0278L41.8273 20.8456V20.6534V20.4611L41.8544 20.2823L41.9017 20.1002L41.9591 19.9282L42.0469 19.7629L42.1415 19.6111L42.2462 19.4694L42.3712 19.3345L42.4962 19.2097L42.6515 19.1051L42.8035 19.0107L42.9657 18.9331L43.1379 18.8758L43.3203 18.8285L43.5027 18.7982L43.6885 18.7914ZM48.2655 26.1447L48.4681 26.1649L48.6505 26.2223L48.8228 26.3167L48.9647 26.4314L49.0795 26.5764L49.1775 26.7485L49.2349 26.9306L49.2518 27.1296L49.2349 27.332L49.1775 27.5142L49.0795 27.6862L48.9647 27.8279L48.8228 27.9425L48.6505 28.037L48.4681 28.0943L48.2655 28.1146L48.0662 28.0943L47.8838 28.037L47.7115 27.9425L47.5662 27.8279L47.4446 27.6862L47.3467 27.5142L47.2893 27.332L47.2724 27.1296L47.2893 26.9306L47.3467 26.7485L47.4446 26.5764L47.5662 26.4314L47.7115 26.3167L47.8838 26.2223L48.0662 26.1649L48.2655 26.1447ZM54.511 25.0552H54.6732L54.8353 25.0754L54.9772 25.1125L55.1325 25.1699L55.2676 25.2373L55.3994 25.3116L55.5244 25.4094L55.6392 25.5139L55.7338 25.6219L55.8317 25.7467L55.906 25.8816L55.9736 26.0131L56.031 26.1683L56.0716 26.31L56.0885 26.4719V26.6372V26.7991L56.0716 26.9711L56.031 27.1229L55.9736 27.2679L55.906 27.4028L55.8317 27.5344L55.7338 27.6457L55.6392 27.7604L55.5244 27.865L55.3994 27.9527L55.2676 28.037L55.1325 28.1044L54.9772 28.1517L54.8353 28.1989L54.6732 28.2191H54.511H54.3455L54.1834 28.1989L54.0314 28.1517L53.8861 28.1044L53.7544 28.037L53.6193 27.9527L53.4943 27.865L53.3795 27.7604L53.2747 27.6457L53.1903 27.5209L53.1025 27.3894L53.0349 27.2544L52.9876 27.1094L52.9403 26.9576L52.9201 26.7957V26.6338V26.4685L52.9403 26.3066L52.9876 26.1649L53.0349 26.0098L53.1025 25.8782L53.1903 25.7433L53.2747 25.6185L53.3795 25.5139L53.4943 25.4094L53.6193 25.3116L53.7544 25.2373L53.8861 25.1699L54.0314 25.1125L54.1834 25.0754L54.3455 25.0552H54.511ZM51.9135 11.9475H52.2209L52.5282 11.988L52.8154 12.0622L53.0923 12.1701L53.3626 12.3017L53.6091 12.4467L53.849 12.6289L54.0584 12.8178L54.2611 13.0404L54.4333 13.2698L54.5853 13.5261L54.7204 13.8162L54.8252 14.1029L54.9028 14.3896L54.94 14.6932L54.9603 15.0001L54.94 15.3071L54.9028 15.614L54.8252 15.9007L54.7204 16.1773L54.5955 16.4438L54.4435 16.6934L54.2712 16.9329L54.0685 17.142L53.8591 17.3444L53.6193 17.5164L53.3727 17.6682L53.1025 17.793L52.8255 17.8976L52.5384 17.9752L52.231 18.0123L51.9236 18.0325L51.6196 18.0123L51.3122 17.9752L51.0251 17.8976L50.738 17.793L50.4779 17.6682L50.2212 17.5164L49.9915 17.3444L49.772 17.142L49.5794 16.9329L49.397 16.6934L49.2552 16.4438L49.12 16.1773L49.0153 15.9007L48.9376 15.614L48.9005 15.3071L48.8802 15.0001L48.9005 14.6932L48.9376 14.3896L49.0153 14.1029L49.12 13.8162L49.2552 13.5565L49.397 13.3001L49.5794 13.0707L49.772 12.8481L49.9915 12.6592L50.2212 12.4771L50.4779 12.332L50.738 12.2005L51.0251 12.0926L51.3122 12.0184L51.6196 11.9779L51.9135 11.9475ZM50.2786 4.8911H50.5184L50.7481 4.9282L50.9677 4.98554L51.1771 5.06312L51.3798 5.15757L51.5689 5.27225L51.7412 5.40717L51.9067 5.55896L52.0587 5.72087L52.1938 5.90301L52.3087 6.08516L52.4033 6.29429L52.481 6.50679L52.5384 6.72604L52.5755 6.9554V7.19489V7.43438L52.5384 7.66374L52.481 7.88299L52.4033 8.09212L52.3087 8.29451L52.1938 8.4834L52.0587 8.65542L51.9067 8.8207L51.7412 8.97249L51.5689 9.10741L51.3798 9.22209L51.1771 9.31654L50.9677 9.39412L50.7481 9.45146L50.5184 9.48857H50.2786H50.0388L49.8091 9.45146L49.5794 9.39412L49.3666 9.31654L49.1673 9.22209L48.9748 9.10741L48.7924 8.97249L48.6303 8.8207L48.4783 8.65542L48.3431 8.4834L48.2283 8.29451L48.1337 8.09212L48.056 7.88299L47.9986 7.66374L47.9614 7.43438V7.19489V6.9554L47.9986 6.72604L48.056 6.50679L48.1337 6.29429L48.2283 6.08516L48.3431 5.90301L48.4783 5.72087L48.6303 5.55896L48.7924 5.40717L48.9748 5.27225L49.1673 5.15757L49.3666 5.06312L49.5794 4.98554L49.8091 4.9282L50.0388 4.8911H50.2786Z" fill="#FAC900"/>
<path d="M43.5906 29.4435L42.5468 29.6931L41.5335 29.9799L40.5201 30.2936L39.5068 30.6477L38.5272 31.0424L37.5612 31.4707L36.612 31.9194L35.6932 32.4186L34.7914 32.9347L33.903 33.4878L33.0383 34.0714L32.1972 34.6751L31.373 35.316L30.5792 35.9906L29.8023 36.6889L29.0491 37.4006L28.4276 38.0482L27.8162 38.7228L27.2318 39.3974L26.6846 40.0956L26.1307 40.8006L25.6037 41.5359L25.1038 42.2814L24.6275 43.0471L24.1749 43.8364L23.7358 44.629L23.3338 45.4419L22.969 46.2818L22.6042 47.115L22.2665 47.9751L21.9557 48.8352L21.6787 49.7156L21.5065 49.5334L21.3241 49.3715L21.1315 49.2063L20.9322 49.0646L20.4897 48.7947L20.0202 48.5755L19.7804 48.481L19.5338 48.3933L19.8412 47.486L20.179 46.5955L20.5404 45.7185L20.912 44.8483L21.3241 43.9949L21.753 43.1617L22.2124 42.3387L22.6921 41.5258L23.1987 40.7433L23.7257 39.9573L24.2729 39.2018L24.8471 38.4563L25.4416 37.7311L26.053 37.0228L26.6846 36.3482L27.3365 35.6736L28.1101 34.9281L28.9174 34.2029L29.7247 33.498L30.5792 32.8233L31.4507 32.1825L32.3391 31.5787L33.2646 31.0188L34.2003 30.4656L35.1595 29.9495L36.1425 29.4435L37.1558 28.9848L38.1692 28.5632L39.1825 28.182L40.2229 27.8447L41.2869 27.5074L42.361 27.2308H42.5502L42.7225 27.2612L42.8981 27.3084L43.0332 27.3489L43.1582 27.3961L43.2629 27.4534L43.4453 27.5951L43.5906 27.7503L43.6851 27.9392L43.7527 28.1415L43.7898 28.3709V28.8566L43.7696 28.9916L43.7426 29.1535L43.6851 29.3154L43.5906 29.4435Z" fill="#203B70"/>
<path d="M59.1116 27.6457L60.0675 27.9527L61.0167 28.29L61.9591 28.6576L62.8778 29.0388L63.7865 29.4604L64.6681 29.9023L65.5294 30.3441L66.3908 30.8434L67.2352 31.3561L68.0594 31.8991L68.8532 32.4759L69.6368 33.0662L70.4036 33.6801L71.1501 34.321L71.8797 34.9956L72.5789 35.6702L73.1227 36.2268L73.6598 36.8002L74.1766 37.3837L74.6731 37.9774L75.1629 38.5879L75.6426 39.2085L76.102 39.8393L76.5411 40.4802L76.9734 41.1548L77.3855 41.8294L77.7875 42.504L78.159 43.1786L78.5238 43.8768L78.8785 44.5852L79.2163 45.3003L79.5338 46.0255L79.1217 45.9884L78.6995 45.9715H77.8449L77.5274 45.7927L77.1896 45.6376L76.8518 45.506L76.5141 45.388L76.0006 44.285L75.3859 43.2022L74.7137 42.1498L74.0381 41.1379L73.2984 40.1631L72.5249 39.2052L71.7209 38.2877L70.8664 37.4006L70.1908 36.726L69.4848 36.0851L68.7552 35.4644L68.0087 34.8708L67.2318 34.2974L66.4482 33.7543L65.6341 33.2281L64.81 32.7289L63.9689 32.26L63.1143 31.8215L62.2361 31.3999L61.3173 31.0188L60.4188 30.6545L59.4899 30.3172L58.561 30.0102L57.6118 29.7437L58.3786 28.6914L59.1116 27.6457Z" fill="#203B70"/>
<path d="M81.1856 65.1473L81.422 63.9229L81.1113 64.1151L80.7937 64.2973L80.456 64.4693L80.1182 64.6245L79.7804 64.756L79.4257 64.8808L79.0609 64.9753L78.6995 65.063L78.4394 66.0749L78.1523 67.0666L77.8145 68.0515L77.4497 69.0094L77.0579 69.9573L76.6357 70.8916L76.1864 71.8023L75.7068 72.6996L75.19 73.5698L74.6529 74.4299L74.0787 75.2631L73.4875 76.076L72.8626 76.8687L72.2141 77.6445L71.5385 78.3899L70.8393 79.1151L70.3327 79.6143L69.8159 80.0899L69.2788 80.5588L68.735 81.0175L68.1878 81.4594L67.6237 81.8979L67.0494 82.3094L66.4549 82.7209L65.8604 83.1021L65.2592 83.4866L64.6444 83.8475L64.0229 84.1848L63.3913 84.5221L62.7495 84.8358L62.0976 85.1427L61.4389 85.4295L60.7633 85.6959L60.0878 85.9557L59.4122 86.1951L58.713 86.4144L58.0374 86.6235L57.3281 86.8158L56.6188 86.9878L55.8993 87.1396L55.1731 87.2846L54.4468 87.3993L53.7071 87.5039L52.9606 87.5882L52.2141 87.6557L51.4676 87.7029L50.711 87.7333H49.1808L48.4242 87.7029L47.6743 87.6557L46.9278 87.5882L46.1813 87.5039L45.4551 87.3993L44.7187 87.2846L43.9993 87.1396L43.2798 86.9878L42.5637 86.8158L41.8645 86.6235L41.1653 86.4144L40.4897 86.1951L39.8142 85.9557L39.1386 85.6959L38.4799 85.4295L37.8044 85.1427L37.1525 84.8358L36.5141 84.5221L35.879 84.1848L35.2575 83.8475L34.636 83.4866L34.0314 83.1021L33.4402 82.7209L32.8424 82.3094L32.2681 81.8979L31.7007 81.4594L31.1467 81.0175L30.6096 80.5588L30.0726 80.0899L29.5558 79.6143L29.0491 79.1151L28.2891 78.3224L27.5629 77.4994L26.8535 76.6494L26.178 75.769L25.3639 76.42L24.9721 76.6865L24.5701 76.926L24.1378 77.1183L24.8843 78.0931L25.6713 79.0375L26.4853 79.9651L27.3365 80.8522L27.8838 81.3885L28.4478 81.9147L29.0221 82.4207L29.6064 82.9098L30.2077 83.3955L30.8123 83.8644L31.4338 84.313L32.052 84.7346L32.6938 85.1529L33.3693 85.5576L34.028 85.9489L34.7035 86.3301L35.3791 86.6944L36.7775 87.369L37.4936 87.686L38.2131 87.9795L38.9393 88.2561L39.6858 88.5124L40.4323 88.762L41.1889 88.9813L41.9456 89.1938L42.7225 89.3759L43.4994 89.548L44.283 89.6997L45.0667 89.8347L45.874 89.9392L46.6779 90.0337L47.4818 90.1011L48.2958 90.1585L49.12 90.1888H50.765L51.5892 90.1585L52.4033 90.1011L53.2173 90.0337L54.0212 89.9392L54.815 89.8347L55.6088 89.6997L56.3958 89.548L57.1693 89.3759L57.9361 89.1938L58.7029 88.9813L59.4595 88.762L60.206 88.5124L60.9424 88.2561L61.6821 87.9795L62.3982 87.6928L63.1177 87.3757L64.5161 86.7011L65.1916 86.3368L65.8537 85.9691L66.5293 85.5779L67.2048 85.1731L67.8466 84.7549L68.4782 84.313L69.1234 83.8576L69.7247 83.3888L70.3293 82.903L70.9137 82.414L71.4879 81.908L72.052 81.3818L72.5992 80.8455L73.4301 79.9854L74.2239 79.0949L74.9907 78.1673L75.7304 77.2228L76.406 76.2379L77.0646 75.226L77.6895 74.1938L78.2435 73.1482L78.7907 72.0688L79.2974 70.9692L79.7567 69.8426L80.179 68.6924L80.5607 67.5287L80.8984 66.3414L81.1856 65.1473Z" fill="#203B70"/>
<path fill-rule="evenodd" clip-rule="evenodd" d="M65.1512 79.2724C65.0842 79.5403 65.2471 79.8118 65.515 79.8787C65.7829 79.9457 66.0543 79.7828 66.1213 79.5149L66.75 77H67.9402L68.5126 79.505C68.5741 79.7742 68.8422 79.9426 69.1114 79.8811C69.3806 79.8196 69.549 79.5515 69.4875 79.2823L67.8811 72.2524C67.8296 72.0269 67.6301 71.8662 67.3988 71.8638C67.1675 71.8615 66.9647 72.0181 66.9086 72.2425L65.1512 79.2724ZM67.7117 76H67L67.3719 74.5127L67.7117 76Z" fill="#203B70"/>
<path d="M64.3201 72.1159C64.5322 72.2927 64.5609 72.608 64.3841 72.8201L62.1159 75.542L64.424 79.235C64.5704 79.4692 64.4992 79.7776 64.265 79.924C64.0308 80.0704 63.7224 79.9992 63.576 79.765L62 77.2434V79.5C62 79.7761 61.7761 80 61.5 80C61.2239 80 61 79.7761 61 79.5V72.5C61 72.2239 61.2239 72 61.5 72C61.7761 72 62 72.2239 62 72.5V74.119L63.6159 72.1799C63.7927 71.9678 64.108 71.9391 64.3201 72.1159Z" fill="#203B70"/>
<path d="M57 72.5C57 72.2239 56.7761 72 56.5 72C56.2239 72 56 72.2239 56 72.5V79.5C56 79.7761 56.2239 80 56.5 80C56.7761 80 57 79.7761 57 79.5V76H59V79.5C59 79.7761 59.2239 80 59.5 80C59.7761 80 60 79.7761 60 79.5V72.5C60 72.2239 59.7761 72 59.5 72C59.2239 72 59 72.2239 59 72.5V75H57V72.5Z" fill="#203B70"/>
<path fill-rule="evenodd" clip-rule="evenodd" d="M51 74C51 72.8954 51.8954 72 53 72C54.1046 72 55 72.8954 55 74V78C55 79.1046 54.1046 80 53 80C51.8954 80 51 79.1046 51 78V74ZM53 73C52.4477 73 52 73.4477 52 74V78C52 78.5523 52.4477 79 53 79C53.5523 79 54 78.5523 54 78V74C54 73.4477 53.5523 73 53 73Z" fill="#203B70"/>
<path d="M50.5 72H47.5V79.5C47.5 79.7761 47.7239 80 48 80C48.2761 80 48.5 79.7761 48.5 79.5V73H50.5C50.7761 73 51 72.7761 51 72.5C51 72.2239 50.7761 72 50.5 72Z" fill="#203B70"/>
<path fill-rule="evenodd" clip-rule="evenodd" d="M86.7117 54.5627L86.9786 54.5896L86.7151 55.3891L86.428 56.1345L86.1206 56.8091L85.8031 57.45L85.641 57.7367L85.4586 58.0032L85.2626 58.2764L85.0431 58.4855L84.8134 58.6778L84.5736 58.8397L84.3135 58.9746L84.0466 59.0893L83.8845 59.1466L83.7494 59.204L83.6244 59.231L83.5197 59.2613H83.236L83.2056 59.231L83.1785 59.1939L83.1279 59.1466L83.0637 59.0792L82.9759 59.0016L82.8712 58.9173L82.7462 58.8127L82.6111 58.698L82.4489 58.5732L82.0921 58.332L82.0943 58.327L82.1213 58.2393L82.1416 58.1718V57.3792L82.1686 57.1127L82.2159 56.826L82.2463 56.6911V56.2998L82.2193 56.2323L82.1686 56.1952H82.1044L82.074 56.2256L82.047 56.2728L82.0065 56.3301L81.9592 56.4077L81.8916 56.5022L81.8274 56.6168L81.5775 57.0182L81.3951 57.3151L81.1924 57.622L80.9728 57.9593L80.5033 58.5901L80.0169 59.1939L79.8919 59.3288L79.7771 59.4502L79.6623 59.548L79.5474 59.6425L79.4427 59.7099L79.3447 59.7673L79.2502 59.8044L79.1556 59.8347H79.0306L78.9158 59.8145L78.8111 59.7774L78.7131 59.6998L78.6185 59.6054L78.5408 59.4806L78.4665 59.3254L78.399 59.1466L78.301 58.752L78.2368 58.3708L78.2064 57.9863V57.6153L78.2436 57.1835L78.2942 56.7653L78.3686 56.3537L78.4462 55.9422L78.551 55.5307L78.6658 55.1293L78.8009 54.7381L78.9428 54.3468L79.088 53.9724L79.213 53.6351L79.3177 53.2978L79.4123 53.0009L79.4799 52.7311L79.5373 52.4849L79.5846 52.2555L79.6048 52.0632L79.6521 51.3549V51.2975L79.6893 51.2233L79.7366 51.1087L79.8143 50.9737L79.8919 50.8287L79.9494 50.7241L79.9865 50.6398V50.37L79.9494 50.2654L79.9021 50.1676L79.8244 50.0731L79.7366 49.9955L79.6319 49.9213L79.5069 49.864L79.2299 49.7561L78.9428 49.6717L78.6286 49.6144L78.2909 49.5672L77.9531 49.5368H76.2101L76.1358 49.5166L76.048 49.4795L75.9534 49.412L75.6156 49.1557L75.2779 48.9533L74.9401 48.8116L74.6023 48.7037L74.2645 48.6564H73.947L73.643 48.7037L73.3356 48.8015L73.0384 48.9432L72.7411 49.0983L72.454 49.2805L72.177 49.4795L71.9068 49.6987L71.6501 49.9382L71.4001 50.2047L71.1536 50.4846L70.7009 51.085L70.2888 51.7091L69.9173 52.3567L69.5795 53.0313L69.4343 53.3686L69.2991 53.6755L69.1742 53.9521L69.0796 54.2085L68.985 54.4379L68.9073 54.6402L68.8499 54.8224L68.8026 54.9843L68.5527 55.9692L68.3331 56.8968L68.1237 57.7772L68.0257 58.1954L67.9413 58.6069L67.8534 58.9982L67.7217 59.747L67.6643 60.1012L67.635 60.2961L67.6271 60.2699L67.6069 60.2226L67.5697 60.2024L67.5326 60.1923L67.4751 60.2226L67.4177 60.2597L67.2725 60.3845L66.9279 60.7286L66.7286 60.9478L66.5158 61.1873L66.2861 61.4268L65.8065 61.9328L65.5701 62.1621L65.3404 62.3443L65.2255 62.4118L65.1174 62.459L65.0127 62.4961L64.9181 62.5264L64.783 62.5467H64.6513L64.5263 62.5264L64.4115 62.4893L64.3068 62.4421L64.1987 62.3645L64.1041 62.2768L64.0095 62.1723L63.9217 62.0475L63.8541 61.9159L63.7967 61.781L63.7595 61.6292L63.7224 61.4639L63.7021 61.2919L63.692 61.1199L63.7021 60.931L63.7291 60.5667L63.7494 60.3744L63.7798 60.1653L63.8271 59.6964L63.8947 59.1905L63.9116 59.1129L63.9318 59.0185L63.9521 58.9206L63.9588 58.806L63.9994 58.5294L64.0365 58.273L64.0737 58.0335L64.1142 57.8143L64.1412 57.6119L64.1818 57.4399L64.2189 57.278L64.2493 57.143L64.3811 56.6641L64.4588 56.4448L64.5432 56.2458L64.631 56.0333L64.7155 55.7871L64.8134 55.5172L64.9181 55.2103L64.9756 55.0383L65.0431 54.8494L65.1107 54.6301L65.185 54.3805L65.2627 54.114L65.3505 53.8172L65.4451 53.49L65.7525 52.3736L66.097 51.8271V51.7428L66.0869 51.6652L66.0767 51.5977L66.0463 51.5505L66.0092 51.5033L65.9619 51.4729L65.8268 51.4527H65.7525L65.6646 51.4257L65.5701 51.3954L65.4653 51.338L65.3573 51.2739L65.2323 51.1964L65.1005 51.1019L64.9553 50.9839L64.4385 50.5757L64.0838 50.5656L63.9318 50.5285L63.567 50.7174L63.2427 50.8894L62.9556 51.0446L62.7057 51.1761L62.4861 51.311L62.2936 51.446L62.1112 51.5775L61.9592 51.7124L61.8139 51.8575L61.6991 52.0093L61.6045 52.161L61.5268 52.323L61.4626 52.5152L61.3951 52.7243L61.3275 52.974L61.2701 53.2404L61.2228 53.4799L61.1823 53.7025L61.1654 53.9117L61.1553 54.1039L61.1451 54.4851L61.1249 54.8865L61.108 55.0956L61.0776 55.325L61.0303 55.5645L60.983 55.8242L60.9154 56.1109L60.8209 56.4347L60.6857 56.799L60.5337 57.2004L57.8788 59.7336V59.2647L57.8889 59.0758L57.8991 58.9038L57.9193 58.6171L57.9362 58.4821L57.9463 58.3776L57.9936 58.1651L58.0342 57.9762L58.1017 57.7536L58.1389 57.622L58.1862 57.4669L58.2639 57.1633L58.3415 56.8665L58.4159 56.5899L58.4935 56.3301L58.5712 56.0907L58.6354 55.8714L58.7131 55.6724L58.7807 55.4801L58.9056 55.1361L59.0002 54.8089L59.0678 54.5154L59.0948 54.2456V54.1511L59.0779 54.0533L59.0374 53.9488L58.9901 53.8341L58.9225 53.7194L58.8381 53.6047L58.7334 53.4799L58.6185 53.3484L58.4935 53.2236L58.3787 53.119L58.2639 53.0313L58.1591 52.9638L58.0612 52.9166L57.9666 52.8896L57.8788 52.8694L57.7943 52.8795L57.7065 52.8997L57.5917 52.947L57.4667 52.9942L57.3147 53.0617L57.0006 53.2134L56.6729 53.3382L56.3689 53.4327L56.0885 53.49H55.9669L55.869 53.463L55.7947 53.4057L55.7509 53.3212L55.7541 53.318V53.3079H55.744L55.7509 53.3212L55.744 53.3281L55.7069 53.3484L55.6596 53.3753L55.6021 53.4158L55.5245 53.4529L55.4299 53.5001L55.2475 53.6148L55.0955 53.7498L54.9705 53.8914L54.8827 54.0634L54.653 54.6672L54.6631 54.7516L54.6732 54.8595V55.2508L54.6631 55.4127L54.653 55.5948L54.6361 55.7871L54.5956 56.2053L54.5483 56.6641L54.4908 57.1532L54.4233 57.6794L54.3557 58.2325L54.2882 58.806L54.1362 60.0203L54.0585 60.6342L53.9842 61.2346L53.822 62.3915L53.6396 63.9701L53.6092 64.6009L53.5822 65.1844L53.5518 65.7207L53.5349 66.2166L53.5147 66.6652L53.5045 67.0767L53.4944 67.441L53.4843 67.7648L53.4944 68.0448L53.5147 68.2741L53.5518 68.4529L53.6092 68.5878L53.6869 68.6755L53.7815 68.7227L53.8862 68.7126L54.0213 68.6654L54.1936 68.5878L54.3388 68.5406L54.4706 68.5136L54.5753 68.5035L54.7577 68.5406L54.9198 68.6081L55.0752 68.6823L55.2576 68.7598L55.3623 68.7902L55.4873 68.7969L55.6292 68.7902L55.8014 68.7598L56.3486 68.6553L56.5581 68.5878L56.7506 68.4934L56.933 68.3483L57.1053 68.1662L57.2404 67.9773L57.335 67.8053L57.3822 67.6602L57.3924 67.5354L57.362 67.4207L57.3451 67.2892L57.3248 67.134L57.3046 66.9822L57.2978 66.8001L57.2877 66.618V66.1963L57.3248 65.3092L57.3924 64.4019L57.4397 63.9499L57.487 63.5215L57.5444 63.0999L57.6018 62.7086L57.6322 62.5264L57.6694 62.3544L57.6998 62.1925L57.7369 62.0576L57.7639 61.9328L57.8045 61.8181L57.8315 61.7237L57.872 61.6461L57.9936 61.4268L58.1389 61.2278L58.2807 61.0356L58.4361 60.8635L58.6084 60.7016L58.7807 60.5465L58.9732 60.4149L59.1623 60.3002L59.5474 60.0776L59.8818 59.8786L60.1689 59.6762L60.4189 59.4941H60.5236L60.5608 59.5244L60.6013 59.5514L60.6182 59.602L60.6385 59.6661V59.8314L60.6283 59.8786L60.6182 59.9359L60.6013 60.0203L60.581 60.1248L60.5439 60.2395L60.5135 60.3845L60.4763 60.5363L60.4257 60.7084L60.3412 61.0929L60.2737 61.4943L60.2061 61.9227L60.1487 62.3814L60.1115 62.8503L60.1014 63.3191L60.1318 63.7981L60.196 64.2669L60.2466 64.4963L60.3041 64.7155L60.3682 64.9179L60.4662 65.1169L60.5709 65.2991L60.6857 65.4711L60.8209 65.633L60.9729 65.7882L61.1451 65.9197L61.3478 66.0344L61.5775 66.1221L61.8241 66.1693L62.0943 66.1963H62.3915L62.7057 66.1795L63.0502 66.1221L63.2799 66.0648L63.5096 65.9771L63.7291 65.8624L63.942 65.7207L64.3608 65.4037L64.7661 65.0495L65.5498 64.2939L65.7525 64.1151L65.9416 63.9398L66.124 63.788L66.3166 63.653L66.4483 63.5586L66.5733 63.4641L66.6712 63.3764L66.7658 63.3022L66.8334 63.2247L66.8908 63.1572L66.9279 63.0897L66.9583 63.0324L66.9854 62.9649L67.0259 62.8806L67.0732 62.7558L67.1374 62.6209L67.215 62.4489L67.3029 62.26L67.4076 62.0373L67.4992 61.8464L67.4988 61.8552L67.519 62.2971L67.5562 62.7254L67.6102 63.1639L67.7048 63.5552L67.8298 63.9296L67.9919 64.2669L68.1743 64.6042L68.3871 64.9112L68.627 65.1574L68.8837 65.3699L69.1708 65.5116L69.4782 65.6195L69.816 65.6667H70.1706L70.5523 65.6195L70.7178 65.579L70.8698 65.5217L71.032 65.4542L71.1941 65.3699L71.3562 65.2654L71.5319 65.1405L71.694 65.0056L71.8561 64.8538L72.1939 64.5165L72.5013 64.1792L72.7884 63.8183L73.0654 63.4439L73.3356 63.0695L73.5721 62.6985L73.8018 62.3342L74.0247 61.9733L74.1193 61.8012L74.2139 61.6461L74.3017 61.5145L74.376 61.3796L74.4435 61.275L74.501 61.1705L74.5584 61.0828L74.6091 61.0153L74.7273 61.3155L74.8624 61.5651L75.0043 61.7945L75.1596 61.9935L75.3116 62.1655L75.4839 62.3106L75.6562 62.4354L75.8386 62.5197L76.1933 62.6445L76.531 62.7423L76.8384 62.7997H77.1255L77.4025 62.7423L77.6626 62.6681L77.9193 62.5804L78.1794 62.4758L78.4294 62.351L78.6658 62.2161L78.9056 62.0643L79.1353 61.9024L79.5778 61.5651L79.9798 61.2109L80.3513 60.8365L80.6891 60.4453L80.9886 60.0697L81.0404 60.1215L81.1451 60.2361L81.2701 60.3879L81.4795 60.6274L81.6991 60.8467L81.9389 61.0389L82.1787 61.2008L82.4287 61.3358L82.6854 61.4504L82.9624 61.5381L83.2427 61.6022L83.5298 61.6427L83.8169 61.6697H84.1041L84.3912 61.6528L84.6682 61.6225L84.9553 61.5651L85.2322 61.4977L85.5194 61.4032L85.7963 61.3088L86.0564 61.1941L86.2861 61.0693L86.4787 60.9242L86.5834 60.8467L86.6982 60.7421L86.8401 60.6274L86.9955 60.4959L87.1677 60.3407L87.3569 60.1788L87.5697 59.9865L87.7994 59.7875L88.1912 59.3861L88.529 58.9544L88.8262 58.4956L89.0762 58.0167L89.4883 57.0621L89.6606 56.6135L89.8227 56.1817L89.9578 55.7803L90.0895 55.4093L90.2044 55.072L90.3192 54.7752L90.3766 54.6537L90.4341 54.5458L90.5016 54.4615L90.5692 54.394L90.6367 54.3468L90.711 54.3266H90.7887L90.8766 54.3468L91.1434 54.2894H91.3731L91.4576 54.3266L91.5251 54.3738L91.5656 54.4412L91.5825 54.5289V54.6335L91.5656 54.7583L91.5251 54.9L91.4879 55.072L91.4576 55.2541L91.4204 55.4666L91.3832 55.696L91.3427 55.9422L91.3055 56.2188L91.2684 56.5089L91.0184 58.5327L90.9982 58.8026L90.9441 59.0387L90.836 59.2613L90.7043 59.4603L90.6266 59.5582L90.5591 59.6728L90.5016 59.8044L90.4543 59.9393L90.407 60.1012L90.3766 60.2631L90.3496 60.4453L90.3294 60.6476H90.3564L90.407 60.6679L90.4712 60.6949L90.5489 60.7151L90.6536 60.7522L90.7786 60.7826L90.9137 60.8197L91.1907 60.8871L91.4204 60.9175H91.6231L91.7751 60.8871L91.7919 60.8669L91.8223 60.85L91.8595 60.8096L91.9169 60.7725L91.9845 60.7252L92.0622 60.6578L92.1567 60.5903L92.3594 60.4385L92.5688 60.2665L92.7884 60.0742L93.0181 59.8651L93.4876 59.4165L93.9098 58.9375L94.0922 58.7081L94.2341 58.4788L94.3388 58.2663L94.4064 58.0673V57.9694L94.3895 57.8177V57.4635L94.4098 57.3218L94.4672 57.1498L94.5415 56.9305L94.6293 56.7113L94.6969 56.5089L94.7543 56.3268L94.7914 56.1649L94.984 54.4446L95.1157 53.3248L95.1833 52.8087L95.2508 52.3128L95.3083 51.844L95.3758 51.392L95.4332 50.9737L95.4907 50.5825L95.5447 50.2249L95.6122 49.8606L95.7271 49.186L95.7845 48.8689L95.8419 48.5721L95.8994 48.2955L95.9568 48.0291L96.0716 47.5501L96.1966 47.1217L96.3283 46.7372L96.4736 46.3999L96.6256 46.1031L96.781 45.8366L96.9532 45.5769L97.1424 45.3475L97.1998 44.9663V44.7943L97.1728 44.6391L97.1255 44.4975L97.0681 44.3727L97.0005 44.258L96.9127 44.1602L96.8181 44.086L96.7033 44.0185L96.5783 43.9612L96.4466 43.9241L96.2912 43.8937H95.9365L95.7372 43.9139L95.5244 43.9409L95.3049 43.9915L94.8658 44.1534L94.4334 44.231L94.3861 44.2479L94.3287 44.2782L94.2713 44.3153L94.1936 44.3727L94.0213 44.4772L93.8321 44.5751L93.6396 44.6493L93.4302 44.7741L93.3153 44.8618L93.1904 44.9562L93.0552 45.0608L92.9201 45.1856L92.7985 45.3205L92.6803 45.4622L92.5655 45.6072L92.481 45.7792L92.3932 45.9513L92.3189 46.1334L92.2615 46.3223L92.2142 46.5348L92.3121 47.6074L91.8899 47.2431L91.3258 46.6798L91.1265 46.5078L90.9137 46.3628L90.6942 46.2312L90.4543 46.1267L90.1875 46.0491L89.8902 45.9917L89.5525 45.9715H89.3802L89.1877 45.9917L88.985 46.0187L88.7756 46.0592L88.556 46.1165L88.3162 46.1739L88.0662 46.2582L87.8095 46.3459L87.4548 46.5078L87.1171 46.6798L86.8097 46.8721L86.5057 47.1015L86.2388 47.3207L85.999 47.5501L85.7794 47.7997L85.5768 48.0662L85.3944 48.3461L85.2322 48.6227L85.0904 48.9094L84.9553 49.2063L84.8404 49.5031L84.7458 49.8067L84.6682 50.1237L84.6107 50.4374L84.5432 50.9737L84.4857 51.4122L84.4587 51.8237V52.2083L84.5094 52.5456L84.5938 52.8593L84.7087 53.1561L84.8708 53.4158L85.0634 53.6452L85.2728 53.8442L85.4957 54.0264L85.7254 54.1781L85.9551 54.3131L86.2017 54.4176L86.4516 54.5053L86.7117 54.5627ZM89.1032 48.5283L89.2485 48.4338L89.3701 48.4102L89.5052 48.3731L89.6504 48.3529H89.7923L89.9375 48.4001L90.0794 48.4676L90.2314 48.562L90.3766 48.6868L90.6536 48.9836L90.9036 49.3209L91.1231 49.6582L91.3157 50.0495L91.4778 50.4543L91.5927 50.8557L91.6703 51.2571L91.7075 51.6585V52.0194L91.6703 52.1745L91.6231 52.3061L91.5555 52.414L91.4677 52.5085L91.3731 52.5759L91.2481 52.6333L91.0759 52.7007L90.9036 52.748L90.7313 52.7749L90.5793 52.7952H90.2719L90.1267 52.7648L89.9848 52.7277L89.718 52.6232L89.4781 52.4781L89.2653 52.2993L89.0762 52.0767L88.9107 51.8372L88.7688 51.5708L88.654 51.2841L88.5661 50.967L88.5087 50.6297L88.4817 50.2924V49.9753L88.5087 49.638L88.5492 49.4289L88.6067 49.2366L88.6742 49.0545L88.7587 48.9027L88.8634 48.7576L88.9782 48.6328L89.1032 48.5283ZM74.501 50.9198L74.5888 50.8793L74.7813 50.8759H75.1259L75.2711 50.9265L75.3859 50.9906L75.4805 51.0884L75.5481 51.2132L75.5954 51.3549L75.6528 51.6922L75.6731 52.0632L75.6528 52.4646L75.5954 52.9132L75.5008 53.3821L75.3961 53.8611L75.261 54.3502L75.1191 54.846L75.0414 55.0855L74.9739 55.3148L74.9063 55.5341L74.859 55.7365L74.8117 55.9152L74.7746 56.0974L74.7442 56.2593L74.7171 56.4043L74.6293 57.1599L74.4368 57.649L74.3996 57.9863L74.3118 58.3405L74.197 58.7419L74.0348 59.1331L73.8457 59.5244L73.6531 59.9089L73.2512 60.624L73.0485 60.9613L72.8492 61.2649L72.6567 61.5449L72.4743 61.7911L72.3898 61.9058L72.3223 62.0036L72.2547 62.0778L72.2074 62.1453L72.1703 62.1925L72.1399 62.233V62.2498H72.0352L71.9406 62.2296L71.8528 62.1824L71.7785 62.1048L71.7008 62.0002L71.6433 61.8687L71.5961 61.7034L71.5488 61.5145L71.4812 61.1131L71.4441 60.7286L71.4238 60.3576V59.9933L71.4913 59.3187L71.5859 58.6002L71.7278 57.8548L71.9102 57.0891L72.1129 56.3234L72.3324 55.5779L72.5621 54.8629L72.8019 54.1882L73.0485 53.5372L73.2985 52.9436L73.5349 52.3904L73.7849 51.9047L73.8997 51.6854L74.0146 51.4932L74.1294 51.3313L74.2341 51.1862L74.3287 51.0715L74.4165 50.9838L74.501 50.9198Z" fill="#203B70"/>
<path fill-rule="evenodd" clip-rule="evenodd" d="M45.864 56.8867L45.6039 57.3825L45.3742 57.8413L45.31 57.6288L45.2897 57.4669V57.2476L45.3201 56.8732L45.3674 56.5123L45.435 56.1379L45.5194 55.7668L45.614 55.4127L45.712 55.0754L45.8065 54.7583L45.9011 54.4514L45.9991 54.1748L46.0835 53.9252L46.1713 53.6958L46.2558 53.5069L46.3233 53.3517L46.3706 53.2371L46.401 53.1628V53.0751L46.3706 53.0077L46.3335 52.9234L46.2288 52.7311L46.0835 52.5321L45.9991 52.4241L45.9011 52.3398L45.7964 52.2521L45.6816 52.188L45.5566 52.1307L45.435 52.1003H45.1647L44.8979 52.1476L44.6479 52.1948L44.4284 52.2251L44.2359 52.2521L44.0636 52.2724H43.6988L43.6414 52.2993L43.5468 52.3567L43.4117 52.4241L43.0975 52.6063L42.7597 52.8154L42.3949 53.038L42.0572 53.2573L41.9119 53.3619L41.8072 53.4563L41.7498 53.5339L41.7228 53.6013V53.6688L41.7498 53.7261L41.8072 53.7835L41.895 53.8206L41.9693 53.8577L42.0268 53.915L42.0673 53.9757V54.0398L42.0403 54.2523L42.0099 54.367L41.9727 54.4986L41.9153 54.7482L41.8883 54.9573V56.5258L41.8579 56.6506L41.8376 56.7956L41.8106 56.9474L41.7802 57.1194L41.743 57.3016L41.6653 57.703L41.618 57.9323L41.5133 58.4214L41.3613 60.7252L40.8243 65.8287L40.4392 69.3198L39.9731 71.6809V72.2273L39.9528 72.7434L39.9123 73.2123L39.8481 73.6508L39.7704 74.0522L39.7028 74.4266L39.6353 74.7639L39.5779 75.0708L39.5306 75.3474L39.5035 75.5936V76.0051L39.5508 76.1603L39.6353 76.2817L39.7805 76.3796L39.9629 76.447L40.3176 76.5516L40.6892 76.6764L41.0844 76.8181L41.4931 76.98L41.7059 77.0575L41.895 77.1149L42.0876 77.1621L42.27 77.2026L42.4422 77.2195H42.7665L42.9118 77.2026L42.9388 77.1722L43.0063 77.125L43.1043 77.0677L43.2259 76.9901L43.3711 76.9057L43.5333 76.8079L43.871 76.5786L44.0264 76.4639L44.1413 76.3593L44.2088 76.2817L44.2257 76.2177V76.0524L44.1953 75.968L44.1683 75.8736L44.1379 75.7589L44.0805 75.5363L44.0332 75.3575L44.0129 75.2226V74.7436L43.9859 74.3625L43.9454 73.9712V73.5968L44.0433 72.143L44.0129 71.4684L44.2899 70.2339L44.0906 69.6908V69.6503L44.1075 69.6031L44.148 69.5458L44.2257 69.4783L44.3 69.4142L44.3676 69.3737L44.425 69.3366L44.4622 69.3164H44.6919L44.827 69.3366L44.979 69.3737L45.1411 69.4041L45.3235 69.4243L45.5262 69.4041L45.7559 69.3737L45.9281 69.3265L46.1274 69.259L46.2254 69.2321L46.2997 69.2017L46.3571 69.1848H46.3875L47.1239 69.1174H47.1441L47.1712 69.0971L47.2083 69.06L47.2657 69.0229L47.3333 68.9656L47.4211 68.888L47.5157 68.8138L47.6204 68.716L47.8332 68.5338L48.0055 68.382L48.1372 68.2674L48.2352 68.1797L48.7689 67.7783L49.2384 67.1779L50.1571 66.1929L50.3497 65.714L50.4645 65.4576L50.5692 65.2181L50.6672 64.9888L50.7719 64.7763L50.8563 64.5773L50.9442 64.385L51.0219 64.213L51.0962 64.0612L51.2414 63.7542L51.3563 63.4675L51.461 63.1909L51.5488 62.9211L51.6805 62.3881L51.7852 61.8215L51.8224 61.5044L51.8596 61.1401L51.89 60.7286L51.9271 60.2699L51.9474 59.8584L51.9643 59.457V58.3641L51.944 58.0099L51.9136 57.6726L51.8764 57.3353L51.8292 57.0284L51.7717 56.7315L51.7042 56.4549L51.6366 56.1885L51.5522 55.9287L51.4644 55.6893L51.3596 55.4599L51.2549 55.2508L51.0421 55.1833L50.8428 55.1158L50.6706 55.0484L50.5253 54.9843L50.3936 54.9168L50.2889 54.8392L50.2011 54.7718L50.1335 54.6976L50.0761 54.6301L49.9984 54.5829L49.9241 54.5323L49.8261 54.5154L49.7214 54.4952H49.4748L49.3296 54.5154L48.8499 54.62L48.421 54.7516L48.0291 54.8966L47.6745 55.0686L47.3569 55.2609L47.0698 55.4599L46.803 55.6791L46.5733 55.9085L46.3605 56.148L46.1713 56.3875L46.0058 56.6371L45.864 56.8867ZM44.6175 67.1745L44.4385 67.134L44.5399 66.3245L44.6277 65.5521L44.7324 64.8032L44.8371 64.078L44.8945 63.7407L44.9418 63.4034L44.979 63.1066L45.0296 62.8199L45.0567 62.5433L45.0871 62.2937V62.0643L45.1073 61.8451L45.1276 61.6798L45.1749 61.4808L45.2424 61.2312L45.337 60.9546L45.5768 60.3609L45.8437 59.7605L45.9889 59.4637L46.3031 58.9274L46.4753 58.6778L46.6476 58.4687L46.803 58.3169L46.955 58.2089L47.0327 58.1819L47.1002 58.1617H47.232L47.3671 58.2123L47.4921 58.2966L47.6238 58.4214L47.7319 58.5732L47.8062 58.7452L47.8467 58.9274V59.1298L47.5292 62.7524L47.2894 64.0038L47.2151 64.3411L47.1374 64.6784L47.0597 64.982L46.9854 65.2788L46.8976 65.5588L46.8199 65.8253L46.7354 66.0749L46.6476 66.3043L46.5632 66.5235L46.4652 66.7056L46.3706 66.8676L46.2862 67.0092L46.1882 67.1172L46.0936 67.2015L45.9991 67.2588L45.9011 67.2993L45.5971 67.2386L45.1951 67.4308L45.0769 67.3735L44.9553 67.2993L44.8776 67.2588L44.7628 67.2116L44.6175 67.1745Z" fill="#203B70"/>
<path fill-rule="evenodd" clip-rule="evenodd" d="M28.9445 72.0115L29.2214 71.8091L29.495 71.6101L29.7754 71.3908L30.0625 71.1581L30.3496 70.9118L30.6266 70.6353L30.9036 70.3384L31.1806 70.0011L31.4508 69.6638L31.7075 69.3265L31.9271 68.9521L32.1196 68.5811L32.2919 68.1864L32.427 67.785L32.5452 67.3769L32.6128 66.9552L32.6601 66.5269L32.6972 66.0007V65.3969L32.6702 65.1203L32.6297 64.864L32.5722 64.6144L32.4979 64.3749L32.4 64.1556L32.2851 63.9532L32.1534 63.7745L31.9811 63.6294L31.7784 63.5147L31.5488 63.4372L31.2819 63.3899H30.9847L30.6469 63.4102L30.3091 63.4675L29.7822 63.5822L29.2822 63.707L28.8127 63.8419L28.3837 63.9937L27.9717 64.1657L27.5967 64.3479L27.2589 64.5368L26.9448 64.7493L26.3706 65.2114L25.7761 65.7173L25.1917 66.2806L24.5972 66.8844V66.4358L24.6445 65.9467L24.7222 65.4576L24.8269 64.9618L25.087 63.9499L25.364 62.9582L25.516 62.459L25.6714 61.9901L25.9213 61.0963L26.0632 60.6679L26.1882 60.2732L26.2828 59.9022L26.3503 59.5649V59.5278L26.3233 59.4705L26.2287 59.3153L26.1882 59.2681V59.2411L26.3976 58.5361V58.1617L26.3706 58.0099L26.33 57.8649L26.2726 57.7401L26.1983 57.6456L26.1105 57.5579L26.0058 57.4938L25.7862 57.396L25.5835 57.3488L25.3843 57.3218L25.2019 57.3387L25.0093 57.369H24.5398L24.1378 57.5141L23.746 57.5917L23.3069 57.7704L22.9049 57.9728L22.5672 58.2022L22.2598 58.4585L21.9997 58.7452L21.8004 59.0522L21.6383 59.3895L21.5234 59.7538L21.4086 60.1754L21.493 60.3171L21.5606 60.4723L21.6079 60.624L21.645 60.7859L21.6653 60.958V61.3223L21.645 61.5145L21.618 61.7135L21.5268 62.1756L21.4694 62.4252L21.412 62.6917L21.3444 62.9784L21.2701 63.2753L21.1924 63.5923L21.108 63.9296L21.0201 64.2669L20.9256 64.6481L20.8377 65.0495L20.6452 65.9096L20.5405 66.3717L20.4459 66.8574L20.3513 67.3735L20.2534 67.9199L20.1689 68.4934L20.0912 69.0938L20.0237 69.7346L19.9561 70.4093L19.8987 71.1075L19.8413 71.8327V72.1464L19.8717 72.4837L19.8919 72.6557V73.1516L19.8548 73.3135L19.8278 73.4113V73.4754L19.8075 73.5327V73.7621L19.8649 73.9341L19.9595 74.0893L20.1047 74.241L20.277 74.376L20.4493 74.5008L20.6317 74.6053L20.8208 74.6998L21.0235 74.7875L21.216 74.8617L21.3951 74.919L21.5876 74.9595L21.743 74.9966L21.8578 75.0168H22.0368L22.1416 74.9764L22.2497 74.919L22.3746 74.8549L22.5064 74.7774L22.6516 74.6829L22.7935 74.5682L22.9556 74.4434L23.111 74.3186L23.2427 74.2039L23.3576 74.1162L23.4555 74.0319L23.5231 73.9746L23.5805 73.9172L23.6075 73.8869L23.6548 73.7317L23.7426 73.5799L23.8744 73.4281L24.0399 73.273L24.1345 73.2055L24.2594 73.1583L24.4013 73.1313H24.7391L24.9384 73.1583L25.1478 73.2156L25.3876 73.2831L25.7896 73.246L26.2118 73.1785L26.6509 73.074L27.1204 72.9289L27.3603 72.8446L27.6237 72.7468L27.8737 72.6321L28.1304 72.5005L28.4006 72.3555L28.6675 72.1835L28.9445 72.0115ZM28.8094 65.5082H28.9546L29.1269 65.5419L29.2518 65.5824L29.3498 65.6465L29.4342 65.7443L29.4917 65.859L29.5322 66.0007V66.3751L29.495 66.6888L29.4275 67.0261L29.3126 67.3634L29.1708 67.7344L28.9985 68.1156L28.806 68.5001L28.5966 68.8711L28.3567 69.2354L28.0966 69.5727L27.8298 69.91L27.5325 70.2136L27.2252 70.4902L26.911 70.7297L26.5732 70.922L26.2355 71.0569L25.8977 71.1412H25.7727L25.668 71.121L25.5903 71.0737L25.5329 70.9962L25.5025 70.8815V70.7499L25.5227 70.5779L25.5599 70.3755L25.6849 69.9168L25.8571 69.4378L26.0801 68.942L26.3469 68.4158L26.6307 67.8693L26.9684 67.3634L27.3062 66.8777L27.671 66.4088L27.8534 66.1963L28.0257 66.0074L28.198 65.8523L28.3601 65.7275L28.5155 65.6229L28.6675 65.5554L28.8094 65.5082Z" fill="#203B70"/>
<path d="M36.3858 72.0789L35.8419 72.1531L35.2475 72.3353L35.1225 72.3757H34.8759L34.7611 72.3454L34.6462 72.3083L34.5381 72.2509L34.4537 72.17L34.349 72.0755L34.1666 71.8361L33.9943 71.5696L33.8423 71.2525L33.7072 70.9152L33.6025 70.5408L33.4944 70.1462L33.4167 69.7448L33.3593 69.3231L33.3221 68.9217L33.3018 68.5507V68.1965L33.3289 67.8795L33.3694 67.6231L33.4065 67.3263L33.4538 67.0092L33.5113 66.6719L33.6058 65.9265L33.7038 65.181L33.7511 64.8167L33.7882 64.4794L33.8355 64.1421L33.8761 63.8386L33.9031 63.5586L33.9335 63.3292L33.9538 63.137V63.0054L34.0112 62.604L34.099 62.1824L34.2138 61.7338L34.3557 61.275L34.6631 60.3474L34.9401 59.4468L35.0651 59.0185L35.1596 58.6069L35.2373 58.2157L35.2846 57.8413V57.4972L35.2643 57.3454L35.2272 57.1903L35.1799 57.0587L35.1123 56.9339L35.0347 56.8192L34.9401 56.7147L35.0752 56.5022V56.2053L35.1157 56.121L35.1731 56.0266L35.2576 55.9186L35.3724 55.7972L35.4873 55.6893L35.592 55.6151L35.6697 55.5746H36.1662L36.3588 55.4127L36.5614 55.2676L36.7607 55.1327L36.9803 55.0079L37.2201 54.9033L37.4903 54.7988L37.7943 54.7144L38.1321 54.647H38.1693L38.2267 54.674L38.3111 54.7212L38.6962 54.9809L38.963 55.2204L39.2231 55.497L39.4528 55.7938L39.5373 55.9456L39.5947 56.0974L39.615 56.2526V56.5393L39.5846 56.6438L39.5474 56.7686L39.5001 56.9103L39.4427 57.0722L39.3751 57.2645L39.2974 57.477L39.213 57.7063L39.1252 57.9425L39.0306 58.2022L38.9428 58.4788L38.7435 59.0623L38.5205 59.7032L38.301 60.3778L38.0814 61.0963L37.8517 61.8316L37.6119 62.6074L37.3822 63.3899L37.1728 64.1826L36.9803 64.9685L36.8181 65.7612L36.7404 66.1457L36.683 66.483L36.656 66.8203V67.107L36.6763 67.3668L36.7236 67.5961L36.7979 67.7951L36.906 67.957L37.0208 68.1021L37.1458 68.2168L37.2674 68.3112L37.3924 68.3888L37.5173 68.436L37.6525 68.4664H37.9193L38.0645 68.4192L38.2165 68.3517L38.3618 68.2539L38.507 68.1223L38.6489 67.9908L38.7942 67.8356L38.9462 67.6568L39.0914 67.4545L39.3684 67.043L39.6285 66.6517L39.8649 66.2773L40.0777 65.9231L40.1959 65.7612L40.2804 65.6195L40.3783 65.4947L40.4527 65.3902L40.5303 65.3025L40.5979 65.235L40.6553 65.1878L40.7026 65.1608H40.7499L40.7803 65.2181L40.8006 65.3025V65.6296L40.7803 65.859L40.7499 66.1356L40.7026 66.4493L40.5776 67.6467L40.5574 67.6973L40.527 67.7614L40.4797 67.8491L40.4121 67.9537L40.3378 68.0886L40.25 68.2404L40.1453 68.4124L39.9257 68.7868L39.2502 69.5795L38.9124 69.9168L38.0713 70.8916L37.5815 71.2289L37.3822 71.4009L37.1998 71.5628L37.0377 71.6978L36.8823 71.8124L36.7404 71.8968L36.6155 71.9642L36.5006 72.0115L36.3858 72.0789Z" fill="#203B70"/>
<path d="M14.3051 53.8644L14.2004 53.8746L14.0652 53.8543L13.9234 53.8172L13.7511 53.7599L13.5687 53.6924L13.3762 53.6621L13.1836 53.6519L12.9945 53.6823L12.7546 53.7498L12.5047 53.8442L12.2649 53.9791L12.025 54.1512L11.7886 54.3502L11.5488 54.5896L11.3089 54.8662L11.0691 55.1732L10.8394 55.5071L10.6097 55.8512L10.3902 56.2256L10.1774 56.6067L9.95782 57.0081L9.75853 57.4298L9.55587 57.8683L9.36333 58.3202L9.00191 59.2478L8.66413 60.2024L8.36012 61.1873L8.07976 62.2026L7.95816 62.7086L7.84332 63.1943L7.74536 63.6834L7.66092 64.1523L7.58323 64.611L7.5258 65.0596L7.47851 65.4981L7.43798 65.9197L7.43123 66.1424V66.4088L7.44811 66.7057L7.46838 67.0497L7.5258 67.7952L7.56296 68.1864L7.61363 68.5878L7.72847 69.3805L7.88047 70.1664L7.95816 70.5307L8.05274 70.8646L8.13719 71.1513L8.24528 71.3908L8.47497 71.8968L8.96137 72.1633L9.21133 72.3184L9.42075 72.4702L9.60316 72.6119L9.75853 72.767L9.89027 72.9019L10.0051 73.0166L10.12 73.0908L10.2179 73.1381L10.4375 73.2156L10.657 73.273L10.8867 73.3202L11.1164 73.3506L11.3461 73.3607L11.5859 73.3506L11.8258 73.3303L12.0723 73.2932L12.4101 73.2055L12.7546 73.0908L13.0992 72.9391L13.4437 72.7569L13.7984 72.5275L14.1598 72.2678L14.5246 71.9811L14.8996 71.6472L15.2036 71.3605L15.5109 71.0636L15.8082 70.7499L16.0953 70.416L16.3621 70.0888L16.6222 69.7852L16.8621 69.4884L17.0816 69.2017L17.2809 68.9319L17.4734 68.6823L17.6356 68.463L17.791 68.2741L17.9159 68.1088L18.0105 67.9942L18.0882 67.92L18.1456 67.8896L18.2774 67.8694H18.5273L18.757 67.9301L18.8617 67.9874L18.9597 68.0448L19.0543 68.119L19.2164 68.2741L19.3312 68.4158L19.3887 68.5305L19.4089 68.635L19.3887 68.7969L19.3616 68.969L19.311 69.1511L19.2468 69.3333L19.1691 69.5356L19.0745 69.7347L18.9664 69.9573L18.8448 70.1765L18.5645 70.6353L18.2605 71.1041L17.9328 71.5797L17.5714 72.0486L17.1965 72.5174L16.8148 72.9863L16.0007 73.8936L15.5886 74.3153L15.1968 74.7065L14.832 75.0506L14.4875 75.3575L14.3051 75.5296L14.1024 75.7016L13.8659 75.8567L13.5957 76.0085L13.0215 76.2851L12.4371 76.5448L11.8426 76.7641L11.2785 76.953L11.0218 77.0306L10.809 77.0879L10.6266 77.125L10.4949 77.1554L10.1098 77.2228L9.76529 77.2802L9.45115 77.3173L9.16404 77.3375L8.89382 77.3476L8.6371 77.3375L8.39728 77.3072L8.15745 77.2599L7.92776 77.1925L7.70821 77.1183L7.47851 77.0204L7.24882 76.9058L7.009 76.7742L6.75904 76.6089L6.49219 76.4302L6.20508 76.2278L5.68828 75.8062L5.21876 75.3946L4.80667 74.9764L4.43173 74.5446L4.10746 74.123L3.82035 73.7216L3.58052 73.3303L3.39137 72.9492L3.21572 72.423L3.07385 71.8597L2.96914 71.266L2.88132 70.6454L2.83403 69.9843L2.80701 69.2962L2.81376 68.5777L2.84416 67.8323L2.95901 66.6078L3.12114 65.3935L3.3407 64.1894L3.62781 62.9953L3.96222 61.808L4.35742 60.624L4.79654 59.457L5.30321 58.2899L5.64099 57.6119L5.99566 56.9508L6.36722 56.3403L6.74891 55.7466L7.14411 55.1934L7.56296 54.6773L7.99532 54.1781L8.43443 53.7194L8.88706 53.291L9.34644 52.9166L9.81258 52.5726L10.2821 52.2859L10.7516 52.0362L11.2313 51.8372L11.721 51.6753L12.2074 51.5606L12.302 51.5404L12.427 51.5202L12.5722 51.5033L12.7445 51.4831L12.9438 51.4628L13.1667 51.446L13.4066 51.4257L13.6734 51.4055L14.2274 51.3785H14.7948L15.3691 51.3886L15.9534 51.4257L16.5074 51.4932L17.0343 51.5876L17.5309 51.7226L17.9903 51.8946L18.2031 51.989L18.3753 52.1037L18.5273 52.2184L18.6422 52.3634L18.7367 52.5051L18.7942 52.667L18.8246 52.839V53.0313L18.8144 53.1865L18.7874 53.3956L18.757 53.6519L18.7097 53.969L18.6793 54.1309L18.6624 54.276L18.6422 54.4075L18.6219 54.5222L18.6151 54.62L18.605 54.6942L18.5949 54.7516V54.8021L18.5746 55.1563L18.5476 55.4801L18.5273 55.7938L18.5172 56.0907L18.5003 56.3774L18.4902 56.6371L18.48 56.8867V57.1059L18.4699 57.3151V57.6794L18.48 57.8413L18.4902 57.9762V58.0976L18.5071 58.1954L18.5172 58.2798L18.5273 58.3371L18.5375 58.4248V58.5193L18.5273 58.6441L18.5071 58.7385L18.48 58.8363L18.4395 58.9308L18.3753 59.0353L18.2976 59.1433L18.2031 59.2478L18.0983 59.3524L17.9734 59.4671L17.8484 59.5716L17.7234 59.6661L17.6187 59.7437L17.5207 59.8111L17.4363 59.8685L17.3586 59.9056L17.291 59.9359L17.2336 59.9528L16.8891 60.0506L16.5648 60.1754L16.4196 60.2395L16.298 60.3002L16.1899 60.3373L16.1223 60.3542H16.0852L16.0176 60.3475L15.9129 60.3272L15.7812 60.307L15.6258 60.28L15.4535 60.2395L15.0988 60.1451L14.4402 59.9258L14.3051 59.8685L14.2172 59.8213L14.1598 59.7639L14.1429 59.7066L14.1531 59.5345L14.1429 59.3625L14.1125 59.1804L14.0754 58.9881L14.0551 58.8734L14.045 58.7385L14.0382 58.5766V58.3877L14.045 58.1651L14.0551 57.929L14.0754 57.649L14.1024 57.3522L14.4098 54.5795V54.4379L14.3895 54.276L14.3524 54.0837L14.3051 53.8644Z" fill="#203B70"/>
</svg>
