<svg width="150" height="34" viewBox="0 0 150 34" fill="none" xmlns="http://www.w3.org/2000/svg">
<path fill-rule="evenodd" clip-rule="evenodd" d="M107.009 0H107.497H107.984L108.462 0.0467952L108.939 0.0969327L109.406 0.170468L109.865 0.257373L110.322 0.350963L110.771 0.464609L111.216 0.598309L111.644 0.738694L112.073 0.89245L112.501 1.06292L112.908 1.24341L113.315 1.44062L113.704 1.6512L114.09 1.86846L113.982 1.99882L113.904 2.15258L113.845 2.31302L113.824 2.48348L113.845 2.66398L113.894 2.82442L113.982 2.97483L114.09 3.09851L114.22 3.20212L114.382 3.28903L114.55 3.33582L114.74 3.35588H114.869L114.996 3.3258L115.115 3.28903L115.227 3.23221L115.326 3.15533L115.413 3.08179L115.494 2.98486L115.554 2.88124L116.052 3.29906L116.515 3.75029L116.965 4.2149L117.382 4.68954L117.779 5.19092L118.147 5.71235L118.498 6.25383L118.796 6.802L119.077 7.38026L119.316 7.96854L119.523 8.56351L119.691 9.18187L119.821 9.80692L119.923 10.4487L119.982 11.0938L120 11.7623V12.1233L119.902 12.9856L119.733 13.848L119.523 14.7104L119.256 15.5727L119.045 15.5059L118.838 15.4491L118.607 15.4223H118.379H118.13L117.891 15.4591L117.663 15.5159L117.445 15.5928L117.235 15.6864L117.038 15.8L116.859 15.9337L116.691 16.0842L116.529 16.2446L116.389 16.4251L116.27 16.6056L116.171 16.8128L116.091 17.0234L116.031 17.2407L115.992 17.468V17.7053L116.014 18.0395L116.094 18.3537L116.203 18.6479L116.361 18.9219L116.55 19.1659L116.768 19.3932L117.028 19.5838L117.305 19.7442L116.631 20.8439L115.905 21.9536L115.112 23.0332L114.297 24.1329L113.462 25.2226L112.588 26.3122L110.809 28.4815L110.69 28.3177L110.55 28.1473L110.392 27.9935L110.213 27.8732L110.013 27.7762L109.795 27.7027L109.578 27.6526H109.339H109.167H108.999L108.851 27.6994L108.69 27.7495L108.553 27.813L108.412 27.8999L108.283 27.9835L108.174 28.0904L108.065 28.2041L107.963 28.3278L107.886 28.4581L107.816 28.5918L107.756 28.7322L107.714 28.886V29.0464V29.2068L107.735 29.4809L107.802 29.7383L107.921 29.9656L108.072 30.1829L108.251 30.3734L108.462 30.5238L108.7 30.6475L108.956 30.731L107.616 32.3622L106.272 34L105.57 33.1543L104.868 32.2753L104.166 31.3661L103.464 30.4569L102.78 29.5378L102.103 28.6252L101.457 27.7261L100.84 26.8637L100.959 26.827L101.089 26.7802L101.317 26.6264L101.524 26.4392L101.703 26.2019L101.864 25.9278L101.984 25.6136L102.071 25.2794L102.113 24.9184V24.6644V24.417L102.092 24.1797L102.054 23.9424L102.005 23.7251L101.934 23.5079L101.843 23.3073L101.745 23.1201L101.626 22.9296L101.496 22.7591L101.345 22.5987L101.176 22.455L100.987 22.3146L100.78 22.1909L100.559 22.0873L100.313 21.9904L99.9131 21.8767L99.506 21.8099L99.1095 21.7831H98.7305L98.3795 21.8199L98.2286 21.84L98.0883 21.8767L97.969 21.9135L97.8707 21.9636L97.79 22.0104L97.7303 22.0572L97.3127 21.3553L96.9267 20.6868L96.5758 20.0617L96.26 19.4534L95.9722 18.8685L95.709 18.2902L95.4809 17.722L95.2598 17.1638L95.0633 16.5956L94.8843 16.0173L94.7229 15.4223L94.565 14.804L94.4071 14.1656L94.2702 13.4971L94.1404 12.7884L94 12.0197V11.7723L94.0211 11.1038L94.0807 10.4353L94.179 9.80024L94.3088 9.17519L94.4773 8.56016L94.6878 7.9652L94.9264 7.37692L95.1931 6.80869L95.323 7.05269L95.4739 7.27998L95.6423 7.50727L95.8213 7.71785L96.0213 7.91506L96.2284 8.10558L96.4495 8.27605L96.6881 8.43649L96.9337 8.57019L97.1934 8.70389L97.4531 8.80751L97.7303 8.9011L98.0181 8.96795L98.3094 9.02477L98.6076 9.05486H98.9165H99.3341L99.7411 8.99803L100.138 8.89442L100.517 8.76072L100.868 8.60028L101.219 8.39972L101.538 8.17243L101.826 7.92509L102.096 7.64097L102.324 7.34015L102.534 7.0059L102.713 6.67165L102.84 6.31066L102.952 5.93295L103.012 5.54522V5.14746V4.8433L102.97 4.54915L102.921 4.26504L102.84 3.98093L102.742 3.71687L102.622 3.44947L102.482 3.20547L102.324 2.95812L102.155 2.73083L101.966 2.52359L101.755 2.31302L101.538 2.12584L101.31 1.95537L101.061 1.80161L100.801 1.66123L100.534 1.53755L101.261 1.18659L102.015 0.882422L102.791 0.618364L103.598 0.401101L104.433 0.240661L105.286 0.103618L106.153 0.02674L107.009 0ZM115.971 9.07491H116.14L116.312 9.09497L116.459 9.14176L116.617 9.18856L116.757 9.25541L116.898 9.34231L117.028 9.42587L117.147 9.52949L117.245 9.64314L117.344 9.75678L117.424 9.89048L117.494 10.0342L117.554 10.1746L117.593 10.325L117.614 10.4788V10.6392V10.7996L117.593 10.9601L117.554 11.1138L117.494 11.2542L117.424 11.3879L117.344 11.5216L117.245 11.642L117.147 11.7556L117.028 11.8626L116.898 11.9461L116.757 12.033L116.617 12.0965L116.459 12.1467L116.312 12.1935L116.14 12.2102H115.971H115.803L115.635 12.1935L115.484 12.1467L115.326 12.0965L115.185 12.033L115.048 11.9461L114.919 11.8626L114.81 11.7556L114.698 11.642L114.599 11.5216L114.519 11.3879L114.448 11.2542L114.389 11.1138L114.35 10.9601L114.329 10.7996V10.6392V10.4788L114.35 10.325L114.389 10.1746L114.448 10.0342L114.519 9.89048L114.599 9.75678L114.698 9.64314L114.81 9.52949L114.919 9.42587L115.048 9.34231L115.185 9.25541L115.326 9.18856L115.484 9.14176L115.635 9.09497L115.803 9.07491H115.971ZM114.827 14.0887H114.968L115.087 14.1254L115.206 14.1823L115.305 14.2658L115.385 14.3628L115.456 14.4664L115.494 14.58V14.7137V14.8441L115.456 14.9678L115.385 15.0714L115.305 15.1683L115.206 15.2519L115.087 15.3087L114.968 15.3488H114.827H114.691L114.561 15.3087L114.448 15.2519L114.35 15.1683L114.262 15.0714L114.203 14.9678L114.161 14.8441V14.7137V14.58L114.203 14.4664L114.262 14.3628L114.35 14.2658L114.448 14.1823L114.561 14.1254L114.691 14.0887H114.827ZM104.889 13.4436H105.03L105.159 13.4803L105.268 13.5372L105.366 13.6241L105.458 13.7177L105.517 13.8213L105.556 13.9449V14.0786V14.209L105.517 14.3226L105.458 14.4296L105.366 14.5232L105.286 14.6134L105.177 14.6703L105.047 14.7104H104.907H104.77L104.651 14.6703L104.514 14.6134L104.412 14.5299L104.335 14.4363L104.265 14.3293L104.222 14.2157V14.0853V13.9516L104.265 13.828L104.335 13.7243L104.412 13.6308L104.514 13.5438L104.633 13.487L104.752 13.4503L104.889 13.4436ZM109.037 15.3956H109.177L109.297 15.4324L109.416 15.4992L109.518 15.5761L109.595 15.6697L109.665 15.7833L109.704 15.897V16.0307V16.161L109.665 16.2847L109.595 16.3883L109.518 16.4853L109.416 16.5688L109.297 16.6256L109.177 16.6657H109.037H108.9L108.77 16.6256L108.662 16.5688L108.56 16.4853L108.472 16.3883L108.412 16.2847L108.374 16.161V16.0307V15.897L108.412 15.7833L108.472 15.6697L108.56 15.5761L108.662 15.4992L108.77 15.4324L108.9 15.3956H109.037ZM98.3655 11.3311H98.5059L98.6322 11.3679L98.7445 11.4247L98.8428 11.5116L98.9305 11.6052L98.9901 11.7088L99.0323 11.8325V11.9662V12.0965L98.9901 12.2102L98.9305 12.3171L98.8428 12.4107L98.7445 12.4976L98.6322 12.5545L98.5059 12.5912H98.3655H98.2251L98.1058 12.5545L97.9865 12.4976L97.8882 12.4107L97.8075 12.3171L97.7373 12.2102L97.6987 12.0965V11.9662V11.8325L97.7373 11.7088L97.8075 11.6052L97.8882 11.5116L97.9865 11.4247L98.1058 11.3679L98.2251 11.3311H98.3655ZM100.492 14.8641H100.692L100.882 14.8942L101.075 14.9477L101.254 15.0045L101.422 15.0814L101.58 15.175L101.731 15.2786L101.871 15.4023L102.001 15.536L102.11 15.6764L102.208 15.8268L102.289 15.9906L102.348 16.161L102.398 16.3415L102.426 16.5187V16.7092V16.8997L102.398 17.0802L102.348 17.2607L102.289 17.4312L102.208 17.5916L102.11 17.742L102.001 17.8925L101.871 18.0261L101.731 18.1398L101.58 18.2434L101.422 18.3403L101.254 18.4239L101.075 18.4807L100.885 18.5275L100.696 18.5576H100.496H100.299L100.11 18.5275L99.9201 18.4807L99.7411 18.4239L99.5727 18.3403L99.4148 18.2434L99.2533 18.1398L99.1235 18.0261L98.9937 17.8925L98.8849 17.742L98.7866 17.5916L98.6954 17.4312L98.6357 17.2607L98.5866 17.0802L98.5585 16.8997V16.7092V16.5187L98.5866 16.3415L98.6357 16.161L98.6954 15.9906L98.7866 15.8268L98.8849 15.6764L98.9937 15.536L99.1235 15.4023L99.2533 15.2786L99.4148 15.175L99.5727 15.0814L99.7411 15.0045L99.9201 14.9477L100.11 14.9009L100.299 14.8708L100.492 14.8641ZM105.247 22.1508L105.458 22.1709L105.647 22.2277L105.826 22.3213L105.974 22.4349L106.093 22.5786L106.195 22.7491L106.254 22.9296L106.272 23.1268L106.254 23.3274L106.195 23.5079L106.093 23.6783L105.974 23.8187L105.826 23.9324L105.647 24.026L105.458 24.0828L105.247 24.1028L105.04 24.0828L104.851 24.026L104.672 23.9324L104.521 23.8187L104.394 23.6783L104.293 23.5079L104.233 23.3274L104.215 23.1268L104.233 22.9296L104.293 22.7491L104.394 22.5786L104.521 22.4349L104.672 22.3213L104.851 22.2277L105.04 22.1709L105.247 22.1508ZM111.736 21.0712H111.904L112.073 21.0912L112.22 21.128L112.381 21.1848L112.522 21.2517L112.659 21.3252L112.789 21.4221L112.908 21.5258L113.006 21.6327L113.108 21.7564L113.185 21.8901L113.255 22.0204L113.315 22.1742L113.357 22.3146L113.375 22.475V22.6388V22.7993L113.357 22.9697L113.315 23.1201L113.255 23.2639L113.185 23.3976L113.108 23.5279L113.006 23.6382L112.908 23.7519L112.789 23.8555L112.659 23.9424L112.522 24.026L112.381 24.0928L112.22 24.1396L112.073 24.1864L111.904 24.2064H111.736H111.564L111.395 24.1864L111.237 24.1396L111.087 24.0928L110.95 24.026L110.809 23.9424L110.679 23.8555L110.56 23.7519L110.451 23.6382L110.364 23.5145L110.272 23.3842L110.202 23.2505L110.153 23.1068L110.104 22.9564L110.083 22.7959V22.6355V22.4717L110.104 22.3112L110.153 22.1709L110.202 22.0171L110.272 21.8867L110.364 21.753L110.451 21.6294L110.56 21.5258L110.679 21.4221L110.809 21.3252L110.95 21.2517L111.087 21.1848L111.237 21.128L111.395 21.0912L111.564 21.0712H111.736ZM109.037 8.08219H109.356L109.676 8.1223L109.974 8.19583L110.262 8.30279L110.543 8.43315L110.799 8.57688L111.048 8.75737L111.265 8.94455L111.476 9.16516L111.655 9.39245L111.813 9.64648L111.953 9.93394L112.062 10.218L112.143 10.5022L112.181 10.803L112.202 11.1072L112.181 11.4113L112.143 11.7155L112.062 11.9996L111.953 12.2737L111.823 12.5378L111.666 12.7851L111.487 13.0224L111.276 13.2296L111.058 13.4302L110.809 13.6007L110.553 13.7511L110.272 13.8748L109.985 13.9784L109.686 14.0553L109.367 14.092L109.048 14.1121L108.732 14.092L108.412 14.0553L108.114 13.9784L107.816 13.8748L107.546 13.7511L107.279 13.6007L107.04 13.4302L106.812 13.2296L106.612 13.0224L106.423 12.7851L106.275 12.5378L106.135 12.2737L106.026 11.9996L105.945 11.7155L105.907 11.4113L105.886 11.1072L105.907 10.803L105.945 10.5022L106.026 10.218L106.135 9.93394L106.275 9.67656L106.423 9.42253L106.612 9.19524L106.812 8.97464L107.04 8.78746L107.279 8.60696L107.546 8.46323L107.816 8.33287L108.114 8.22591L108.412 8.15238L108.732 8.11227L109.037 8.08219ZM107.339 1.08966H107.588L107.826 1.12643L108.055 1.18325L108.272 1.26013L108.483 1.35372L108.679 1.46736L108.858 1.60106L109.03 1.75147L109.188 1.91192L109.328 2.09241L109.448 2.27291L109.546 2.48014L109.627 2.69072L109.686 2.90798L109.725 3.13527V3.37259V3.60991L109.686 3.8372L109.627 4.05446L109.546 4.2617L109.448 4.46225L109.328 4.64943L109.188 4.8199L109.03 4.98368L108.858 5.13409L108.679 5.26779L108.483 5.38144L108.272 5.47503L108.055 5.55191L107.826 5.60873L107.588 5.6455H107.339H107.089L106.851 5.60873L106.612 5.55191L106.391 5.47503L106.184 5.38144L105.984 5.26779L105.795 5.13409L105.626 4.98368L105.468 4.8199L105.328 4.64943L105.209 4.46225L105.11 4.2617L105.03 4.05446L104.97 3.8372L104.931 3.60991V3.37259V3.13527L104.97 2.90798L105.03 2.69072L105.11 2.48014L105.209 2.27291L105.328 2.09241L105.468 1.91192L105.626 1.75147L105.795 1.60106L105.984 1.46736L106.184 1.35372L106.391 1.26013L106.612 1.18325L106.851 1.12643L107.089 1.08966H107.339Z" fill="#FAC900"/>
<path fill-rule="evenodd" clip-rule="evenodd" d="M143.841 28.821C143.427 28.7223 143.175 28.3219 143.279 27.9268L145.995 17.5586C146.082 17.2276 146.395 16.9966 146.752 17C147.11 17.0035 147.418 17.2406 147.498 17.5732L149.98 27.9413C150.075 28.3384 149.815 28.7338 149.399 28.8245C148.983 28.9153 148.569 28.6669 148.474 28.2699L147.589 24.5753H145.75L144.778 28.2845C144.675 28.6796 144.255 28.9198 143.841 28.821ZM146.136 23.1004H147.236L146.711 20.9069L146.136 23.1004Z" fill="white"/>
<path fill-rule="evenodd" clip-rule="evenodd" d="M141.995 17.3718C142.322 17.6325 142.367 18.0975 142.093 18.4104L138.588 22.4249L142.155 27.8716C142.381 28.217 142.271 28.672 141.909 28.8878C141.548 29.1037 141.071 28.9987 140.845 28.6533L138.409 24.9342V28.2625C138.409 28.6697 138.063 28.9999 137.636 28.9999C137.209 28.9999 136.864 28.6697 136.864 28.2625V17.9383C136.864 17.531 137.209 17.2009 137.636 17.2009C138.063 17.2009 138.409 17.531 138.409 17.9383V20.3261L140.906 17.4662C141.179 17.1533 141.667 17.1111 141.995 17.3718Z" fill="white"/>
<path d="M129.909 17.2009C130.336 17.2009 130.682 17.531 130.682 17.9383V21.6255H133.773V17.9383C133.773 17.531 134.119 17.2009 134.545 17.2009C134.972 17.2009 135.318 17.531 135.318 17.9383L135.318 28.2625C135.318 28.6697 134.972 28.9999 134.545 28.9999C134.119 28.9999 133.773 28.6697 133.773 28.2625L133.773 23.1004H130.682L130.682 28.2625C130.682 28.6697 130.336 28.9999 129.909 28.9999C129.482 28.9999 129.136 28.6697 129.136 28.2625V17.9383C129.136 17.531 129.482 17.2009 129.909 17.2009Z" fill="white"/>
<path fill-rule="evenodd" clip-rule="evenodd" d="M121.409 20.1506C121.409 18.5215 122.793 17.2009 124.5 17.2009C126.207 17.2009 127.591 18.5215 127.591 20.1506V26.0501C127.591 27.6793 126.207 28.9999 124.5 28.9999C122.793 28.9999 121.409 27.6793 121.409 26.0501V20.1506ZM124.5 18.6758C123.646 18.6758 122.955 19.3361 122.955 20.1506V26.0501C122.955 26.8647 123.646 27.525 124.5 27.525C125.353 27.525 126.045 26.8647 126.045 26.0501V20.1506C126.045 19.3361 125.353 18.6758 124.5 18.6758Z" fill="white"/>
<path fill-rule="evenodd" clip-rule="evenodd" d="M116 17.2009H120.636C121.063 17.2009 121.409 17.531 121.409 17.9383C121.409 18.3456 121.063 18.6758 120.636 18.6758H117.545V28.2625C117.545 28.6697 117.199 28.9999 116.773 28.9999C116.346 28.9999 116 28.6697 116 28.2625V17.2009Z" fill="white"/>
<path fill-rule="evenodd" clip-rule="evenodd" d="M87.9002 18.0267L87.6393 17.9531L87.3907 17.8509L87.1575 17.7208L86.9308 17.5748L86.7264 17.4021L86.525 17.2128L86.3357 16.995L86.163 16.763L86.0125 16.5044L85.8977 16.2213L85.8367 15.9103L85.809 15.5881L85.8192 15.2488L85.8883 14.8722L85.9892 14.4739L86.1252 14.0546L86.2889 13.5413L86.4024 13.2442L86.5368 12.9474L86.6855 12.6668L86.8532 12.3964L87.0411 12.1295L87.2339 11.8738L87.445 11.6316L87.677 11.3896L87.9267 11.1645L88.1901 10.9588L88.4701 10.7766L88.7753 10.609L89.1192 10.4381L89.4598 10.3042L89.827 10.1954L90.2093 10.0996L90.4807 10.059L90.7447 10.0206L90.9938 10.0069L91.2227 9.98954L91.4385 9.98693L91.6452 9.99633L91.8405 10.0105L92.012 10.041L92.3447 10.1205L92.6304 10.2293L92.8821 10.3524L93.1021 10.4972L93.2971 10.6649L93.4829 10.8446L93.6504 11.0483L93.7993 11.2589L94.1109 11.6997L94.4658 12.1312L94.561 11.0633L94.6463 10.8635L94.7375 10.6887L94.8442 10.5234L94.9626 10.3705L95.0776 10.2169L95.218 10.0952L95.3612 9.97732L95.5065 9.86667L95.6634 9.76833L95.8168 9.68981L95.9582 9.6194L96.0883 9.55381L96.3193 9.4686L96.5243 9.42997L96.7302 9.3676L96.9205 9.29565L97.0082 9.25322L97.0721 9.22703L97.1347 9.20745L97.1848 9.1993L97.6293 9.19976L98.0956 9.11882L98.3233 9.10808L98.54 9.11928L98.7421 9.13469L98.9237 9.16694L99.0952 9.1974L99.2445 9.2546L99.369 9.31423L99.4831 9.39249L99.5854 9.47887L99.6662 9.56827L99.7361 9.6796L99.7827 9.80386L99.8174 9.93625L99.8391 10.0834L99.8381 10.2401L99.8072 10.4086L99.6815 10.7717L99.4519 10.963L99.2337 11.1869L99.0311 11.4204L98.8264 11.6842L98.6211 11.9889L98.4209 12.3422L98.2194 12.7397L98.019 13.1885L97.9139 13.4393L97.807 13.7001L97.6965 13.9806L97.5823 14.281L97.4645 14.6012L97.3467 14.9214L97.214 15.2663L97.0959 15.6069L96.9684 15.98L96.836 16.3795L96.6875 16.8102L96.5461 17.2593L96.3897 17.733L96.2297 18.2265L96.0675 18.7503L95.8972 19.3L95.3963 20.9508L95.3302 21.1028L95.2403 21.271L95.1367 21.4573L95.0098 21.6565L94.8964 21.8581L94.8083 22.0164L94.7627 22.1516L94.7263 22.3498L94.7142 22.4159L94.699 22.4985L94.6885 22.6501L94.671 22.7459L94.5679 22.9289L94.4255 23.1185L94.243 23.3181L94.0201 23.5105L93.5136 23.9049L92.9655 24.2613L92.6992 24.4255L92.446 24.575L92.2066 24.7065L91.9775 24.8193L91.8712 24.8687L91.7817 24.921L91.706 24.9553L91.6422 24.9815L91.5979 25.0146L91.5646 25.0257L91.5441 25.0425L91.3873 25.0454L91.1855 25.0096L90.9623 24.9392L90.6986 24.8242L90.5707 24.764L90.4518 24.7121L90.3542 24.6573L90.2805 24.6237L90.2214 24.5859L90.1746 24.5572L90.1477 24.5524L90.2042 24.3577L90.2639 24.1841L90.3233 24.0309L90.3994 23.8807L90.4708 23.7569L90.5516 23.6382L90.6395 23.5379L90.7344 23.4558L90.9014 23.2842L91.049 23.0852L91.1452 22.8635L91.2139 22.6028L91.8266 20.6649L91.9157 20.3873L92.0024 20.123L92.087 19.889L92.1653 19.6709L92.2405 19.4694L92.3035 19.2963L92.3714 19.1344L92.4372 19.0028L92.4765 18.8836L92.4952 18.7812L92.4942 18.6923L92.466 18.6191L92.4072 18.5609L92.3298 18.5096L92.2255 18.4911L92.1011 18.469L91.8251 18.478L91.7412 18.4426L91.6639 18.4289L91.5863 18.4356L91.5105 18.4699L91.4311 18.524L91.3487 18.5947L91.2721 18.6902L91.1931 18.799L91.0254 19.0694L90.8504 19.3795L90.6526 19.7196L90.4459 20.0888L90.2069 20.483L89.9547 20.8919L89.6686 21.3153L89.3728 21.754L89.0378 22.1789L88.6594 22.5757L88.2455 22.9388L87.7832 23.2627L87.5187 23.417L87.2723 23.5676L87.0548 23.6928L86.8554 23.8143L86.6771 23.9156L86.5152 24.0029L86.382 24.085L86.2638 24.1425L86.0461 24.2505L85.7949 24.3321L85.5153 24.3984L85.2226 24.442L84.9197 24.4837L84.6318 24.5008L84.3356 24.5062L84.0544 24.487L83.7655 24.4527L83.4796 24.402L83.1986 24.3248L82.92 24.2344L82.6523 24.122L82.3923 23.9872L82.1573 23.8295L81.9327 23.6531L81.723 23.4522L81.5187 23.2214L81.3395 22.9679L81.1741 22.6963L81.0769 22.5255L80.9933 22.3947L80.9381 22.3167L80.8977 22.272L80.883 22.2387L80.8951 22.1726L80.9139 22.0702L80.9544 21.9443L80.9992 21.6999L81.0404 21.4752L81.0786 21.2671L81.131 21.0956L81.1588 20.9436L81.2027 20.8184L81.2523 20.718L81.2657 20.6453L81.3321 20.5105L81.4034 20.3867L81.4711 20.2827L81.537 20.1887L81.5993 20.1144L81.6686 20.0585L81.736 20.0125L81.7999 19.9863L81.8772 20.0001L81.9344 20.0102L81.9629 20.063L81.978 20.151L81.9975 20.2534L82.034 20.3758L82.0996 20.5103L82.1897 20.6627L82.674 21.1274L82.813 21.2783L82.9269 21.4145L83.0326 21.539L83.1217 21.6401L83.1952 21.7316L83.247 21.809L83.2889 21.8642L83.3092 21.9054L83.334 21.9405L83.3811 21.9488L83.5291 21.9751L83.6165 21.9906L83.7262 21.9794L83.8555 21.9751L84.0003 21.9428L84.1721 21.9153L84.4584 21.8502L84.7416 21.764L85.0095 21.6478L85.2728 21.5001L85.529 21.3341L85.7732 21.1012L86.0027 20.8724L86.2156 20.6203L86.647 20.0488L87.0743 19.4424L87.4942 18.763L87.9002 18.0267ZM91.2668 12.3989L91.1052 12.4657L90.9619 12.546L90.8251 12.648L90.6948 12.7715L90.5834 12.9052L90.4834 13.0717L90.3917 13.2498L90.3138 13.4475L90.2262 13.7731L90.1692 14.0836L90.1355 14.4188L90.1321 14.7593L90.1625 15.0853L90.2253 15.3864L90.3187 15.6725L90.4405 15.9363L90.5888 16.1878L90.7685 16.4005L90.9813 16.585L91.2282 16.7346L91.3628 16.796L91.5019 16.8514L91.6432 16.8765L91.808 16.9058L91.963 16.9128L92.1393 16.9168L92.3194 16.901L92.503 16.8654L92.6378 16.8314L92.7441 16.782L92.8485 16.705L92.9351 16.6113L93.0059 16.4908L93.0708 16.3454L93.1017 16.1769L93.1356 15.9919L93.1708 15.5922L93.1656 15.1853L93.1234 14.7719L93.0347 14.3468L92.9133 13.9296L92.7553 13.5604L92.5671 13.1858L92.3446 12.8461L92.2224 12.6982L92.0881 12.5788L91.9589 12.4877L91.8228 12.4158L91.6815 12.3907L91.5333 12.3848L91.3921 12.3973L91.2668 12.3989Z" fill="white"/>
<path fill-rule="evenodd" clip-rule="evenodd" d="M74.4289 22.1331L74.3663 22.1902L74.2933 22.2659L74.2174 22.3582L74.1313 22.4487L74.0331 22.5677L73.922 22.681L73.7999 22.8162L73.6748 22.968L73.388 23.2821L73.0938 23.5983L72.7917 23.9198L72.4553 24.2388L72.1122 24.5565L71.7615 24.8592L71.3948 25.1352L70.9978 25.4059L70.8091 25.5259L70.6234 25.6294L70.4261 25.7205L70.2459 25.7943L70.0693 25.8482L69.8957 25.8856L69.7341 25.9149L69.562 25.9253L69.1735 25.9041L68.8203 25.8413L68.4925 25.7354L68.2058 25.5753L67.9454 25.3858L67.728 25.1323L67.5335 24.8487L67.3767 24.5105L67.2557 24.1479L67.1549 23.7888L67.0978 23.4L67.074 23.0001L67.099 22.5611L67.139 22.1349L67.1982 21.6986L67.302 21.2463L67.3857 20.9609L67.4696 20.6552L67.5672 20.3314L67.6783 20.01L67.7991 19.6732L67.9285 19.3278L68.0649 18.9631L68.2226 18.5954L68.3807 18.2073L68.5534 17.815L68.9202 16.9898L69.3055 16.1201L69.7314 15.1997L69.8076 15.0494L69.8975 14.8812L70.0112 14.6967L70.1466 14.4888L70.2869 14.2544L70.461 14.0056L70.6507 13.7289L70.856 13.4242L71.3136 12.8232L71.7999 12.2546L72.3224 11.7163L72.881 11.2083L73.1769 10.9777L73.4736 10.7609L73.7723 10.5717L74.0808 10.4048L74.3923 10.2588L74.7109 10.1312L75.0348 10.0318L75.3562 9.94557L75.6799 9.90411L75.991 9.91161L76.3072 9.96775L76.635 10.0737L76.952 10.2392L77.2628 10.4376L77.5628 10.6956L77.853 11.0064L77.9351 11.0891L78.0158 11.141L78.0862 11.174L78.1636 11.1877L78.2006 11.1943L78.2577 11.2044L78.325 11.2164L78.4124 11.2319L78.5066 11.2486L78.621 11.2689L78.7454 11.291L78.8867 11.3161L79.1927 11.3705L79.5089 11.4266L79.8216 11.4821L80.1525 11.5716L80.4804 11.6776L80.7828 11.7893L81.0536 11.9226L81.3099 12.0773L81.4241 12.1556L81.515 12.2467L81.5885 12.3383L81.6489 12.4445L81.6784 12.5487L81.6966 12.6576L81.676 12.77L81.6584 12.8658L81.6481 12.9219L81.5959 12.9979L81.52 13.0902L81.4165 13.2185L81.3149 13.3369L81.2472 13.4409L81.1969 13.507L81.1866 13.5632L81.0122 14.2486L80.9575 14.4333L80.8691 14.6496L80.7677 14.8806L80.6519 15.1329L80.5044 15.4069L80.3395 15.7188L80.1545 16.027L79.9425 16.3681L79.731 16.7262L79.5261 17.0855L79.3396 17.4584L79.1614 17.8429L79.01 18.2322L78.8621 18.6221L78.7365 19.0228L78.6219 19.4391L78.5552 19.8025L78.5163 20.1845L78.5117 20.5691L78.5383 20.973L78.5735 21.16L78.6196 21.3251L78.6745 21.4611L78.7517 21.5703L78.8353 21.6636L78.9329 21.7184L79.0436 21.7586L79.168 21.7807L79.2676 21.7676L79.3685 21.748L79.4763 21.7092L79.5927 21.6616L79.724 21.5894L79.856 21.5139L79.9922 21.4153L80.1408 21.3053L80.7337 20.7999L81.3145 20.2651L81.5938 19.9736L81.8508 19.7088L82.0857 19.4503L82.307 19.2099L82.4068 19.1014L82.4913 19.0004L82.5755 18.9199L82.6365 18.8522L82.6872 18.8032L82.7226 18.7618L82.7583 18.7374L82.8222 18.7488L82.866 18.7941L82.8808 18.8649L82.8638 18.9574L82.8499 19.0334L82.8311 19.1358L82.8105 19.2481L82.7559 19.3749L82.6573 19.6473L82.5825 19.9036L82.5461 20.1018L82.4503 20.6237L82.44 20.6799L82.4077 20.7424L82.3651 20.8235L82.3077 20.9088L82.2299 21.011L82.1485 21.133L82.0491 21.2586L81.9426 21.4035L81.6802 21.698L81.2995 22.0125L80.9564 22.3302L80.5852 22.6497L80.1786 22.9732L79.7413 23.2742L79.2774 23.5501L78.7762 23.8022L78.5184 23.9202L78.2523 24.0264L77.9926 24.1168L77.7213 24.1948L77.4435 24.2512L77.1722 24.2917L76.8999 24.3184L76.6138 24.3256L76.3279 24.2749L76.0321 24.1643L75.7134 24.0088L75.3827 23.8239L75.2162 23.709L75.0671 23.5564L74.9217 23.3838L74.8012 23.1885L74.6823 22.9661L74.5823 22.7164L74.4926 22.448L74.4289 22.1331ZM76.2305 12.2022L76.1358 12.2263L76.0402 12.2741L75.937 12.3445L75.8222 12.4401L75.6919 12.5636L75.5484 12.7019L75.3995 12.8699L75.2458 13.0643L74.9096 13.4959L74.5747 13.9958L74.2191 14.5331L73.8566 15.1271L73.4966 15.7454L73.1393 16.4052L72.7867 17.0964L72.4473 17.8105L72.1281 18.5282L71.8528 19.2332L71.6295 19.9202L71.441 20.5689L71.3755 20.9257L71.329 21.2927L71.2969 21.6759L71.292 22.081L71.3051 22.2743L71.3225 22.4446L71.356 22.5836L71.4146 22.6997L71.4747 22.7888L71.5536 22.8506L71.6441 22.8871L71.7484 22.9057L71.7514 22.8891L71.789 22.8549L71.8345 22.8152L71.8937 22.7575L71.9743 22.6967L72.0591 22.6129L72.1638 22.5155L72.3897 22.3066L72.6317 22.0664L72.8847 21.8043L73.1471 21.5098L73.4092 21.1982L73.6759 20.8805L73.9367 20.5379L74.1954 20.1882L74.4272 19.8336L74.6137 19.4608L74.7648 19.1294L74.8624 18.8056L75.142 18.3606L75.3653 17.6362L75.4182 17.4989L75.4776 17.3457L75.5473 17.1739L75.6266 17.0071L75.71 16.8173L75.8167 16.6145L75.9252 16.4018L76.0456 16.181L76.276 15.7204L76.4984 15.2653L76.6888 14.8147L76.8672 14.3722L77.005 13.943L77.0973 13.5534L77.1439 13.1864L77.1473 12.8459L77.1257 12.6988L77.0808 12.5646L77.0043 12.4521L76.9014 12.369L76.7659 12.2938L76.6045 12.2651L76.4228 12.2329L76.2305 12.2022Z" fill="white"/>
<path fill-rule="evenodd" clip-rule="evenodd" d="M58.0009 17.9198L61.0997 15.9082L61.3232 15.5419L61.5232 15.209L61.6756 14.9086L61.7944 14.6397L61.8882 14.3937L61.9783 14.1675L62.0498 13.9483L62.1042 13.7464L62.1965 13.3569L62.2751 12.9854L62.3198 12.7988L62.3742 12.597L62.4546 12.3861L62.5447 12.1599L62.6498 11.9091L62.7619 11.6766L62.8668 11.4837L62.9652 11.3067L63.0717 11.1619L63.1931 11.03L63.3348 10.9016L63.5054 10.7852L63.681 10.68L63.8863 10.5834L64.1023 10.4853L64.3451 10.3919L64.6177 10.3073L64.9314 10.2061L65.2852 10.0949L65.6824 9.97442L65.8271 10.0376L66.1784 10.1103L66.6196 10.6014L66.743 10.7427L66.8572 10.8585L66.9677 10.9565L67.0638 11.0384L67.1578 11.1131L67.2465 11.1595L67.3291 11.2015L67.4031 11.2146L67.4685 11.2365L67.534 11.2584L67.5756 11.2964L67.6041 11.3493L67.6259 11.4009L67.6239 11.4688L67.62 11.5465L67.6048 11.6291L67.1636 12.1034L66.8129 12.8223L66.6568 13.1425L66.5039 13.4463L66.3631 13.7215L66.2378 13.9687L66.119 14.2L66.0123 14.4028L65.9111 14.5759L65.823 14.7342L65.6635 15.0163L65.5175 15.2633L65.3892 15.4895L65.2635 15.6821L65.1437 15.8621L65.0269 16.0631L64.8096 16.5089L64.7551 16.6357L64.689 16.7877L64.6177 16.949L64.5545 17.1425L64.4747 17.35L64.3947 17.578L64.3116 17.8225L64.2215 18.0863L64.1942 18.1974L64.1564 18.2896L64.1193 18.3785L64.0885 18.4515L63.9303 18.9351L63.7989 19.386L63.7311 19.5854L63.6763 19.7701L63.5839 20.1222L63.5399 20.3054L63.5191 20.4756L63.5083 20.6477L63.5156 20.8162L63.5253 20.9714L63.5583 21.1137L63.6019 21.2545L63.6669 21.3922L63.7423 21.5114L63.8207 21.614L63.9144 21.7091L64.0101 21.7738L64.1178 21.8305L64.2386 21.8724L64.3698 21.8957L64.508 21.8998L64.6076 21.8867L64.7185 21.8689L64.8346 21.8418L64.9611 21.796L65.2225 21.6582L65.4992 21.4754L66.0677 21.0646L66.3395 20.8707L66.5944 20.6738L66.8323 20.4943L67.0466 20.3481L67.2371 20.2182L67.4042 20.1217L67.468 20.0955L67.5307 20.0759L67.5659 20.0924L67.5992 20.1188L67.6109 20.1686L67.619 20.2382L67.6038 20.3208L67.5844 20.4266L67.4347 20.8639L67.232 21.6466L67.0746 21.8609L66.9303 22.0604L66.8089 22.2299L66.7007 22.3846L66.6125 22.5054L66.543 22.6193L66.4875 22.6947L66.4484 22.756L66.4079 22.8068L66.3587 22.8663L66.2894 22.9222L66.2082 22.9863L66.1007 23.0422L65.9874 23.1108L65.846 23.1812L65.6979 23.2504L65.4819 23.3485L65.273 23.4649L65.0531 23.6033L64.8192 23.7425L63.9031 24.344L63.4359 24.6192L62.9618 24.8557L62.7245 24.9568L62.4853 25.0303L62.2408 25.0756L62.0018 25.0912L61.6484 25.0864L61.3326 25.0474L61.0366 24.9948L60.7724 24.9206L60.5354 24.8308L60.3224 24.7043L60.1413 24.5561L59.9934 24.3968L59.8699 24.218L59.7645 24.0355L59.6811 23.8467L59.6095 23.6498L59.5478 23.4376L59.5202 23.228L59.5025 23.0031L59.4933 22.7695L59.5136 22.299L59.5694 21.8245L59.6638 21.3671L59.7851 20.9145L59.9247 20.4753L60.069 20.0677L60.2084 19.6865L60.3616 19.3248L60.4429 19.1653L60.5072 19.0232L60.5636 18.8865L60.6212 18.7808L60.6602 18.6819L60.6921 18.6023L60.7125 18.548L60.7311 18.5035L60.7469 18.4176L60.7608 18.3416L60.7521 18.2753L60.7444 18.2227L60.7089 18.1891L60.6774 18.1528L60.6303 18.1445L60.5731 18.1343L60.2915 18.2685L59.9692 18.416L59.6005 18.5518L59.1771 18.7017L58.9681 18.7806L58.7528 18.8754L58.5533 18.9969L58.3527 19.125L58.1671 19.2661L57.9913 19.4293L57.8109 19.5985L57.6504 19.7918L57.5961 19.8606L57.5522 19.9483L57.4912 20.0534L57.4419 20.1709L57.3807 20.2965L57.3213 20.4497L57.2534 20.6116L57.1904 20.7846L57.0629 21.1577L56.9299 21.5605L56.8058 21.9717L56.6775 22.406L56.4471 23.2827L56.2507 24.145L56.1749 24.558L56.1523 24.7381L56.1262 24.9177L56.1191 25.07L56.1114 25.2255L56.1046 25.3574L56.1143 25.4751L56.0817 25.5955L56.0086 25.7292L55.8835 25.881L55.715 26.0421L55.5107 26.19L55.3031 26.2998L55.0944 26.3583L54.8737 26.3873L54.3101 26.393L54.1331 26.3923L53.9906 26.3738L53.8674 26.3451L53.7686 26.2968L53.6009 26.1886L53.4595 26.0885L53.3102 25.9937L53.1353 25.9251L53.0292 25.9165L52.8932 25.9197L52.7401 25.9402L52.5546 25.9858L52.4116 26.0081L52.3055 25.9995L52.2198 25.9365L52.1582 25.8369L52.1253 25.6946L52.1204 25.513L52.1415 25.2847L52.1817 25.0087L52.25 24.6934L52.3256 24.3384L52.4096 23.9371L52.5105 23.5013L52.6164 23.0187L52.7431 22.4988L52.8748 21.932L53.0185 21.3196L53.4838 19.8058L53.8532 18.7013L54.0351 18.1264L54.2228 17.5389L54.4117 16.9448L54.5924 16.3765L54.7628 15.8268L54.9295 15.297L55.0913 14.7935L55.2364 14.3247L55.3659 13.8837L55.4815 13.4813L55.5329 13.2959L55.5757 13.1193L55.6149 12.9626L55.6409 12.8205L55.6646 12.6917L55.6852 12.5793L55.6945 12.4718L55.6996 12.3874L56.0368 11.8367L56.1552 11.6838L56.3051 11.5671L56.4807 11.4618L56.6829 11.3817L56.7856 11.3522L56.8696 11.3296L56.934 11.3001L56.986 11.2821L57.0266 11.2688L57.0385 11.2607L57.0403 11.2508L57.0302 11.249L57.0631 11.3537L57.1268 11.423L57.2195 11.4668L57.3406 11.4883L57.63 11.4817L57.9497 11.4429L58.2984 11.3786L58.6384 11.2855L58.8019 11.2463L58.9348 11.2222L59.0577 11.1962L59.1488 11.1919L59.2347 11.1969L59.3185 11.2323L59.4078 11.2754L59.4968 11.339L59.589 11.4236L59.6876 11.5298L59.7831 11.6525L59.8851 11.7968L59.9758 11.946L60.0577 12.0867L60.1211 12.214L60.1678 12.3383L60.1943 12.4589L60.2158 12.5685L60.215 12.6673L60.1981 12.7598L60.1227 13.0193L60.0027 13.2948L59.8497 13.5985L59.6634 13.9134L59.5616 14.0898L59.4484 14.2709L59.3451 14.4743L59.2247 14.6951L59.1007 14.9358L58.977 15.1935L58.8463 15.4705L58.7144 15.7541L58.6394 15.8977L58.5787 16.02L58.4715 16.2261L58.3972 16.4039L58.3119 16.6037L58.283 16.7043L58.2419 16.8335L58.1702 17.1107L58.1292 17.2774L58.0852 17.4606L58.0451 17.6786L58.0009 17.9198Z" fill="white"/>
<path fill-rule="evenodd" clip-rule="evenodd" d="M45.8902 13.8556L46.2013 13.4469L46.5494 13.0073L46.7355 12.7879L46.9452 12.5727L47.1766 12.3716L47.4315 12.1747L47.7014 11.9906L48.0066 11.8231L48.3282 11.6789L48.6789 11.5467L49.063 11.441L49.4792 11.3682L49.93 11.3152L50.4263 11.2976L50.5746 11.3034L50.699 11.3255L50.8201 11.347L50.9207 11.3854L51.0152 11.4192L51.0801 11.4819L51.149 11.5419L51.1941 11.6181L51.248 11.7027L51.3233 11.7843L51.4136 11.8788L51.5327 11.9682L51.6658 12.0566L51.8252 12.1532L52.0115 12.2545L52.2112 12.3582L52.2779 12.5815L52.3409 12.8247L52.3853 13.0748L52.4227 13.3441L52.4421 13.617L52.4597 13.8998L52.4635 14.2007L52.4554 14.5097L52.4318 14.8466L52.4014 15.1824L52.3579 15.5328L52.2973 15.8632L52.1615 16.6032L52.0725 16.9933L51.9784 17.3928L51.8589 17.8355L51.7547 18.2332L51.6522 18.5834L51.5582 18.8874L51.3521 19.4239L51.1252 19.9225L50.9892 20.1713L50.8352 20.4237L50.6694 20.6842L50.4696 20.9591L50.3683 21.0947L50.26 21.2494L50.138 21.4222L50.0182 21.6022L49.8757 21.7918L49.737 21.9991L49.5896 22.2152L49.4292 22.4459L49.1514 22.881L48.0596 23.6832L47.4842 24.1882L46.8806 24.487L46.7673 24.5556L46.6155 24.6446L46.4167 24.7628L46.1721 24.9036L46.0503 24.9809L45.9427 25.0368L45.8414 25.0973L45.7638 25.1415L45.6999 25.1677L45.6563 25.1975L45.6257 25.2125L45.6056 25.2089L44.8602 25.1448L44.83 25.1394L44.7698 25.1458L44.6903 25.1624L44.5879 25.1715L44.3774 25.2024L44.1974 25.2181L43.9632 25.2073L43.7578 25.1913L43.5798 25.1392L43.4238 25.0808L43.2791 25.0176L43.1482 24.9739L43.044 24.9554L42.9195 24.9333L42.8789 24.9465L42.815 24.9727L42.7405 25.0004L42.655 25.05L42.5655 25.1024L42.5148 25.1514L42.4895 25.1946L42.4823 25.2343L42.5831 25.8014L42.0854 26.9615L41.9944 27.6276L41.6356 29.0342L41.5683 29.4009L41.5383 29.7913L41.4967 30.1693L41.4282 30.5426L41.4106 30.6385L41.4065 30.7742L41.4215 30.9576L41.4387 31.1858L41.4483 31.3035L41.4582 31.4008L41.4734 31.4888L41.4612 31.5548L41.4527 31.6011L41.4473 31.6308L41.4437 31.6506L41.4153 31.7104L41.3341 31.7745L41.201 31.8566L41.0256 31.9414L40.6481 32.1063L40.4691 32.1735L40.3093 32.2304L40.1743 32.2849L40.0664 32.3237L39.9907 32.358L39.9583 32.383L39.8107 32.3738L39.6492 32.3452L39.4878 32.3165L39.3193 32.2695L39.1449 32.1976L38.9617 32.1173L38.7837 32.0277L38.5857 31.9141L38.2079 31.6833L37.8399 31.4747L37.4923 31.2867L37.158 31.1216L36.9885 31.0233L36.8614 30.9018L36.7992 30.768L36.78 30.6076L36.8139 30.4226L36.854 30.2046L36.9251 29.9682L37.0219 29.7057L37.1343 29.4152L37.2622 29.0968L37.3967 28.742L37.5462 28.3626L37.6889 27.9445L37.8136 27.4925L37.9265 26.9906L38.0247 26.4554L38.9133 24.2253L39.9242 20.8741L41.3762 15.9707L41.9417 13.7412L42.1338 13.2807L42.2221 13.0644L42.3001 12.8668L42.3716 12.685L42.4414 12.5132L42.5026 12.3501L42.5568 12.2062L42.603 12.0678L42.6557 11.9509L42.6745 11.8485L42.6915 11.756L42.7054 11.68L42.7175 11.6139L42.726 11.5677L42.7327 11.5313L42.7515 11.4289L42.803 11.1481L42.8358 10.9697L42.8667 10.8012L42.9182 10.5204L42.9376 10.4147L43.0021 10.2147L43.1042 9.98036L43.1648 9.85809L43.2157 9.75114L43.2808 9.54779L43.2923 9.48502L43.2629 9.41839L43.216 9.35208L43.1487 9.3026L43.0679 9.25073L43.021 9.18442L43.0044 9.12348L43.0165 9.0574L43.0556 8.99611L43.1267 8.93028L43.2479 8.85629L43.4113 8.77956L43.7871 8.62455L44.1903 8.471L44.5642 8.3259L44.9098 8.20305L45.0564 8.16086L45.1609 8.12142L45.2229 8.10514L45.2431 8.10873L45.3306 8.12425L45.4449 8.14456L45.5862 8.16964L45.7613 8.18028L45.9579 8.18789L46.182 8.19697L46.4393 8.19492L46.7135 8.19585L46.848 8.21973L46.9826 8.24362L47.0982 8.29485L47.2123 8.37311L47.3152 8.45618L47.4037 8.56059L47.486 8.6605L47.5507 8.78115L47.6596 9.00174L47.7293 9.20856L47.7511 9.29772L47.7693 9.36916L47.762 9.40881L47.7571 9.43524L47.7535 9.45506L47.7099 9.52236L47.6422 9.62633L47.547 9.76635L47.429 9.93642L47.3003 10.1455L47.1714 10.3751L47.0241 10.6287L46.8748 10.9126L46.7236 11.2064L46.5655 11.5194L46.4076 11.8496L46.2569 12.198L46.1223 12.5528L46.0103 12.8979L45.9128 13.2593L45.8958 13.3518L45.8734 13.474L45.8644 13.6361L45.8902 13.8556ZM43.2882 22.7916L43.4592 22.8629L43.5972 22.925L43.703 22.9915L43.7731 23.0449L43.8809 23.1391L43.9883 23.2161L44.423 23.0989L44.7148 23.2121L44.8196 23.1898L44.9241 23.1503L45.0334 23.0845L45.1504 22.9961L45.2599 22.8723L45.3832 22.7304L45.5135 22.5693L45.637 22.3695L45.7656 22.1604L45.8946 21.9309L46.0198 21.6836L46.1576 21.4249L46.2849 21.1474L46.4169 20.8638L46.5548 20.5471L46.6895 20.2299L47.1532 19.0467L48.1205 15.5547L48.1568 15.3565L48.1492 15.171L48.1062 14.9893L48.0258 14.8216L47.9171 14.676L47.8078 14.5714L47.6824 14.4979L47.5512 14.4746L47.4803 14.4825L47.3981 14.4952L47.2273 14.574L47.0453 14.6952L46.8362 14.8696L46.6198 15.0836L46.4218 15.3111L46.2107 15.5533L46.0127 15.8184L45.6391 16.3592L45.2936 16.8983L45.1497 17.1525L45.0376 17.385L44.9547 17.5715L44.9048 17.7298L44.8452 17.941L44.804 18.1656L44.7289 18.4047L44.6522 18.6708L44.5503 18.9427L44.4599 19.2268L44.3522 19.5488L44.2344 19.869L43.9998 20.5608L43.7609 21.2757L43.5346 22.0167L43.2882 22.7916Z" fill="white"/>
<path fill-rule="evenodd" clip-rule="evenodd" d="M27.2964 24.6801L26.9843 24.8293L26.6775 24.9488L26.3809 25.0701L26.0858 25.1644L25.8065 25.2479L25.537 25.316L25.2571 25.3652L25.0032 25.4054L24.5096 25.4645L24.0536 25.4892L23.6211 25.4807L23.2142 25.4459L22.9875 25.3375L22.7893 25.2443L22.5957 25.1826L22.4141 25.1504L22.2594 25.1229L22.1133 25.1242L21.9803 25.1484L21.874 25.1977L21.6813 25.3204L21.5229 25.4458L21.4082 25.5789L21.3332 25.7225L21.3008 25.7475L21.2333 25.7935L21.1558 25.8377L21.0431 25.903L20.913 25.9686L20.7612 26.0576L20.584 26.1524L20.4002 26.246L20.2383 26.3332L20.0767 26.4L19.9316 26.4527L19.7956 26.4934L19.6777 26.5304L19.5662 26.5516L19.472 26.5348L19.4518 26.5313L19.3879 26.5199L19.2772 26.4798L19.1291 26.416L18.9447 26.3423L18.7768 26.2545L18.5984 26.1478L18.4124 26.026L18.241 25.9001L18.0782 25.7654L17.9291 25.6127L17.7818 25.4501L17.6645 25.2758L17.5982 25.1071L17.5719 24.9285L17.6041 24.7534L17.6132 24.7038L17.6436 24.6512L17.6552 24.5885L17.6997 24.4974L17.7657 24.3454L17.7761 24.2893L17.7845 24.243L17.8033 24.1406L17.8276 24.0085L17.8549 23.8598L17.8656 23.6877L17.896 23.352L17.9524 23.0448L18.1399 22.3446L18.3226 21.671L18.5111 21.0222L18.6935 20.4064L18.8788 19.8321L19.066 19.2854L19.2617 18.7676L19.4486 18.2788L19.6301 17.8198L19.8174 17.3858L19.9938 16.9736L20.1637 16.5774L20.3233 16.1998L20.486 15.8432L20.6341 15.5284L20.7788 15.2129L20.9131 14.9161L21.0405 14.6385L21.1593 14.3697L21.2644 14.1189L21.3664 13.8845L21.4565 13.6583L21.5403 13.4481L21.6029 13.2579L21.6577 13.0732L21.6904 12.8948L21.7232 12.7164L21.7339 12.5444L21.726 12.3792L21.7062 12.2222L21.6668 12.0583L21.6082 11.9046L21.7983 11.5119L21.9782 11.1755L22.2002 10.8738L22.4538 10.6084L22.7643 10.3736L23.1165 10.1768L23.494 10.0119L23.9306 9.88474L24.4 9.78729L24.8041 9.78058L25.2304 9.70959L25.2775 9.71795L25.3346 9.72811L25.4994 9.75737L25.6979 9.7926L25.895 9.79691L26.0797 9.81264L26.2733 9.87431L26.4666 9.95639L26.6676 10.091L26.7604 10.1723L26.832 10.2737L26.889 10.3794L26.9238 10.5117L26.9381 10.661L26.9377 10.8144L26.905 10.9928L26.8704 11.1811L26.5352 11.8345L26.5303 11.861L26.5622 11.9144L26.5953 11.9987L26.6285 12.0831L26.6451 12.144L26.6384 12.1803L26.5105 12.4988L26.3497 12.8454L26.1543 13.2099L25.936 13.6043L25.5265 14.4356L25.2875 14.8673L25.0464 15.3294L24.5924 16.2517L24.1515 17.1968L23.9581 17.6639L23.7929 18.1292L23.6579 18.5999L23.5773 19.0392L24.2777 18.553L24.9608 18.1046L25.6437 17.7142L26.2985 17.3631L26.6495 17.2105L27.0198 17.0852L27.4258 16.9731L27.8671 16.8775L28.3215 16.8047L28.8132 16.7555L29.3334 16.7217L29.8787 16.7025L30.2253 16.7061L30.5653 16.746L30.8613 16.7986L31.1185 16.892L31.3332 17.0086L31.5144 17.1567L31.6599 17.3292L31.7589 17.5276L31.8369 17.7461L31.895 17.9782L31.926 18.2259L31.9383 18.4805L31.9326 18.7388L31.9098 19.0144L31.8564 19.3051L31.8012 19.6058L31.6697 20.1146L31.5456 20.5258L31.4025 20.9268L31.2115 21.3056L31.0048 21.6748L30.7623 22.0309L30.5039 22.3603L30.218 22.6882L29.9018 22.9731L29.5721 23.2557L29.2357 23.5371L28.9065 23.7788L28.581 24.0008L28.2509 24.1912L27.9232 24.3684L27.6046 24.5335L27.2964 24.6801ZM28.1632 18.4617L28.0186 18.4361L27.8689 18.4572L27.7054 18.4964L27.5319 18.5714L27.348 18.6649L27.1486 18.7865L26.9431 18.941L26.7233 19.1169L26.2758 19.5116L25.8522 19.9276L25.4249 20.3634L25.0442 20.8484L24.6839 21.3166L24.3728 21.7628L24.1152 22.2015L23.9083 22.6287L23.8349 22.8203L23.7838 22.9852L23.7602 23.1141L23.7698 23.2318L23.8131 23.3179L23.8819 23.3779L23.9826 23.4162L24.107 23.4383L24.4585 23.4154L24.8191 23.343L25.1899 23.2144L25.5458 23.0354L25.9015 22.8189L26.2521 22.5741L26.5784 22.2909L26.898 22.0065L27.2023 21.6921L27.4775 21.3658L27.7383 21.0232L27.9783 20.6804L28.1863 20.342L28.3613 20.032L28.4892 19.7136L28.5825 19.4129L28.6189 19.2147L28.6498 19.0462L28.6349 18.9003L28.5984 18.7778L28.5319 18.6671L28.4459 18.587L28.3287 18.5252L28.1632 18.4617ZM34.3814 26.211L33.8266 26.1876L33.2019 26.2608L33.0702 26.2784L32.9491 26.2569L32.8247 26.2348L32.7158 26.1848L32.6081 26.1281L32.5108 26.0528L32.4413 25.9586L32.354 25.8476L32.2154 25.5808L32.0918 25.2894L31.9974 24.9519L31.9235 24.5977L31.8865 24.2125L31.8499 23.8068L31.8446 23.4L31.8633 22.9769L31.8984 22.5772L31.9449 22.2102L32.0086 21.8633L32.0925 21.5576L32.1789 21.3137L32.2693 21.0295L32.3733 20.7273L32.4911 20.4071L32.7193 19.6937L32.9508 18.981L33.0634 18.6325L33.161 18.3087L33.2687 17.9867L33.3636 17.6966L33.4409 17.4272L33.5124 17.2079L33.5671 17.0232L33.5907 16.8943L33.7201 16.5113L33.8833 16.1139L34.0783 15.6948L34.302 15.2706L34.7748 14.4165L35.2124 13.5834L35.4139 13.1859L35.582 12.7996L35.7297 12.4301L35.8441 12.0718L35.8768 11.8934L35.9059 11.7348L35.913 11.5826L35.9039 11.424L35.8805 11.2868L35.8356 11.1527L35.7789 11.0266L35.7035 10.9075L35.8762 10.7232L35.9296 10.4325L35.9851 10.3571L36.0593 10.2747L36.1627 10.184L36.2989 10.0853L36.4327 9.99992L36.5503 9.94575L36.6349 9.91985L36.7022 9.93179L37.1293 10.0076L37.3501 9.88311L37.578 9.77688L37.8007 9.67997L38.0417 9.59655L38.2993 9.53654L38.5872 9.48191L38.905 9.45307L39.2535 9.44671L39.2905 9.45328L39.3428 9.48987L39.4184 9.55105L39.5188 9.64733L39.7551 9.8735L39.9778 10.1552L40.187 10.4721L40.3624 10.8034L40.4192 10.967L40.4491 11.1259L40.4414 11.2814L40.4141 11.4301L40.4038 11.4862L40.3898 11.5622L40.3408 11.6592L40.2813 11.7749L40.2088 11.9053L40.1225 12.0537L40.0207 12.2301L39.9051 12.4245L39.7798 12.6342L39.6499 12.8499L39.5091 13.0876L39.3719 13.3429L39.0686 13.8792L38.7314 14.4675L38.3916 15.0894L38.0438 15.7543L37.6829 16.4338L37.3047 17.1513L36.9354 17.8771L36.5844 18.6164L36.2514 19.3521L35.9475 20.0998L35.801 20.4627L35.6832 20.7829L35.5957 21.1085L35.5441 21.3893L35.5176 21.6472L35.5235 21.8802L35.5617 22.0883L35.6402 22.266L35.7285 22.4283L35.8323 22.5628L35.9364 22.6768L36.0469 22.7748L36.1629 22.8432L36.292 22.8968L36.4231 22.9201L36.5577 22.944L36.7108 22.9234L36.8743 22.8842L37.0365 22.8141L37.2047 22.7109L37.3696 22.6072L37.5421 22.4809L37.7256 22.3327L37.9066 22.1601L38.2564 21.8061L38.5857 21.4688L38.8884 21.1439L39.1639 20.8347L39.3108 20.697L39.4203 20.5732L39.5403 20.4683L39.6331 20.379L39.7262 20.3068L39.8056 20.2527L39.8712 20.2166L39.9232 20.1985L39.9702 20.2069L39.9902 20.2684L39.9952 20.3546L39.9692 20.4967L39.9364 20.6751L39.875 20.8961L39.795 21.1616L39.6916 21.4605L39.3519 22.6112L39.3226 22.6572L39.2808 22.7146L39.218 22.7921L39.1319 22.8826L39.0337 23.0016L38.919 23.1347L38.7838 23.2847L38.4979 23.6126L37.6827 24.2695L37.2858 24.5401L36.2731 25.3462L35.7248 25.5899L35.4954 25.7232L35.2847 25.8495L35.099 25.953L34.9237 26.0378L34.7673 26.0953L34.6307 26.1393L34.5079 26.1653L34.3814 26.211Z" fill="white"/>
<path fill-rule="evenodd" clip-rule="evenodd" d="M15.6695 4.46763L15.5634 4.45903L15.4325 4.41532L15.2979 4.3539L15.1367 4.26728L14.9672 4.16896L14.781 4.10519L14.5911 4.06123L14.3973 4.05752L14.1464 4.08119L13.8805 4.1295L13.6175 4.21925L13.3477 4.34533L13.0765 4.49844L12.7947 4.69059L12.5062 4.91909L12.2122 5.17732L11.9235 5.46376L11.633 5.76012L11.3471 6.088L11.0667 6.42369L10.7759 6.778L10.5017 7.15572L10.2211 7.54936L9.94813 7.958L9.42153 8.80259L8.91363 9.6778L8.4339 10.5887L7.97226 11.5335L7.76024 12.0076L7.55859 12.463L7.37314 12.9247L7.20479 13.369L7.04498 13.8045L6.90717 14.2337L6.78127 14.6548L6.66512 15.0606L6.61838 15.2775L6.57049 15.5385L6.53395 15.8322L6.49229 16.1727L6.41548 16.913L6.38215 17.3028L6.36045 17.7048L6.33233 18.5015L6.34241 19.2981L6.35429 19.6686L6.38844 20.0124L6.42099 20.3082L6.48557 20.5618L6.62333 21.098L7.05975 21.445L7.28074 21.6411L7.46198 21.8268L7.61813 21.9978L7.74495 22.1772L7.85187 22.3327L7.94561 22.4653L8.04662 22.5583L8.13567 22.6219L8.34034 22.7367L8.54864 22.8316L8.76886 22.9185L8.9921 22.9888L9.21899 23.0394L9.4596 23.0719L9.70203 23.0944L9.95422 23.1017L10.3063 23.0755L10.67 23.0241L11.0403 22.9364L11.4161 22.8189L11.8105 22.6569L12.217 22.4665L12.6318 22.2502L13.0651 21.9894L13.4194 21.7623L13.7788 21.5259L14.1311 21.2713L14.477 20.995L14.8015 20.7217L15.1151 20.4704L15.4072 20.222L15.6774 19.9801L15.9243 19.751L16.1609 19.5406L16.3617 19.3545L16.5504 19.197L16.7045 19.0572L16.8193 18.9616L16.91 18.9026L16.9726 18.8831L17.1074 18.8865L17.2319 18.9086L17.3563 18.9307L17.4652 18.9808L17.5741 19.0308L17.6681 19.1055L17.7553 19.179L17.8361 19.2684L17.9697 19.449L18.0586 19.608L18.0951 19.7305L18.0965 19.8365L18.0472 19.9915L17.9894 20.1552L17.9062 20.3247L17.8096 20.4917L17.6959 20.6762L17.5659 20.8544L17.4183 21.0533L17.2578 21.2465L16.8962 21.6463L16.5092 22.0517L16.0975 22.4596L15.6533 22.8549L15.1958 23.2478L14.7314 23.6395L13.7578 24.3843L13.2717 24.7244L12.8112 25.0383L12.3861 25.3108L11.9879 25.5505L11.7754 25.6867L11.5427 25.8194L11.2793 25.9295L10.983 26.0304L10.3615 26.1998L9.733 26.3509L9.10166 26.4605L8.50604 26.5458L8.23649 26.5764L8.01429 26.5949L7.82601 26.599L7.68938 26.6054L7.29384 26.6034L6.94048 26.5987L6.62103 26.5795L6.33151 26.5485L6.06063 26.5107L5.80684 26.4554L5.57351 26.3832L5.3432 26.2946L5.12662 26.1879L4.92135 26.0764L4.71023 25.94L4.50214 25.7871L4.28699 25.6158L4.06782 25.4097L3.83425 25.1875L3.58475 24.9385L3.14595 24.4342L2.75242 23.9481L2.41728 23.4656L2.12156 22.9765L1.87447 22.5062L1.66074 22.0623L1.49227 21.6367L1.37244 21.2299L1.29213 20.6835L1.25212 20.1067L1.25456 19.5068L1.27867 18.8834L1.35042 18.2275L1.44719 17.5488L1.58305 16.8463L1.74731 16.1216L2.08174 14.9427L2.46143 13.782L2.89649 12.6415L3.39699 11.5228L3.94336 10.419L4.54967 9.32932L5.19666 8.2639L5.91093 7.21043L6.36912 6.60612L6.84109 6.02133L7.32079 5.48906L7.80754 4.97511L8.30047 4.50319L8.81028 4.07179L9.33051 3.6593L9.85019 3.28764L10.3779 2.94811L10.9026 2.66263L11.4285 2.40807L11.9476 2.21028L12.4599 2.04882L12.9733 1.93871L13.4901 1.86673L13.995 1.8404L14.0928 1.8373L14.2209 1.83958L14.3685 1.84874L14.5437 1.85937L14.7458 1.87479L14.9708 1.89768L15.2132 1.92026L15.4825 1.94762L16.039 2.01913L16.604 2.11946L17.1739 2.2309L17.7491 2.37055L18.2886 2.53457L18.7963 2.72023L19.2664 2.94017L19.6929 3.18987L19.8878 3.31999L20.0387 3.46277L20.1694 3.60197L20.2577 3.76433L20.3264 3.9198L20.3545 4.08853L20.3539 4.26239L20.3193 4.45069L20.2813 4.60087L20.2168 4.80091L20.1405 5.04661L20.0364 5.34879L19.977 5.50199L19.9341 5.64106L19.8903 5.76632L19.8495 5.87505L19.8252 5.96967L19.8018 6.04056L19.7814 6.09493L19.7723 6.14448L19.6885 6.48777L19.6034 6.80015L19.5268 7.1038L19.4634 7.39272L19.395 7.67054L19.3382 7.92313L19.2833 8.16581L19.2439 8.38054L19.1962 8.58358L19.1616 8.77188L19.1307 8.94036L19.1117 9.10073L19.0975 9.23466L19.0757 9.3536L19.0749 9.45239L19.0699 9.53677L19.0697 9.59472L19.064 9.68241L19.047 9.77491L19.0145 9.89535L18.9773 9.98426L18.9328 10.0753L18.8755 10.1606L18.7928 10.2517L18.6961 10.3437L18.5831 10.4294L18.46 10.5133L18.315 10.6035L18.1717 10.6838L18.0303 10.7542L17.9121 10.8117L17.8025 10.8604L17.7081 10.9017L17.6241 10.9243L17.5513 10.9421L17.4911 10.9484L17.1305 10.9833L16.7852 11.0482L16.629 11.0853L16.497 11.1233L16.3828 11.1405L16.3125 11.1451L16.2755 11.1385L16.2094 11.12L16.1088 11.0816L15.9813 11.0385L15.8314 10.9846L15.6671 10.9145L15.331 10.7593L15.0085 10.5861L14.7145 10.4281L14.5903 10.3481L14.5114 10.2863L14.4645 10.22L14.458 10.1608L14.499 9.99413L14.5198 9.82385L14.5223 9.64009L14.5199 9.44521L14.5203 9.3293L14.5345 9.19536L14.5568 9.0356L14.5908 8.8506L14.6375 8.63375L14.69 8.40429L14.7605 8.13367L14.8408 7.84774L15.6452 5.18651L15.6707 5.04776L15.6796 4.8856L15.6772 4.69073L15.6695 4.46763Z" fill="white"/>
</svg>
