<svg width="51" height="51" viewBox="0 0 51 51" fill="none" xmlns="http://www.w3.org/2000/svg">
<path d="M34.3724 6.22506C34.4259 6.0976 34.473 5.96913 34.5139 5.83997L39.7197 7.96809C39.6561 8.08795 39.5973 8.21168 39.5438 8.33911C38.5799 10.6359 39.685 13.269 42.0122 14.2203C42.1413 14.2731 42.2715 14.3196 42.4024 14.36L41.1077 17.4449H45.5956L47.9714 11.7843C48.9354 9.48749 47.8302 6.85438 45.503 5.90304L31.904 0.343826C29.5768 -0.60754 26.9087 0.483143 25.9448 2.7799L19.7898 17.4449H24.2778L28.0372 8.48757C28.1587 8.55036 28.284 8.60835 28.4132 8.66113C30.7404 9.61249 33.4084 8.52181 34.3724 6.22506Z" fill="#EE6616"/>
<path d="M34.9747 12.0078C37.2829 12.9514 38.6945 15.1288 38.75 17.4449H26.5184C26.5352 16.7195 26.6857 15.985 26.9839 15.2744C28.2765 12.1947 31.8541 10.7322 34.9747 12.0078Z" fill="#EE6616"/>
<path d="M3.07153 14.3482C3.6752 14.0962 4.3222 13.9666 4.97561 13.9666H9.12195V17.4449H6.0122V19.0817H43.122C46.5569 19.0817 49.3415 21.8298 49.3415 25.2198V28.0843H39.7895C35.7906 28.0843 32.5488 31.2446 32.5488 35.1432C32.5488 39.0416 35.7906 42.202 39.7895 42.202H49.3415V44.8619C49.3415 48.2519 46.5569 51 43.122 51H6.21951C2.78457 51 0 48.2519 0 44.8619L0.0010376 19.0817C0 19.0817 0.0020752 19.0817 0.0010376 19.0817C0.0010376 18.4234 0.1287 17.6692 0.378748 17.0611C0.628797 16.4529 0.995297 15.9003 1.45732 15.4348C1.91935 14.9693 2.46786 14.6001 3.07153 14.3482Z" fill="#EE6616"/>
<path fill-rule="evenodd" clip-rule="evenodd" d="M49.3414 29.9257H39.4568C36.4431 29.9257 34 32.3075 34 35.2455C34 38.1834 36.4431 40.5652 39.4568 40.5652H49.3415C50.2574 40.5652 51 39.8323 51 38.9283V31.5626C51 30.6586 50.2574 29.9257 49.3414 29.9257ZM40.1095 37.0869C41.1527 37.0869 41.9983 36.2625 41.9983 35.2455C41.9983 34.2285 41.1527 33.404 40.1095 33.404C39.0663 33.404 38.2206 34.2285 38.2206 35.2455C38.2206 36.2625 39.0663 37.0869 40.1095 37.0869Z" fill="#EE6616"/>
<path d="M18.8906 4.47246C19.5621 2.08626 22.0596 0.68535 24.478 1.33241L17.7155 17.4449H15.2399L18.8906 4.47246Z" fill="#EE6616"/>
<path d="M11.7824 7.00743C12.0827 4.54871 14.3383 2.79314 16.8279 3.07394L13.2372 17.4449H10.5074L11.7824 7.00743Z" fill="#EE6616"/>
</svg>
