<svg width="26" height="24" viewBox="0 0 26 24" fill="none" xmlns="http://www.w3.org/2000/svg">
<path d="M23.6546 2.55776C23.8136 2.30475 23.7491 1.96292 23.5107 1.79425C23.2722 1.62558 22.95 1.69395 22.791 1.94695L22.5316 2.35988C22.3726 2.61289 22.437 2.95472 22.6755 3.12339C22.9139 3.29206 23.2361 3.22369 23.3951 2.97069L23.6546 2.55776Z" fill="white"/>
<path d="M22.3572 3.52126C22.5162 3.26826 22.4518 2.92642 22.2133 2.75775C21.9748 2.58908 21.6526 2.65745 21.4937 2.91045L21.2342 3.32338C21.0752 3.57639 21.1396 3.91822 21.3781 4.08689C21.6166 4.25556 21.9388 4.18719 22.0978 3.93419L22.3572 3.52126Z" fill="white"/>
<path d="M23.5249 4.20948C23.6838 3.95647 23.6194 3.61464 23.3809 3.44597C23.1425 3.2773 22.8203 3.34567 22.6613 3.59867L22.4018 4.0116C22.2428 4.2646 22.3073 4.60644 22.5457 4.77511C22.7842 4.94378 23.1064 4.87541 23.2654 4.62241L23.5249 4.20948Z" fill="white"/>
<path d="M22.0329 5.53218C22.2356 5.31716 22.2356 4.96856 22.0329 4.75355C21.8303 4.53854 21.5017 4.53854 21.299 4.75355L21.0396 5.02884C20.8369 5.24385 20.8369 5.59245 21.0396 5.80746C21.2422 6.02248 21.5708 6.02248 21.7735 5.80746L22.0329 5.53218Z" fill="white"/>
<path fill-rule="evenodd" clip-rule="evenodd" d="M20.8853 1.23746L20.8925 1.31876C21.2077 1.0761 21.5611 0.828368 21.9216 0.61522C22.2765 0.40535 22.6552 0.218857 23.0223 0.108064C23.3796 0.000213604 23.7881 -0.0550762 24.1653 0.078313C24.6441 0.247622 24.8689 0.711888 24.977 1.10887C25.0896 1.52258 25.121 2.01855 25.1136 2.50693C25.1051 3.07095 25.0437 3.67494 24.9633 4.22315C25.0451 4.19591 25.1291 4.17415 25.2119 4.16305C25.316 4.14909 25.5244 4.1362 25.7162 4.27183C25.9083 4.40773 25.9677 4.61235 25.987 4.72882C26.0072 4.85101 26.0006 4.9714 25.9891 5.06864C25.9655 5.26704 25.9041 5.50209 25.8242 5.75065C25.6619 6.2558 25.3875 6.92483 25.0351 7.6901C24.3279 9.22566 23.2797 11.2058 22.1025 13.1486C21.9475 13.4044 21.6264 13.4784 21.3853 13.314C21.1443 13.1496 21.0745 12.8089 21.2294 12.5532C22.3875 10.642 23.4151 8.69927 24.1026 7.20667C24.4217 6.5138 24.6618 5.93002 24.8083 5.49718C24.7217 5.54622 24.6269 5.60271 24.5243 5.66693C23.3584 6.3962 21.44 7.95063 19.5679 9.93676C19.3959 10.1193 19.1274 10.1505 18.9222 10.0118C18.717 9.87318 18.6301 9.60188 18.7133 9.35929C19.8191 6.13282 19.9828 4.11487 19.946 2.72841C19.7445 3.00358 19.5173 3.31974 19.2777 3.66355C18.4545 4.84518 17.5067 6.32386 16.9455 7.58085C16.8228 7.85565 16.5134 7.9729 16.2544 7.84273C15.9954 7.71256 15.8848 7.38426 16.0075 7.10946C16.6139 5.75122 17.6122 4.20175 18.4431 3.00904C18.8613 2.40871 19.2425 1.89128 19.5192 1.52375C19.6576 1.3399 19.7701 1.19334 19.8482 1.09242C19.8873 1.04195 19.9177 1.00289 19.9386 0.97626L19.9625 0.945776L19.9713 0.934725C20.1058 0.76473 20.3235 0.697132 20.5233 0.76329C20.723 0.829448 20.8658 1.01642 20.8853 1.23746ZM20.32 7.67215C20.9196 5.41776 21.0184 3.83378 20.9817 2.63615C21.3606 2.30554 21.8909 1.89393 22.4268 1.57708C22.7431 1.39008 23.0444 1.24622 23.3063 1.16718C23.5779 1.0852 23.7472 1.09117 23.8371 1.12295C23.8385 1.12343 23.8408 1.1243 23.8455 1.12813C23.8508 1.13244 23.8614 1.14247 23.8758 1.16309C23.9064 1.20702 23.9449 1.28584 23.9798 1.41434C24.0508 1.67494 24.0826 2.04513 24.0759 2.48933C24.064 3.27673 23.934 4.17912 23.8019 4.84334C22.8827 5.44453 21.6343 6.43294 20.32 7.67215Z" fill="white"/>
<path fill-rule="evenodd" clip-rule="evenodd" d="M9.34103 3.3535C9.34103 2.74535 9.80571 2.25235 10.3789 2.25235H14.0115C14.5847 2.25235 15.0494 2.74535 15.0494 3.3535V4.45465C15.0494 4.94733 14.7444 5.36444 14.3239 5.50507C14.3236 5.60607 14.3263 5.75491 14.3306 5.85895C14.838 5.95274 15.2086 6.21931 15.4525 6.55617C15.738 6.95047 15.8278 7.40734 15.8278 7.71996V7.76656C15.8278 8.06595 15.5838 8.30866 15.2827 8.30866C14.9817 8.30866 14.7376 8.06595 14.7376 7.76656V7.71996C14.7376 7.58084 14.6911 7.36008 14.5678 7.18968C14.4644 7.04693 14.2874 6.90681 13.9199 6.90681C13.5859 6.90681 13.4255 6.65543 13.3828 6.57755C13.3284 6.47828 13.3021 6.37472 13.2877 6.3062C13.2569 6.1594 13.2443 5.98758 13.2384 5.84481C13.2342 5.74337 13.233 5.64323 13.2331 5.55579H11.1573C11.1575 5.64323 11.1562 5.74337 11.1521 5.84481C11.1462 5.98758 11.1336 6.1594 11.1027 6.3062C11.0883 6.37472 11.0621 6.47828 11.0076 6.57755C10.965 6.65543 10.8045 6.90681 10.4706 6.90681C10.1031 6.90681 9.92605 7.04693 9.82269 7.18968C9.69932 7.36008 9.65286 7.58084 9.65286 7.71996V13.5476C9.65286 13.847 9.4088 14.0897 9.10774 14.0897C8.80667 14.0897 8.56261 13.847 8.56261 13.5476V7.71996C8.56261 7.40734 8.65244 6.95047 8.93791 6.55617C9.18181 6.21931 9.55248 5.95274 10.0599 5.85895C10.0642 5.75491 10.0668 5.60607 10.0666 5.50507C9.64601 5.36444 9.34103 4.94733 9.34103 4.45465V3.3535ZM10.3789 3.3535H14.0115V4.45465H10.3789V3.3535Z" fill="white"/>
<path d="M13.8168 10.2527C14.6327 9.56012 15.0207 9.77359 15.0696 9.80049C15.076 9.80399 15.0766 9.80433 15.0717 9.79912C15.2743 10.0141 15.6029 10.0141 15.8056 9.79912C16.0082 9.5841 16.0082 9.2355 15.8056 9.02049C15.3304 8.51639 14.3222 8.41356 13.1684 9.39281C12.8136 9.69398 12.5751 10.1171 12.4119 10.5557C12.2475 10.9976 12.1464 11.4903 12.0862 11.9735C11.9659 12.9384 12.0003 13.9346 12.0689 14.5657C12.1018 14.8678 12.3592 15.0844 12.6439 15.0496C12.9286 15.0147 13.1328 14.7416 13.1 14.4395C13.0389 13.8777 13.0083 12.9745 13.1151 12.1179C13.1684 11.6903 13.2538 11.2918 13.3773 10.96C13.5019 10.6249 13.6527 10.392 13.8168 10.2527Z" fill="white"/>
<path d="M16.124 12.3871C15.6205 13.1203 15.2262 14.051 15.0211 14.6821C14.9276 14.9696 14.6323 15.1222 14.3613 15.0231C14.0904 14.924 13.9465 14.6106 14.0399 14.3231C14.2672 13.6237 14.7032 12.5861 15.2852 11.7387C15.5761 11.3151 15.9205 10.9138 16.3147 10.6309C16.713 10.345 17.1906 10.1613 17.7175 10.2412C18.7052 10.3909 19.2332 11.1527 19.4881 11.9039C19.7398 12.6453 19.7657 13.4681 19.7176 14.0042C19.6904 14.3069 19.4371 14.529 19.1518 14.5001C18.8665 14.4713 18.6572 14.2025 18.6844 13.8998C18.7227 13.4725 18.6968 12.8225 18.5116 12.2769C18.3298 11.7412 18.0362 11.4018 17.5708 11.3313C17.3712 11.301 17.1504 11.3605 16.8962 11.5429C16.638 11.7283 16.3758 12.0204 16.124 12.3871Z" fill="white"/>
<path fill-rule="evenodd" clip-rule="evenodd" d="M2.07165 15.3386L2.06258 15.2938C1.9862 14.9177 1.95573 14.7676 2.20553 14.5026C2.46501 14.365 2.53219 14.3556 3.00101 14.4993C4.92413 15.0889 8.72391 15.7414 13.2331 15.7414C17.8488 15.7414 21.0225 14.9615 22.8228 14.4204C23.177 14.3139 23.4823 14.365 23.5724 14.4204C23.7383 14.5223 23.8338 14.8866 23.761 15.276C23.2354 18.0876 20.8781 20.5426 17.6441 21.7769V22.6236C17.6441 23.3837 17.0633 24 16.3468 24H9.08155C8.36504 24 7.78419 23.3837 7.78419 22.6236V21.578C4.79327 20.3006 2.60507 17.9804 2.07165 15.3386ZM8.82208 21.882V22.6236C8.82208 22.7756 8.93825 22.8989 9.08155 22.8989H16.3468C16.4901 22.8989 16.6063 22.7756 16.6063 22.6236V21.9315L8.82208 21.882ZM8.73617 20.7803C5.90091 19.7423 3.9313 17.8065 3.24838 15.7105C3.96245 15.9023 4.81535 16.0846 5.76152 16.2439C7.78828 16.5853 10.3726 16.8425 13.2331 16.8425C17.5765 16.8425 20.6877 16.1674 22.6029 15.6264C21.9511 17.7986 19.9521 19.8008 17.0421 20.8332L8.73617 20.7803Z" fill="white"/>
<path fill-rule="evenodd" clip-rule="evenodd" d="M5.76501 6.27247L6.57567 7.39054L6.81133 7.19052C6.92648 7.09279 7.07537 7.05164 7.22083 7.07736L7.99924 7.21501C8.28195 7.26499 8.47293 7.54866 8.42581 7.8486C8.3787 8.14854 8.11132 8.35116 7.82862 8.30117L7.27876 8.20394L6.81101 8.60094L6.80543 8.60561L4.47018 10.5326C4.43566 10.5611 4.39798 10.5848 4.35807 10.6031C4.3466 10.6175 4.32984 10.6411 4.30979 10.6762C4.2498 10.781 4.1831 10.9488 4.1415 11.1695C4.10819 11.3462 4.1176 11.6346 4.17037 11.9684C4.22158 12.2922 4.30354 12.5974 4.37393 12.7841C4.48038 13.0664 4.35094 13.3868 4.08484 13.4997C3.81873 13.6127 3.51672 13.4753 3.41028 13.193C3.30768 12.9209 3.20801 12.5378 3.14678 12.1505C3.08712 11.7732 3.05329 11.3274 3.12376 10.9535C3.18596 10.6236 3.29223 10.3326 3.42252 10.1049C3.43075 10.0905 3.43916 10.0762 3.44777 10.062L2.64965 9.0459C2.25048 9.10177 1.73708 9.09755 1.26593 8.93422C0.949916 8.82468 0.627013 8.63414 0.382957 8.31384C0.134002 7.98712 -3.03114e-06 7.56828 0 7.06987C2.6912e-06 6.62265 0.114265 6.23661 0.328388 5.92439C0.539589 5.61642 0.824391 5.4143 1.11687 5.28718C1.46541 5.13571 1.84829 5.07972 2.20324 5.0836C2.24644 4.73604 2.35939 4.37143 2.55901 4.06013C2.7396 3.77849 3.00008 3.52791 3.35335 3.3906C3.70718 3.25308 4.11 3.24629 4.54758 3.3729C4.97941 3.49785 5.31976 3.70719 5.55935 4.00412C5.80002 4.30238 5.90356 4.64507 5.93305 4.9696C5.97572 5.43931 5.86366 5.92268 5.76501 6.27247ZM3.23452 5.59197C3.19202 5.35147 3.24189 4.95281 3.41714 4.67951C3.49739 4.55435 3.59438 4.46963 3.71037 4.42455C3.82581 4.37968 4.00404 4.35699 4.2745 4.43525C4.55622 4.51677 4.69698 4.6286 4.77092 4.72022C4.84378 4.81052 4.88618 4.92377 4.89995 5.07525C4.93074 5.41423 4.81434 5.80939 4.6975 6.206L4.69414 6.21743C4.64371 6.38864 4.67505 6.57517 4.77813 6.71735L5.76078 8.07264L4.22903 9.33661L3.25286 8.09383C3.12536 7.93151 2.92155 7.86092 2.72834 7.91217C2.44723 7.98673 1.96731 8.01892 1.58826 7.88753C1.40695 7.82468 1.27578 7.73403 1.19009 7.62158C1.1093 7.51555 1.03789 7.35009 1.03789 7.06987C1.03789 6.82887 1.09661 6.6758 1.16764 6.57223C1.24159 6.4644 1.3541 6.37403 1.5103 6.30615C1.83712 6.16411 2.27736 6.15621 2.61755 6.2322C2.78717 6.27008 2.96341 6.21562 3.08732 6.08704C3.21124 5.95845 3.26646 5.77272 3.23452 5.59197ZM4.37174 10.5874C4.37365 10.5858 4.37459 10.5848 4.37459 10.5848C4.37459 10.5848 4.37418 10.5851 4.37336 10.5859L4.37174 10.5874Z" fill="white"/>
<path d="M10.8979 8.03337C11.1845 8.03337 11.4168 8.27987 11.4168 8.58395V9.68509C11.4168 9.98916 11.1845 10.2357 10.8979 10.2357C10.6113 10.2357 10.3789 9.98916 10.3789 9.68509V8.58395C10.3789 8.27987 10.6113 8.03337 10.8979 8.03337Z" fill="white"/>
<path d="M6.37935 11.2228C6.58201 11.0078 6.91059 11.0078 7.11325 11.2228L7.37273 11.4981C7.57539 11.7131 7.57539 12.0617 7.37273 12.2767C7.17006 12.4917 6.84149 12.4917 6.63883 12.2767L6.37935 12.0014C6.17669 11.7864 6.17669 11.4378 6.37935 11.2228Z" fill="white"/>
<path d="M6.33483 13.0121C6.13217 12.7971 5.8036 12.7971 5.60094 13.0121C5.39827 13.2272 5.39827 13.5758 5.60094 13.7908L5.86041 14.0661C6.06307 14.2811 6.39165 14.2811 6.59431 14.0661C6.79697 13.851 6.79697 13.5024 6.59431 13.2874L6.33483 13.0121Z" fill="white"/>
<path d="M7.15777 13.9756C7.36043 13.7606 7.68901 13.7606 7.89167 13.9756L8.15114 14.2509C8.3538 14.4659 8.3538 14.8146 8.15114 15.0296C7.94848 15.2446 7.6199 15.2446 7.41724 15.0296L7.15777 14.7543C6.95511 14.5393 6.95511 14.1907 7.15777 13.9756Z" fill="white"/>
<path d="M4.82252 11.2228C5.02518 11.0078 5.35376 11.0078 5.55642 11.2228L5.81589 11.4981C6.01855 11.7131 6.01855 12.0617 5.81589 12.2767C5.61323 12.4917 5.28465 12.4917 5.08199 12.2767L4.82252 12.0014C4.61986 11.7864 4.61986 11.4378 4.82252 11.2228Z" fill="white"/>
</svg>
