<svg width="42" height="42" viewBox="0 0 42 42" fill="none" xmlns="http://www.w3.org/2000/svg">
<path d="M37.4757 4.81089C37.6799 4.48261 37.6137 4.02641 37.3277 3.79193C37.0418 3.55745 36.6443 3.63349 36.4401 3.96176L36.0424 4.6009C35.8381 4.92917 35.9043 5.38537 36.1903 5.61985C36.4763 5.85433 36.8737 5.7783 37.078 5.45003L37.4757 4.81089Z" fill="#EE6616"/>
<path d="M35.4525 6.5052C35.6812 6.1989 35.6503 5.73777 35.3834 5.47523C35.1166 5.21269 34.7149 5.24816 34.4862 5.55446L34.0089 6.1936C33.7802 6.4999 33.8111 6.96103 34.078 7.22357C34.3448 7.48611 34.7465 7.45063 34.9752 7.14434L35.4525 6.5052Z" fill="#EE6616"/>
<path d="M37.2487 7.91592C37.4972 7.63066 37.4972 7.16817 37.2487 6.88291C37.0002 6.59766 36.5973 6.59766 36.3488 6.88291L35.8716 7.43075C35.6231 7.71601 35.6231 8.1785 35.8716 8.46376C36.1201 8.74901 36.523 8.74901 36.7715 8.46376L37.2487 7.91592Z" fill="#EE6616"/>
<path d="M35.2074 9.21505C35.3781 8.8624 35.2674 8.4177 34.9602 8.22179C34.653 8.02587 34.2656 8.15293 34.0949 8.50558L33.6972 9.32733C33.5265 9.67998 33.6372 10.1247 33.9444 10.3206C34.2516 10.5165 34.639 10.3895 34.8097 10.0368L35.2074 9.21505Z" fill="#EE6616"/>
<path fill-rule="evenodd" clip-rule="evenodd" d="M33.0561 3.63203C32.9887 3.18522 32.8665 2.78479 32.664 2.47107L32.3588 1.99806L32.0321 2.46012C32.0321 2.46012 31.9911 2.51852 31.9839 2.52877C31.9504 2.57668 31.9011 2.64731 31.8378 2.73875C31.7112 2.92162 31.5284 3.18776 31.303 3.5218C30.8522 4.18976 30.2305 5.12992 29.5461 6.21934C28.1813 8.39223 26.5533 11.1811 25.5432 13.593C25.448 13.8202 25.5313 14.093 25.7293 14.2023C25.9272 14.3115 26.1649 14.2159 26.26 13.9886C27.2384 11.6527 28.8319 8.91751 30.1913 6.75336C30.8692 5.67426 31.4853 4.74265 31.9318 4.08097C32.0478 3.90906 32.1524 3.75542 32.2435 3.6222C32.2988 3.90017 32.3294 4.24609 32.3307 4.66187C32.3368 6.63134 31.7962 9.63867 31.2406 12.1923C30.9646 13.4608 30.6881 14.6034 30.4805 15.4289C30.3768 15.8415 30.2903 16.1747 30.2299 16.4044C30.1997 16.5192 30.176 16.6082 30.1599 16.6683L30.1533 16.6929L30.1416 16.7364L30.1369 16.7535L30.1358 16.7577L30.1355 16.7587L30.1355 16.7589C30.1355 16.7589 30.1354 16.7589 30.1422 16.7613L30.1355 16.7589L30.8123 17.1984L30.8124 17.1983L30.813 17.1976L30.8252 17.1818C30.8341 17.1705 30.8475 17.1534 30.8652 17.1309C30.9006 17.0859 30.9532 17.0193 31.0217 16.9337C31.1587 16.7625 31.3588 16.5155 31.6104 16.2138C32.1138 15.61 32.8219 14.7884 33.641 13.9167C35.293 12.1586 37.3479 10.2501 39.0709 9.46743C39.3555 9.33814 39.6274 9.24502 39.8851 9.19048C39.8251 9.38648 39.7514 9.62271 39.6644 9.89384C39.3906 10.7474 38.9859 11.9459 38.4626 13.323C37.4141 16.0821 35.8978 19.5367 34.0167 22.3708C33.8835 22.5714 33.9173 22.8578 34.092 23.0106C34.2667 23.1634 34.5162 23.1247 34.6493 22.9242C36.5862 20.0061 38.1323 16.4757 39.1916 13.688C39.7223 12.2917 40.1328 11.0762 40.4108 10.2093C40.5499 9.77572 40.6559 9.42906 40.7273 9.1902C40.763 9.07077 40.8362 8.81771 40.8361 8.81832L40.8362 8.81792L40.8362 8.81771L41 8.2343L40.4662 8.22127C40.1387 8.21327 39.8046 8.26412 39.4689 8.36054C39.4811 8.29199 39.4936 8.21984 39.5062 8.14443C39.6085 7.53333 39.7214 6.70051 39.7602 5.82391C39.7987 4.95265 39.7656 4.00892 39.5601 3.18918C39.3541 2.36766 38.9584 1.6121 38.2373 1.23223C37.5831 0.887572 36.872 0.964746 36.2191 1.21537C35.5653 1.46632 34.9262 1.90689 34.374 2.36673C33.8532 2.80045 33.395 3.26378 33.0561 3.63203ZM33.1253 4.8409C33.1003 6.93372 32.5507 9.93937 32.0123 12.4136C31.785 13.4584 31.5574 14.418 31.3676 15.1882C31.8402 14.6323 32.4338 13.9563 33.1003 13.2471C34.6978 11.5469 36.759 9.60585 38.5875 8.70858C38.59 8.69624 38.5927 8.68341 38.5954 8.6701C38.6296 8.504 38.6762 8.26411 38.7251 7.97203C38.8232 7.38632 38.9295 6.59806 38.9658 5.77761C39.0023 4.95184 38.9664 4.12258 38.7957 3.44169C38.6254 2.76256 38.3379 2.28983 37.9056 2.06206C37.5033 1.85014 37.0184 1.87131 36.4713 2.08129C35.9252 2.29094 35.3606 2.67321 34.8411 3.10579C34.3245 3.53602 33.8688 4.00218 33.5413 4.36252C33.3779 4.54221 33.2475 4.69444 33.1583 4.80112L33.1501 4.81104C33.1414 4.82147 33.1331 4.83143 33.1253 4.8409Z" fill="#EE6616"/>
<path d="M25.9684 20.4167C24.9302 21.2944 23.8951 22.8329 23.5914 25.447C23.5624 25.697 23.3624 25.8725 23.1446 25.8392C22.9269 25.8059 22.7739 25.5763 22.803 25.3264C23.1357 22.4621 24.2879 20.7035 25.4967 19.6815C26.0969 19.1742 26.7062 18.8522 27.2277 18.6639C27.7387 18.4795 28.1959 18.4126 28.4909 18.4502C29.0558 18.5223 29.7765 18.9483 30.2944 19.8889C30.8136 20.8318 31.116 22.2633 30.9102 24.3426C30.8854 24.5931 30.6883 24.7731 30.4701 24.7446C30.2519 24.7162 30.095 24.49 30.1198 24.2395C30.3117 22.3013 30.0176 21.0951 29.622 20.3767C29.2252 19.656 28.713 19.3972 28.403 19.3577C28.2605 19.3395 27.9223 19.3703 27.4663 19.5349C27.021 19.6957 26.4918 19.9742 25.9684 20.4167Z" fill="#EE6616"/>
<path fill-rule="evenodd" clip-rule="evenodd" d="M16.6748 6.30375C16.2355 6.30375 15.8794 6.71254 15.8794 7.21681V9.95598C15.8794 10.4294 16.1933 10.8187 16.5953 10.8645V11.7809C16.5662 11.7996 16.5347 11.8201 16.5012 11.8424C16.3129 11.9679 16.057 12.1525 15.7869 12.3896C15.2604 12.8518 14.6196 13.5652 14.3843 14.4838L14.3681 14.5468V24.8389C14.3681 25.091 14.5461 25.2954 14.7658 25.2954C14.9854 25.2954 15.1635 25.091 15.1635 24.8389V14.6821C15.3393 14.0725 15.7978 13.5295 16.2701 13.1149C16.5071 12.9068 16.7335 12.7434 16.9005 12.632C16.9838 12.5766 17.0517 12.5345 17.0979 12.5068C17.121 12.4929 17.1532 12.4744 17.1646 12.4679L17.1647 12.4678L17.3907 12.3437V10.869H21.5268V12.3437L21.7609 12.4723C21.7609 12.4723 21.9337 12.5766 22.017 12.632C22.184 12.7434 22.4104 12.9068 22.6474 13.1149C23.135 13.5429 23.6078 14.1077 23.7701 14.7414C23.8321 14.9833 24.0532 15.1217 24.2639 15.0506C24.4746 14.9794 24.5952 14.7257 24.5332 14.4838C24.2979 13.5652 23.6571 12.8518 23.1306 12.3896C22.8605 12.1525 22.6046 11.9679 22.4162 11.8424C22.3828 11.8201 22.3513 11.7996 22.3222 11.7809V10.8272C22.6449 10.7109 22.879 10.3648 22.879 9.95598V7.21681C22.879 6.71254 22.5229 6.30375 22.0836 6.30375H16.6748ZM16.6748 7.21681H22.0836V9.95598H16.6748V7.21681Z" fill="#EE6616"/>
<path fill-rule="evenodd" clip-rule="evenodd" d="M8.95867 11.9133C9.00879 11.8008 9.06898 11.6586 9.13195 11.4943C9.29094 11.0793 9.47493 10.504 9.55171 9.89776C9.6278 9.29706 9.60579 8.60714 9.29094 8.0173C8.96643 7.40935 8.3815 7.00003 7.50424 6.85618C6.64363 6.71505 5.98043 6.85871 5.48473 7.21453C4.98979 7.56982 4.71461 8.09877 4.56528 8.61113C4.42009 9.1093 4.38683 9.61341 4.38803 9.98817C4.3743 9.98481 4.36039 9.98147 4.34629 9.97815C3.99275 9.89486 3.50622 9.82054 3.01286 9.87846C2.5198 9.93634 1.98023 10.1318 1.5779 10.6321C1.17106 11.1381 0.962381 11.8832 1.00559 12.9C1.04893 13.9197 1.32477 14.6423 1.77491 15.1096C2.21942 15.571 2.7763 15.723 3.2787 15.7422C3.78138 15.7615 4.2667 15.6499 4.61767 15.5393C4.73514 15.5023 4.83958 15.4648 4.92701 15.431L6.49204 17.7385L5.50395 18.6207L6.18122 23.091C6.21885 23.3394 6.42479 23.5057 6.64119 23.4625C6.85759 23.4193 7.0025 23.1829 6.96487 22.9345L6.36947 19.0047L11.7445 14.2057L12.5808 14.5011C12.7907 14.5753 13.0133 14.44 13.0779 14.199C13.1425 13.958 13.0246 13.7026 12.8147 13.6284L11.5829 13.1933L10.5332 14.1305L8.95867 11.9133ZM5.20114 10.3869L5.32731 11.2854L4.69042 11.0255L4.69015 11.0254L4.6899 11.0253L4.69042 11.0255C4.69042 11.0255 4.60286 10.9928 4.55838 10.978C4.46922 10.9481 4.34059 10.9089 4.18638 10.8726C3.87376 10.7989 3.47538 10.742 3.09378 10.7868C2.71188 10.8316 2.38643 10.9728 2.16237 11.2515C1.94281 11.5245 1.76373 12.0006 1.80006 12.8555C1.83628 13.7076 2.05757 14.172 2.3084 14.4323C2.56485 14.6985 2.91276 14.8147 3.3052 14.8297C3.69737 14.8447 4.09695 14.7566 4.40717 14.6588C4.56032 14.6106 4.68727 14.5614 4.775 14.5248C4.81878 14.5065 4.85255 14.4914 4.87466 14.4812C4.88571 14.4761 4.89382 14.4723 4.8988 14.4699L4.90389 14.4675L4.90409 14.4674L4.90434 14.4673L4.90451 14.4672L5.18656 14.3274L7.1199 17.1779L9.9052 14.6912L7.99785 12.0055L8.14044 11.7309L8.14084 11.7301L8.14419 11.7236C8.14737 11.7173 8.15239 11.7073 8.15903 11.6938C8.17232 11.6667 8.19206 11.6258 8.21646 11.5728C8.26535 11.4666 8.3325 11.3129 8.40383 11.1267C8.5481 10.7501 8.70216 10.2591 8.76457 9.76638C8.82768 9.26814 8.79003 8.82652 8.61272 8.49434C8.44507 8.18026 8.10533 7.87707 7.39176 7.76006C6.66154 7.64032 6.20122 7.77711 5.90647 7.98869C5.61097 8.2008 5.42878 8.52621 5.3196 8.90082C5.20937 9.27903 5.18125 9.68364 5.18354 10.0044C5.18467 10.1626 5.19313 10.2952 5.20114 10.3869Z" fill="#EE6616"/>
<path fill-rule="evenodd" clip-rule="evenodd" d="M37.4112 25.9126L37.6015 25.1017L36.9325 25.3117C27.6937 28.2121 13.7671 28.3027 4.29219 25.3119L3.67856 25.1182L3.79749 25.846C3.79749 25.846 3.80974 25.9147 3.81645 25.9496C3.82987 26.0194 3.85029 26.12 3.87902 26.2478C3.93645 26.5033 4.02715 26.8677 4.16158 27.3115C4.43025 28.1985 4.87476 29.4065 5.57988 30.6969C6.92459 33.1576 9.21969 35.9203 13.0383 37.3144C13.0236 37.3836 13.0159 37.456 13.0159 37.5304V40.0869C13.0159 40.5912 13.372 41 13.8113 41H27.4924C27.9317 41 28.2878 40.5912 28.2878 40.0869V37.5304C28.2878 37.4648 28.2818 37.4008 28.2704 37.3391C31.8015 35.8342 34.0703 33.0415 35.4612 30.6015C36.1836 29.3343 36.6719 28.1578 36.9802 27.2966C37.1344 26.8657 37.2438 26.5129 37.3151 26.2662C37.3508 26.1428 37.4112 25.9126 37.4112 25.9126ZM13.8113 37.5305H27.4924V40.0869H13.8113V37.5305ZM27.6653 36.6175C31.18 35.2365 33.4242 32.5073 34.7956 30.1016C35.4851 28.8921 35.9512 27.7689 36.2445 26.9496C36.3159 26.7499 36.3771 26.5684 36.4286 26.4084C27.2825 29.0747 14.0836 29.1492 4.73941 26.3931C4.78546 26.5722 4.84271 26.78 4.91288 27.0117C5.16621 27.848 5.58672 28.9911 6.2537 30.2117C7.57972 32.6382 9.88729 35.3683 13.7959 36.6175H27.6653Z" fill="#EE6616"/>
<path d="M9.22971 19.5614C9.01885 19.2386 8.62 19.1732 8.33885 19.4153C8.0577 19.6573 8.00072 20.1152 8.21158 20.4379L8.68883 21.1684C8.89969 21.4911 9.29854 21.5565 9.57969 21.3144C9.86084 21.0724 9.91782 20.6145 9.70696 20.2918L9.22971 19.5614Z" fill="#EE6616"/>
<path d="M10.7251 19.7805C11.0062 19.5385 11.4051 19.6039 11.616 19.9266L12.0932 20.657C12.3041 20.9798 12.2471 21.4376 11.9659 21.6797C11.6848 21.9217 11.2859 21.8563 11.0751 21.5336L10.5978 20.8031C10.387 20.4804 10.4439 20.0226 10.7251 19.7805Z" fill="#EE6616"/>
<path d="M9.96601 22.4049C9.71751 22.1197 9.31461 22.1197 9.06611 22.4049C8.8176 22.6902 8.8176 23.1527 9.06611 23.4379L9.54335 23.9858C9.79186 24.271 10.1948 24.271 10.4433 23.9858C10.6918 23.7005 10.6918 23.238 10.4433 22.9528L9.96601 22.4049Z" fill="#EE6616"/>
<path d="M11.2933 24.231C11.5418 23.9458 11.9447 23.9458 12.1932 24.231L12.6704 24.7789C12.9189 25.0641 12.9189 25.5266 12.6704 25.8119C12.4219 26.0971 12.019 26.0971 11.7705 25.8119L11.2933 25.264C11.0448 24.9788 11.0448 24.5163 11.2933 24.231Z" fill="#EE6616"/>
<path d="M17.152 15.2517C17.152 14.9996 17.3301 14.7952 17.5497 14.7952C17.7694 14.7952 17.9475 14.9996 17.9475 15.2517V17.1692C17.9475 17.4213 17.7694 17.6257 17.5497 17.6257C17.3301 17.6257 17.152 17.4213 17.152 17.1692V15.2517Z" fill="#EE6616"/>
<path d="M22.2086 16.0396C22.5765 15.805 23.0858 15.5284 23.6256 15.5144C24.2065 15.4992 24.7719 15.7889 25.2021 16.5571C25.3209 16.7691 25.2674 17.0516 25.0826 17.188C24.8979 17.3243 24.6518 17.2629 24.533 17.0508C24.2473 16.5407 23.9378 16.4195 23.6437 16.4272C23.3085 16.4359 22.9429 16.6159 22.5949 16.8378C22.4794 16.9115 22.2236 17.1522 21.9152 17.5841C21.6145 18.0053 21.2831 18.5815 21.005 19.2957C20.4505 20.7197 20.1074 22.6917 20.6396 25.0915C20.6938 25.3358 20.5651 25.5843 20.3523 25.6465C20.1394 25.7087 19.9229 25.561 19.8687 25.3167C19.2873 22.6947 19.6601 20.5122 20.2788 18.9231C20.5874 18.1308 20.957 17.4857 21.3 17.0053C21.6354 16.5355 21.9662 16.1942 22.2086 16.0396Z" fill="#EE6616"/>
<path d="M30.1355 16.7589L30.1355 16.7587L30.1358 16.7577L30.1369 16.7535L30.1416 16.7364L30.1533 16.6929L30.1599 16.6683C30.176 16.6082 30.1997 16.5192 30.2299 16.4044C30.2903 16.1747 30.3768 15.8415 30.4805 15.4289C30.6881 14.6034 30.9646 13.4608 31.2406 12.1923C31.7962 9.63867 32.3368 6.63134 32.3307 4.66187C32.3294 4.24609 32.2988 3.90017 32.2435 3.6222C32.1524 3.75542 32.0478 3.90906 31.9318 4.08097C31.4853 4.74265 30.8692 5.67426 30.1913 6.75336C28.8319 8.91751 27.2384 11.6527 26.26 13.9886C26.1649 14.2159 25.9272 14.3115 25.7293 14.2023C25.5313 14.093 25.448 13.8202 25.5432 13.593C26.5533 11.1811 28.1813 8.39223 29.5461 6.21934C30.2305 5.12992 30.8522 4.18976 31.303 3.5218C31.5284 3.18776 31.7112 2.92162 31.8378 2.73875C31.9011 2.64731 31.9504 2.57668 31.9839 2.52877C31.9911 2.51852 32.0321 2.46012 32.0321 2.46012L32.3588 1.99806L32.664 2.47107C32.8665 2.78479 32.9887 3.18522 33.0561 3.63203C33.395 3.26378 33.8532 2.80045 34.374 2.36673C34.9262 1.90689 35.5653 1.46632 36.2191 1.21537C36.872 0.964746 37.5831 0.887572 38.2373 1.23223C38.9584 1.6121 39.3541 2.36766 39.5601 3.18918C39.7656 4.00892 39.7987 4.95265 39.7602 5.82391C39.7214 6.70051 39.6085 7.53333 39.5062 8.14443C39.4936 8.21984 39.4811 8.29199 39.4689 8.36054C39.8046 8.26412 40.1387 8.21327 40.4662 8.22127L41 8.2343L40.8362 8.81771M30.1355 16.7589C30.1355 16.7589 30.1354 16.7589 30.1422 16.7613L30.1355 16.7589ZM30.1355 16.7589L30.8123 17.1984L30.8124 17.1983L30.813 17.1976L30.8252 17.1818C30.8341 17.1705 30.8475 17.1534 30.8652 17.1309C30.9006 17.0859 30.9532 17.0193 31.0217 16.9337C31.1587 16.7625 31.3588 16.5155 31.6104 16.2138C32.1138 15.61 32.8219 14.7884 33.641 13.9167C35.293 12.1586 37.3479 10.2501 39.0709 9.46743C39.3555 9.33814 39.6274 9.24502 39.8851 9.19048C39.8251 9.38648 39.7514 9.62271 39.6644 9.89384C39.3906 10.7474 38.9858 11.9459 38.4626 13.323C37.4141 16.0821 35.8978 19.5367 34.0167 22.3708C33.8835 22.5714 33.9173 22.8578 34.092 23.0106C34.2667 23.1634 34.5162 23.1247 34.6493 22.9242C36.5862 20.0061 38.1323 16.4757 39.1916 13.688C39.7223 12.2917 40.1328 11.0762 40.4108 10.2093C40.5499 9.77572 40.6559 9.42906 40.7273 9.1902C40.763 9.07077 40.8362 8.81771 40.8361 8.81832M40.8361 8.81832L40.8362 8.81771M40.8361 8.81832L40.8362 8.81792L40.8362 8.81771M4.69042 11.0255L5.32731 11.2854L5.20114 10.3869C5.19313 10.2952 5.18467 10.1626 5.18354 10.0044C5.18125 9.68364 5.20937 9.27903 5.3196 8.90082C5.42878 8.52621 5.61097 8.2008 5.90647 7.98869C6.20122 7.77711 6.66154 7.64032 7.39176 7.76006C8.10533 7.87707 8.44507 8.18026 8.61272 8.49434C8.79003 8.82652 8.82768 9.26814 8.76457 9.76638C8.70216 10.2591 8.5481 10.7501 8.40383 11.1267C8.3325 11.3129 8.26535 11.4666 8.21646 11.5728C8.19206 11.6258 8.17232 11.6667 8.15903 11.6938C8.15239 11.7073 8.14737 11.7173 8.14419 11.7236L8.14084 11.7301L8.14044 11.7309L7.99785 12.0055L9.9052 14.6912L7.1199 17.1779L5.18656 14.3274L4.9045 14.4672L4.90434 14.4673L4.90409 14.4674L4.90389 14.4675L4.8988 14.4699C4.89382 14.4723 4.88571 14.4761 4.87466 14.4812C4.85255 14.4914 4.81878 14.5065 4.775 14.5248C4.68727 14.5614 4.56032 14.6106 4.40717 14.6588C4.09695 14.7566 3.69737 14.8447 3.3052 14.8297C2.91276 14.8147 2.56485 14.6985 2.3084 14.4323C2.05757 14.172 1.83628 13.7076 1.80006 12.8555C1.76373 12.0006 1.94281 11.5245 2.16237 11.2515C2.38643 10.9728 2.71188 10.8316 3.09378 10.7868C3.47538 10.742 3.87376 10.7989 4.18638 10.8726C4.34059 10.9089 4.46922 10.9481 4.55838 10.978C4.60286 10.9928 4.69042 11.0255 4.69042 11.0255ZM4.69042 11.0255L4.69015 11.0254L4.6899 11.0253L4.69042 11.0255ZM32.0123 12.4136C32.5507 9.93936 33.1003 6.93372 33.1253 4.8409C33.1331 4.83143 33.1414 4.82147 33.1501 4.81104L33.1583 4.80112C33.2475 4.69444 33.3779 4.54221 33.5413 4.36252C33.8688 4.00218 34.3245 3.53602 34.8411 3.10579C35.3606 2.67321 35.9252 2.29094 36.4713 2.08129C37.0184 1.87131 37.5033 1.85014 37.9056 2.06206C38.3379 2.28983 38.6254 2.76256 38.7957 3.44169C38.9664 4.12258 39.0023 4.95184 38.9658 5.77761C38.9295 6.59806 38.8232 7.38632 38.7251 7.97203C38.6762 8.26411 38.6296 8.504 38.5954 8.6701C38.5927 8.68341 38.59 8.69624 38.5875 8.70858C36.759 9.60585 34.6978 11.5469 33.1003 13.2471C32.4338 13.9563 31.8402 14.6323 31.3676 15.1882C31.5574 14.418 31.7849 13.4584 32.0123 12.4136ZM23.5914 25.447C23.8951 22.8329 24.9302 21.2944 25.9684 20.4167C26.4918 19.9742 27.021 19.6957 27.4663 19.5349C27.9223 19.3703 28.2605 19.3395 28.403 19.3577C28.713 19.3972 29.2252 19.656 29.622 20.3767C30.0176 21.0951 30.3117 22.3013 30.1198 24.2395C30.095 24.49 30.2519 24.7162 30.4701 24.7446C30.6883 24.7731 30.8854 24.5931 30.9102 24.3426C31.116 22.2633 30.8136 20.8318 30.2944 19.8889C29.7765 18.9483 29.0558 18.5223 28.4909 18.4502C28.1959 18.4126 27.7387 18.4795 27.2277 18.6639C26.7062 18.8522 26.0969 19.1742 25.4967 19.6815C24.2879 20.7035 23.1357 22.4621 22.803 25.3264C22.7739 25.5763 22.9269 25.8059 23.1446 25.8392C23.3624 25.8725 23.5624 25.697 23.5914 25.447ZM15.8794 7.21681C15.8794 6.71254 16.2355 6.30375 16.6748 6.30375H22.0836C22.5229 6.30375 22.879 6.71254 22.879 7.21681V9.95598C22.879 10.3648 22.6449 10.7109 22.3222 10.8272V11.7809C22.3513 11.7996 22.3828 11.8201 22.4162 11.8424C22.6046 11.9679 22.8605 12.1525 23.1306 12.3896C23.6571 12.8518 24.2979 13.5652 24.5332 14.4838C24.5952 14.7257 24.4746 14.9794 24.2639 15.0506C24.0532 15.1217 23.8321 14.9833 23.7701 14.7414C23.6078 14.1077 23.135 13.5429 22.6474 13.1149C22.4104 12.9068 22.184 12.7434 22.017 12.632C21.9337 12.5766 21.7609 12.4723 21.7609 12.4723L21.5268 12.3437V10.869H17.3907V12.3437L17.1647 12.4678L17.1646 12.4679C17.1532 12.4744 17.121 12.4929 17.0979 12.5068C17.0517 12.5345 16.9838 12.5766 16.9005 12.632C16.7335 12.7434 16.5071 12.9068 16.2701 13.1149C15.7978 13.5295 15.3393 14.0725 15.1635 14.6821V24.8389C15.1635 25.091 14.9854 25.2954 14.7658 25.2954C14.5461 25.2954 14.3681 25.091 14.3681 24.8389V14.5468L14.3843 14.4838C14.6196 13.5652 15.2604 12.8518 15.7869 12.3896C16.057 12.1525 16.3129 11.9679 16.5012 11.8424C16.5347 11.8201 16.5662 11.7996 16.5953 11.7809V10.8645C16.1933 10.8187 15.8794 10.4294 15.8794 9.95598V7.21681ZM16.6748 7.21681H22.0836V9.95598H16.6748V7.21681ZM9.13195 11.4943C9.06898 11.6586 9.00879 11.8008 8.95867 11.9133L10.5332 14.1305L11.5829 13.1933L12.8147 13.6284C13.0246 13.7026 13.1425 13.958 13.0779 14.199C13.0133 14.44 12.7907 14.5753 12.5808 14.5011L11.7445 14.2057L6.36947 19.0047L6.96487 22.9345C7.0025 23.1829 6.85759 23.4193 6.64119 23.4625C6.42479 23.5057 6.21885 23.3394 6.18122 23.091L5.50395 18.6207L6.49204 17.7385L4.92701 15.431C4.83958 15.4648 4.73514 15.5023 4.61767 15.5393C4.2667 15.6499 3.78138 15.7615 3.2787 15.7422C2.7763 15.723 2.21942 15.571 1.77491 15.1096C1.32477 14.6423 1.04893 13.9197 1.00559 12.9C0.962381 11.8832 1.17106 11.1381 1.5779 10.6321C1.98023 10.1318 2.5198 9.93634 3.01286 9.87846C3.50622 9.82054 3.99275 9.89486 4.34629 9.97815C4.36039 9.98147 4.3743 9.98481 4.38803 9.98817C4.38683 9.61341 4.42009 9.1093 4.56528 8.61113C4.71461 8.09877 4.98979 7.56982 5.48473 7.21453C5.98043 6.85871 6.64363 6.71505 7.50424 6.85618C8.3815 7.00003 8.96643 7.40935 9.29094 8.0173C9.60579 8.60714 9.6278 9.29706 9.55171 9.89776C9.47493 10.504 9.29094 11.0793 9.13195 11.4943ZM37.4112 25.9126L37.6015 25.1017L36.9325 25.3117C27.6937 28.2121 13.7671 28.3027 4.29219 25.3119L3.67856 25.1182L3.79749 25.846C3.79749 25.846 3.80974 25.9147 3.81645 25.9496C3.82987 26.0194 3.85029 26.12 3.87902 26.2478C3.93645 26.5033 4.02715 26.8677 4.16158 27.3115C4.43025 28.1985 4.87476 29.4065 5.57988 30.6969C6.92459 33.1576 9.21969 35.9203 13.0383 37.3144C13.0236 37.3836 13.0159 37.456 13.0159 37.5304V40.0869C13.0159 40.5912 13.372 41 13.8113 41H27.4924C27.9317 41 28.2878 40.5912 28.2878 40.0869V37.5304C28.2878 37.4648 28.2818 37.4008 28.2704 37.3391C31.8015 35.8342 34.0703 33.0415 35.4612 30.6015C36.1836 29.3343 36.6719 28.1578 36.9802 27.2966C37.1344 26.8657 37.2438 26.5129 37.3151 26.2662C37.3508 26.1428 37.4112 25.9126 37.4112 25.9126ZM27.4924 37.5305H13.8113V40.0869H27.4924V37.5305ZM27.6653 36.6175C31.18 35.2365 33.4242 32.5073 34.7956 30.1016C35.4851 28.8921 35.9512 27.7689 36.2445 26.9496C36.3159 26.7499 36.3771 26.5684 36.4286 26.4084C27.2825 29.0747 14.0836 29.1492 4.73941 26.3931C4.78546 26.5722 4.84271 26.78 4.91288 27.0117C5.16621 27.848 5.58672 28.9911 6.2537 30.2117C7.57972 32.6382 9.88729 35.3683 13.7959 36.6175H27.6653ZM8.33885 19.4153C8.62 19.1732 9.01885 19.2386 9.22971 19.5614L9.70696 20.2918C9.91782 20.6145 9.86084 21.0724 9.57969 21.3144C9.29854 21.5565 8.89969 21.4911 8.68883 21.1684L8.21158 20.4379C8.00072 20.1152 8.0577 19.6573 8.33885 19.4153ZM11.616 19.9266C11.4051 19.6039 11.0062 19.5385 10.7251 19.7805C10.4439 20.0226 10.387 20.4804 10.5978 20.8031L11.0751 21.5336C11.2859 21.8563 11.6848 21.9217 11.9659 21.6797C12.2471 21.4376 12.3041 20.9798 12.0932 20.657L11.616 19.9266ZM9.06611 22.4049C9.31461 22.1197 9.71751 22.1197 9.96601 22.4049L10.4433 22.9528C10.6918 23.238 10.6918 23.7005 10.4433 23.9858C10.1948 24.271 9.79186 24.271 9.54335 23.9858L9.06611 23.4379C8.8176 23.1527 8.8176 22.6902 9.06611 22.4049ZM12.1932 24.231C11.9447 23.9458 11.5418 23.9458 11.2933 24.231C11.0448 24.5163 11.0448 24.9788 11.2933 25.264L11.7705 25.8119C12.019 26.0971 12.4219 26.0971 12.6704 25.8119C12.9189 25.5266 12.9189 25.0641 12.6704 24.7789L12.1932 24.231ZM17.5497 14.7952C17.3301 14.7952 17.152 14.9996 17.152 15.2517V17.1692C17.152 17.4213 17.3301 17.6257 17.5497 17.6257C17.7694 17.6257 17.9475 17.4213 17.9475 17.1692V15.2517C17.9475 14.9996 17.7694 14.7952 17.5497 14.7952ZM23.6256 15.5144C23.0858 15.5284 22.5765 15.805 22.2086 16.0396C21.9662 16.1942 21.6354 16.5355 21.3 17.0053C20.957 17.4857 20.5874 18.1308 20.2788 18.9231C19.6601 20.5122 19.2873 22.6947 19.8687 25.3167C19.9229 25.561 20.1394 25.7087 20.3523 25.6465C20.5651 25.5843 20.6938 25.3358 20.6396 25.0915C20.1074 22.6917 20.4505 20.7197 21.005 19.2957C21.2831 18.5815 21.6145 18.0053 21.9152 17.5841C22.2236 17.1522 22.4794 16.9115 22.5949 16.8378C22.9429 16.6159 23.3085 16.4359 23.6437 16.4272C23.9378 16.4195 24.2473 16.5407 24.533 17.0508C24.6518 17.2629 24.8979 17.3243 25.0826 17.188C25.2674 17.0516 25.3209 16.7691 25.2021 16.5571C24.7719 15.7889 24.2065 15.4992 23.6256 15.5144ZM37.3277 3.79193C37.6137 4.02641 37.6799 4.48261 37.4757 4.81089L37.078 5.45003C36.8737 5.7783 36.4763 5.85433 36.1903 5.61985C35.9043 5.38537 35.8381 4.92917 36.0424 4.6009L36.4401 3.96176C36.6443 3.63349 37.0418 3.55745 37.3277 3.79193ZM35.3835 5.47523C35.6503 5.73777 35.6812 6.1989 35.4525 6.5052L34.9752 7.14434C34.7465 7.45063 34.3448 7.48611 34.078 7.22357C33.8111 6.96103 33.7802 6.4999 34.0089 6.1936L34.4862 5.55446C34.7149 5.24816 35.1166 5.21269 35.3835 5.47523ZM37.2487 6.88291C37.4972 7.16817 37.4972 7.63067 37.2487 7.91592L36.7715 8.46376C36.523 8.74902 36.1201 8.74902 35.8716 8.46376C35.6231 8.1785 35.6231 7.71601 35.8716 7.43075L36.3488 6.88291C36.5973 6.59766 37.0002 6.59766 37.2487 6.88291ZM34.9602 8.22179C35.2674 8.4177 35.3781 8.8624 35.2074 9.21505L34.8097 10.0368C34.639 10.3895 34.2516 10.5165 33.9444 10.3206C33.6372 10.1247 33.5265 9.67998 33.6972 9.32733L34.0949 8.50558C34.2656 8.15293 34.653 8.02587 34.9602 8.22179Z" stroke="#EE6616" stroke-linecap="round"/>
</svg>
