<svg width="30" height="30" viewBox="0 0 30 30" fill="none" xmlns="http://www.w3.org/2000/svg">
<path d="M16.087 19.011V12.967C16.087 12.3601 15.6003 11.8681 15 11.8681C14.3997 11.8681 13.913 12.3601 13.913 12.967V19.011H16.087Z" fill="#203B70"/>
<path fill-rule="evenodd" clip-rule="evenodd" d="M0.867194 1.95577C-0.59486 0.386896 0.86719 0 0.86719 0H29.3502C29.3502 0 30.8123 0.386896 29.3502 1.95577C27.9901 3.41518 22.2168 4.54912 16.413 4.79506V7.3105C21.621 7.86322 25.4075 12.2759 27.3399 15.8926C29.4731 19.8852 31.3015 30 28.3557 30H1.33559C-0.949956 30 -0.121682 20.7175 2.45296 15.8926C5.07789 10.9736 7.98695 8.03785 13.4783 7.37769V4.7803C7.78582 4.50651 2.20178 3.38784 0.867194 1.95577ZM22.1739 18.6264C22.1739 22.6623 18.9377 25.9341 14.9457 25.9341C10.9536 25.9341 7.71739 22.6623 7.71739 18.6264C7.71739 14.5904 10.9536 11.3187 14.9457 11.3187C18.9377 11.3187 22.1739 14.5904 22.1739 18.6264Z" fill="#203B70"/>
</svg>
