<svg width="162" height="82" viewBox="0 0 162 82" fill="none" xmlns="http://www.w3.org/2000/svg">
<path fill-rule="evenodd" clip-rule="evenodd" d="M58.1796 74.9136C61.5035 74.9136 64.1981 72.1941 64.1981 68.8395C64.1981 65.4849 61.5035 62.7654 58.1796 62.7654C54.8556 62.7654 52.161 65.4849 52.161 68.8395C52.161 72.1941 54.8556 74.9136 58.1796 74.9136ZM58.1796 69.8519C58.7335 69.8519 59.1826 69.3986 59.1826 68.8395C59.1826 68.2804 58.7335 67.8272 58.1796 67.8272C57.6256 67.8272 57.1765 68.2804 57.1765 68.8395C57.1765 69.3986 57.6256 69.8519 58.1796 69.8519Z" fill="white"/>
<path fill-rule="evenodd" clip-rule="evenodd" d="M141.436 68.8395C141.436 72.1941 138.742 74.9136 135.418 74.9136C132.094 74.9136 129.399 72.1941 129.399 68.8395C129.399 65.4849 132.094 62.7654 135.418 62.7654C138.742 62.7654 141.436 65.4849 141.436 68.8395ZM136.421 68.8395C136.421 69.3986 135.972 69.8519 135.418 69.8519C134.864 69.8519 134.415 69.3986 134.415 68.8395C134.415 68.2804 134.864 67.8272 135.418 67.8272C135.972 67.8272 136.421 68.2804 136.421 68.8395Z" fill="white"/>
<path fill-rule="evenodd" clip-rule="evenodd" d="M34.1053 2.02469C34.1053 0.906485 35.0035 0 36.1114 0H105.325C106.433 0 107.331 0.906485 107.331 2.02469V13.1605H122.879C123.539 13.1605 124.157 13.4881 124.531 14.0366L139.51 35.9796C141.877 36.1489 145.142 36.8423 148.108 38.127C151.452 39.5753 155.135 42.0958 155.942 46.1708C156.592 49.4484 156.585 52.637 156.429 55.2921C156.359 56.4969 156.256 57.6118 156.168 58.5684L156.142 58.8547C156.128 59.0135 156.114 59.1659 156.101 59.3123C159.445 59.8546 162 62.7805 162 66.3086C162 70.2224 158.856 73.3951 154.978 73.3951H147.656C145.819 78.4182 141.033 82 135.418 82C129.803 82 125.017 78.4182 123.18 73.3951H70.4174C68.5809 78.4182 63.7947 82 58.1796 82C52.5644 82 47.7782 78.4182 45.9417 73.3951H33.6037C29.7257 73.3951 26.582 70.2224 26.582 66.3086C26.582 62.3949 29.7257 59.2222 33.6037 59.2222H34.1053V44.5432H15.0464C13.9384 44.5432 13.0402 43.6367 13.0402 42.5185C13.0402 41.4003 13.9384 40.4938 15.0464 40.4938H34.1053V30.8765H2.00619C0.898202 30.8765 0 29.9701 0 28.8519C0 27.7336 0.898202 26.8272 2.00619 26.8272H34.1053V17.2099H7.02167C5.91368 17.2099 5.01548 16.3034 5.01548 15.1852C5.01548 14.067 5.91368 13.1605 7.02167 13.1605H34.1053V2.02469ZM122.387 68.3333C122.44 66.9145 122.716 65.5532 123.18 64.284H70.4174C70.8814 65.5532 71.1572 66.9145 71.2103 68.3333H122.387ZM126.516 59.2222C128.847 57.0243 131.977 55.679 135.418 55.679C138.922 55.679 142.103 57.0736 144.446 59.3428V59.2222H152.081C152.102 58.979 152.124 58.7317 152.147 58.4825L152.173 58.1975C152.261 57.2354 152.358 56.1866 152.424 55.0536C152.57 52.5626 152.562 49.7615 152.008 46.965C151.612 44.9659 149.61 43.1839 146.526 41.8483C143.548 40.5587 140.231 39.9877 138.427 39.9877H114.353C113.245 39.9877 112.347 39.0812 112.347 37.963V23.7901C112.347 22.6719 113.245 21.7654 114.353 21.7654C115.461 21.7654 116.359 22.6719 116.359 23.7901V35.9383H134.609L121.825 17.2099H107.331V59.2222H126.516ZM147.656 64.284C148.12 65.5532 148.396 66.9145 148.449 68.3333H154.978C156.086 68.3333 156.985 67.4268 156.985 66.3086C156.985 65.1904 156.086 64.284 154.978 64.284H147.656ZM103.319 59.2222H67.0812C64.7508 57.0243 61.6208 55.679 58.1796 55.679C54.7383 55.679 51.6083 57.0243 49.2779 59.2222H38.1176V44.5432H43.6347C44.7427 44.5432 45.6409 43.6367 45.6409 42.5185C45.6409 41.4003 44.7427 40.4938 43.6347 40.4938H38.1176V30.8765H40.1238C41.2318 30.8765 42.13 29.9701 42.13 28.8519C42.13 27.7336 41.2318 26.8272 40.1238 26.8272H38.1176V17.2099H49.6532C50.7612 17.2099 51.6594 16.3034 51.6594 15.1852C51.6594 14.067 50.7612 13.1605 49.6532 13.1605H38.1176V4.04938H103.319V59.2222ZM33.6037 64.284H45.9417C45.4777 65.5532 45.2019 66.9145 45.1488 68.3333H33.6037C32.4957 68.3333 31.5975 67.4268 31.5975 66.3086C31.5975 65.1904 32.4957 64.284 33.6037 64.284ZM58.1796 76.9383C62.6115 76.9383 66.2043 73.3123 66.2043 68.8395C66.2043 64.3667 62.6115 60.7407 58.1796 60.7407C53.7476 60.7407 50.1548 64.3667 50.1548 68.8395C50.1548 73.3123 53.7476 76.9383 58.1796 76.9383ZM143.443 68.8395C143.443 73.3123 139.85 76.9383 135.418 76.9383C130.986 76.9383 127.393 73.3123 127.393 68.8395C127.393 64.3667 130.986 60.7407 135.418 60.7407C139.85 60.7407 143.443 64.3667 143.443 68.8395Z" fill="white"/>
</svg>
