<svg width="46" height="47" viewBox="0 0 46 47" xmlns="http://www.w3.org/2000/svg">
<path fill-rule="evenodd" clip-rule="evenodd" d="M9.51406 11.3996C8.49377 11.3996 7.66667 12.2267 7.66667 13.247C7.66667 14.2673 8.49377 15.0944 9.51406 15.0944H12.2855L17.5053 29.4116H16.1149C15.8643 29.3513 15.6025 29.3193 15.3333 29.3193C13.4968 29.3193 12.008 30.8081 12.008 32.6446C12.008 34.4811 13.4968 35.9699 15.3333 35.9699C17.0131 35.9699 18.402 34.7243 18.6268 33.1064H31.068C31.2928 34.7243 32.6817 35.9699 34.3614 35.9699C36.198 35.9699 37.6867 34.4811 37.6867 32.6446C37.6867 30.8081 36.198 29.3193 34.3614 29.3193C34.0923 29.3193 33.8305 29.3513 33.5799 29.4116H21.438L21.1163 28.5292L32.2134 27.5572C32.2361 27.5552 32.2588 27.5528 32.2812 27.55C33.0497 27.6478 33.8275 27.2516 34.1803 26.5146L38.337 17.8318C38.5032 17.4845 38.5514 17.1112 38.4974 16.7573C38.511 16.6668 38.5181 16.5742 38.5181 16.4799C38.5181 15.4596 37.691 14.6325 36.6707 14.6325H16.0498L14.8711 11.3996H9.51406ZM31.3231 23.9263L19.8059 24.9351L17.3969 18.3273H34.0034L31.3231 23.9263Z" />
<path fill-rule="evenodd" clip-rule="evenodd" d="M46 23.5C46 36.2025 35.7026 46.5 23 46.5C10.2974 46.5 0 36.2025 0 23.5C0 10.7975 10.2974 0.5 23 0.5C35.7026 0.5 46 10.7975 46 23.5ZM43.9679 23.5924C43.9679 35.1216 34.6216 44.4679 23.0924 44.4679C11.5631 44.4679 2.21687 35.1216 2.21687 23.5924C2.21687 12.0631 11.5631 2.71687 23.0924 2.71687C34.6216 2.71687 43.9679 12.0631 43.9679 23.5924Z" />
</svg>
