<svg width="46" height="47" viewBox="0 0 46 47" xmlns="http://www.w3.org/2000/svg">
<path d="M28.9841 12.4792C32.2967 12.4792 34.9792 15.4855 34.9792 19.1914C34.9792 24.2545 31.568 27.6729 27.322 31.928C25.9391 33.3138 24.4677 34.7884 22.9967 36.4375C21.528 34.7911 20.0592 33.3186 18.6788 31.9346C14.4315 27.6765 11.0208 24.2571 11.0208 19.1914C11.0208 15.4855 13.7033 12.4792 17.0088 12.4792C20.0025 12.4792 21.4996 14.1574 22.9967 17.5132C24.4933 14.1574 25.9904 12.4792 28.9841 12.4792Z"/>
<path fill-rule="evenodd" clip-rule="evenodd" d="M46 23.5C46 36.2025 35.7025 46.5 23 46.5C10.2975 46.5 0 36.2025 0 23.5C0 10.7975 10.2975 0.5 23 0.5C35.7025 0.5 46 10.7975 46 23.5ZM43.6042 23.5C43.6042 34.8794 34.3794 44.1042 23 44.1042C11.6206 44.1042 2.39583 34.8794 2.39583 23.5C2.39583 12.1206 11.6206 2.89583 23 2.89583C34.3794 2.89583 43.6042 12.1206 43.6042 23.5Z"/>
</svg>
