<svg width="16" height="24" viewBox="0 0 16 24" xmlns="http://www.w3.org/2000/svg">
<path fill-rule="evenodd" clip-rule="evenodd" d="M7.62524 9.69697C9.22865 9.69697 10.5285 8.39452 10.5285 6.78788C10.5285 5.18123 9.22865 3.87879 7.62524 3.87879C6.02184 3.87879 4.72202 5.18123 4.72202 6.78788C4.72202 8.39452 6.02184 9.69697 7.62524 9.69697ZM7.62524 8.24242C8.42695 8.24242 9.07686 7.5912 9.07686 6.78788C9.07686 5.98455 8.42695 5.33333 7.62524 5.33333C6.82354 5.33333 6.17363 5.98455 6.17363 6.78788C6.17363 7.5912 6.82354 8.24242 7.62524 8.24242Z"/>
<path fill-rule="evenodd" clip-rule="evenodd" d="M10.1836 16.2283C12.1025 13.1325 14.3994 8.97084 14.3994 6.78788C14.3994 3.03904 11.3665 0 7.62524 0C3.88396 0 0.851051 3.03904 0.851051 6.78788C0.851051 8.97084 3.14802 13.1325 5.0669 16.2283C3.88594 16.4473 2.82968 16.8171 2.00133 17.3082C0.964691 17.9229 0.125244 18.8344 0.125244 20C0.125244 21.3416 1.22712 22.3447 2.51995 22.9693C3.86405 23.6186 5.66993 24 7.62524 24C9.58056 24 11.3864 23.6186 12.7305 22.9693C14.0234 22.3447 15.1252 21.3416 15.1252 20C15.1252 18.8192 14.2644 17.8993 13.2064 17.2831C12.3852 16.8048 11.3451 16.4437 10.1836 16.2283ZM12.3156 9.15289C12.7537 8.06301 12.9478 7.26476 12.9478 6.78788C12.9478 3.84236 10.5648 1.45455 7.62524 1.45455C4.68566 1.45455 2.30266 3.84236 2.30266 6.78788C2.30266 7.26476 2.49682 8.06301 2.93489 9.15289C3.35702 10.2031 3.94713 11.3846 4.60399 12.5755C5.63028 14.4362 6.78376 16.2559 7.62524 17.5324C8.46673 16.2559 9.62021 14.4362 10.6465 12.5755C11.3034 11.3846 11.8935 10.2031 12.3156 9.15289ZM9.33735 17.566C8.89382 18.2536 8.5015 18.8415 8.20469 19.2795C7.92352 19.6944 7.32696 19.6944 7.0458 19.2795C6.74899 18.8415 6.35667 18.2536 5.91314 17.566C4.61176 17.7397 3.51237 18.1024 2.74056 18.5601C1.87684 19.0722 1.57686 19.5988 1.57686 20C1.57686 20.4659 1.99143 21.0992 3.15038 21.6591C4.25805 22.1942 5.83927 22.5455 7.62524 22.5455C9.41121 22.5455 10.9924 22.1942 12.1001 21.6591C13.2591 21.0992 13.6736 20.4659 13.6736 20C13.6736 19.5934 13.3648 19.0578 12.477 18.5407C11.7062 18.0918 10.6191 17.7371 9.33735 17.566Z"/>
</svg>
