<svg width="32" height="24" viewBox="0 0 32 24" xmlns="http://www.w3.org/2000/svg">
<path fill-rule="evenodd" clip-rule="evenodd" d="M1.33333 0C0.596954 0 0 0.596954 0 1.33333V22.6667C0 23.403 0.596954 24 1.33333 24H30.6667C31.403 24 32 23.403 32 22.6667V1.33333C32 0.596954 31.403 0 30.6667 0H1.33333ZM2 21.7028V3.4656L10.4404 12.5089L2 21.7028ZM4.44215 22H27.8636L20.278 13.882L17.4621 16.899C16.6714 17.7462 15.3286 17.7462 14.5379 16.899L11.8091 13.9753L4.44215 22ZM21.6458 12.4165L30 21.357V3.46559L21.6458 12.4165ZM3.36788 2H28.6321L16 15.5344L3.36788 2Z"/>
</svg>
