<svg width="46" height="47" viewBox="0 0 46 47"  xmlns="http://www.w3.org/2000/svg">
<path d="M30.1875 14.9648C30.1875 18.984 26.9293 22.2422 22.9102 22.2422C18.891 22.2422 15.6328 18.984 15.6328 14.9648C15.6328 10.9457 18.891 7.6875 22.9102 7.6875C26.9293 7.6875 30.1875 10.9457 30.1875 14.9648Z"/>
<path d="M22.8592 28.0243C22.9639 27.8684 23.2736 27.4035 23.7116 26.715C23.8803 26.4497 24.0681 26.1513 24.2705 25.8245L24.314 25.6159L24.4644 25.51C24.4942 25.4615 24.5242 25.4125 24.5545 25.3629C25.0886 24.4891 25.701 23.4538 26.3242 22.332C26.3242 22.332 30.0977 22.1523 30.9961 22.332C31.8945 22.5117 32.4336 22.8711 32.4336 22.8711C32.4336 22.8711 33.7813 23.6797 34.4102 24.3984C35.0391 25.1172 35.1364 25.319 35.3086 26.4648C35.4808 27.6107 35.5781 33.832 35.3086 35.3594C35.0391 36.8867 28.8398 36.707 28.8398 36.707H16.8786C16.8786 36.707 15.4351 36.7489 13.911 36.6206L13.7275 36.643L13.7612 36.6074C12.1726 36.4622 10.545 36.1256 10.4098 35.3594C10.1403 33.832 10.2376 27.6107 10.4098 26.4648C10.582 25.319 10.6793 25.1172 11.3083 24.3984C11.9372 23.6797 13.2848 22.8711 13.2848 22.8711C13.2848 22.8711 13.8239 22.5117 14.7223 22.332C15.6208 22.1523 19.3942 22.332 19.3942 22.332C19.8855 23.2164 20.3701 24.047 20.8149 24.7872L20.9572 24.8536L21.2133 25.4437C21.5062 25.9219 21.7746 26.3499 22.0068 26.715C22.4448 27.4035 22.7545 27.8684 22.8592 28.0243Z"/>
<path fill-rule="evenodd" clip-rule="evenodd" d="M46 23.5C46 36.2025 35.7026 46.5 23 46.5C10.2974 46.5 0 36.2025 0 23.5C0 10.7975 10.2974 0.5 23 0.5C35.7026 0.5 46 10.7975 46 23.5ZM43.5742 23.5924C43.5742 35.1216 34.5292 43.9844 23 43.9844C11.4708 43.9844 2.69531 35.0292 2.69531 23.5C2.69531 11.9708 11.4708 3.10547 23 3.10547C34.5292 3.10547 43.5742 12.0631 43.5742 23.5924Z"/>
</svg>
