<svg width="30" height="34" viewBox="0 0 30 34" xmlns="http://www.w3.org/2000/svg">
<path d="M23.7124 8.5244C23.7124 13.2323 19.8388 17.0488 15.0606 17.0488C10.2823 17.0488 6.40876 13.2323 6.40876 8.5244C6.40876 3.81651 10.2823 0 15.0606 0C19.8388 0 23.7124 3.81651 23.7124 8.5244Z"/>
<path d="M15 23.8218C15.1245 23.6391 15.4927 23.0946 16.0134 22.2881C16.214 21.9774 16.4372 21.6278 16.6779 21.245L16.7295 21.0007L16.9084 20.8767C16.9438 20.8198 16.9795 20.7624 17.0155 20.7043C17.6505 19.6807 18.3786 18.468 19.1195 17.154C19.1195 17.154 23.6056 16.9436 24.6737 17.154C25.7418 17.3645 26.3827 17.7855 26.3827 17.7855C26.3827 17.7855 27.9849 18.7326 28.7326 19.5746C29.4803 20.4165 29.5959 20.6528 29.8007 21.9951C30.0055 23.3373 30.1212 30.6247 29.8007 32.4138C29.4803 34.2028 22.1102 33.9924 22.1102 33.9924H7.88979C7.88979 33.9924 6.17375 34.0414 4.36177 33.8911L4.14354 33.9174L4.18367 33.8757C2.29506 33.7056 0.360041 33.3113 0.199284 32.4138C-0.121154 30.6247 -0.00547974 23.3373 0.199284 21.9951C0.404048 20.6528 0.519722 20.4165 1.26741 19.5746C2.0151 18.7326 3.61729 17.7855 3.61729 17.7855C3.61729 17.7855 4.25816 17.3645 5.32629 17.154C6.39441 16.9436 10.8805 17.154 10.8805 17.154C11.4647 18.19 12.0408 19.1629 12.5696 20.0299L12.7388 20.1077L13.0432 20.7989C13.3915 21.359 13.7105 21.8604 13.9866 22.2881C14.5073 23.0946 14.8755 23.6391 15 23.8218Z"/>
</svg>
