<svg width="22" height="22" viewBox="0 0 22 22" xmlns="http://www.w3.org/2000/svg">
<path fill-rule="evenodd" clip-rule="evenodd" d="M14.2679 16.7061C12.809 17.6827 11.0528 18.2525 9.16298 18.2525C4.10241 18.2525 0 14.1665 0 9.12625C0 4.08596 4.10241 0 9.16298 0C14.2236 0 18.326 4.08596 18.326 9.12625C18.326 11.0092 17.7534 12.759 16.7723 14.2123L21.4928 19.001C22.1779 19.696 22.1676 20.8125 21.4699 21.4949C20.7721 22.1772 19.651 22.167 18.9659 21.472L14.2679 16.7061ZM16.2012 9.12625C16.2012 12.9978 13.0501 16.1363 9.16298 16.1363C5.27587 16.1363 2.12475 12.9978 2.12475 9.12625C2.12475 5.25472 5.27587 2.11623 9.16298 2.11623C13.0501 2.11623 16.2012 5.25472 16.2012 9.12625Z"/>
</svg>
