<svg width="24" height="24" viewBox="0 0 24 24" xmlns="http://www.w3.org/2000/svg">
<path d="M17.5886 24C16.6547 23.9931 15.725 23.8759 14.8187 23.6508C11.6888 22.8956 8.46584 20.98 5.7449 18.2567C3.02396 15.5334 1.10594 12.3098 0.350783 9.18297C-0.444366 5.89375 0.122745 3.0797 1.94586 1.2566L2.4664 0.736059C2.93869 0.264717 3.57869 0 4.24594 0C4.91319 0 5.55318 0.264717 6.02547 0.736059L9.01683 3.7268C9.48847 4.19894 9.75339 4.83898 9.75339 5.50633C9.75339 6.17367 9.48847 6.81372 9.01683 7.28585L7.24983 9.05224C8.09692 10.5387 9.24905 12.0263 10.6107 13.3879C11.9724 14.7496 13.4612 15.9023 14.947 16.7494L16.7134 14.9824C16.9471 14.7486 17.2245 14.5632 17.5298 14.4367C17.8352 14.3102 18.1624 14.2451 18.493 14.2451C18.8235 14.2451 19.1507 14.3102 19.4561 14.4367C19.7614 14.5632 20.0388 14.7486 20.2725 14.9824L23.2633 17.9731C23.735 18.4451 24 19.0851 24 19.7524C24 20.4197 23.735 21.0596 23.2633 21.5316L22.7421 22.0521C21.4569 23.3398 19.6779 24 17.5886 24ZM4.24594 1.78968C4.15063 1.78921 4.05618 1.80776 3.96812 1.84426C3.88007 1.88075 3.80019 1.93444 3.73315 2.0022L3.21201 2.52275C1.84676 3.88798 1.44799 6.10448 2.08913 8.76033C2.76787 11.5738 4.51517 14.4971 7.00866 16.99C9.50216 19.4828 12.4249 21.2283 15.2389 21.9095C17.8954 22.5506 20.1107 22.1518 21.476 20.7866L21.9965 20.266C22.1325 20.1299 22.2089 19.9454 22.2089 19.753C22.2089 19.5605 22.1325 19.376 21.9965 19.2399L19.0063 16.2491C18.8702 16.1131 18.6857 16.0367 18.4933 16.0367C18.3008 16.0367 18.1163 16.1131 17.9802 16.2491L15.741 18.4883C15.6066 18.6227 15.433 18.7109 15.2452 18.7401C15.0573 18.7693 14.8651 18.738 14.6963 18.6507C12.8607 17.7015 11.0101 16.3196 9.34456 14.6541C7.67905 12.9886 6.30007 11.1392 5.34852 9.30356C5.26114 9.1348 5.22971 8.94261 5.2588 8.7548C5.28788 8.567 5.37596 8.39332 5.5103 8.25889L7.75009 6.01971C7.88609 5.88359 7.96249 5.69905 7.96249 5.50663C7.96249 5.31421 7.88609 5.12966 7.75009 4.99354L4.75932 2.0022C4.69208 1.93456 4.61207 1.88095 4.52394 1.84447C4.43581 1.80799 4.34132 1.78936 4.24594 1.78968Z"/>
<path d="M18.5449 13.2351C18.3074 13.2351 18.0797 13.1408 17.9117 12.9728C17.7438 12.8049 17.6495 12.5772 17.6495 12.3397C17.6477 10.7688 17.023 9.26276 15.9122 8.15193C14.8015 7.0411 13.2955 6.41619 11.7246 6.41429C11.4872 6.41429 11.2594 6.31995 11.0915 6.15203C10.9236 5.9841 10.8292 5.75634 10.8292 5.51886C10.8292 5.28138 10.9236 5.05362 11.0915 4.88569C11.2594 4.71777 11.4872 4.62343 11.7246 4.62343C15.9792 4.62343 19.4403 8.08577 19.4403 12.3397C19.4403 12.5772 19.346 12.8049 19.1781 12.9728C19.0101 13.1408 18.7824 13.2351 18.5449 13.2351Z"/>
<path d="M22.3296 13.2351C22.0921 13.2351 21.8644 13.1408 21.6964 12.9728C21.5285 12.8049 21.4342 12.5771 21.4342 12.3397C21.4342 6.98558 17.0764 2.6296 11.7246 2.6296C11.4872 2.6296 11.2594 2.53526 11.0915 2.36733C10.9236 2.19941 10.8292 1.97165 10.8292 1.73417C10.8292 1.49668 10.9236 1.26893 11.0915 1.101C11.2594 0.933074 11.4872 0.838734 11.7246 0.838734C18.0661 0.838734 23.2251 5.99821 23.2251 12.3397C23.2251 12.5771 23.1307 12.8049 22.9628 12.9728C22.7949 13.1408 22.5671 13.2351 22.3296 13.2351Z"/>
</svg>
