<svg width="50" height="50" viewBox="0 0 50 50"  xmlns="http://www.w3.org/2000/svg">
<path d="M47.2494 2.7504C45.4164 0.916915 43.2079 0 40.6257 0H9.37543C6.7932 0 4.58472 0.916915 2.75089 2.7504C0.917403 4.58423 0.000488281 6.7926 0.000488281 9.37494V40.6248C0.000488281 43.2069 0.917403 45.4155 2.75089 47.2494C4.58472 49.0832 6.7932 50.0001 9.37543 50.0001H40.6253C43.2075 50.0001 45.416 49.0832 47.2491 47.2494C49.0829 45.4155 49.9998 43.2071 49.9998 40.6248V9.37494C49.9997 6.7926 49.0828 4.58389 47.2494 2.7504ZM29.5254 7.22609H31.7066V16.0799C31.7066 16.6009 31.7167 16.8831 31.7385 16.9265C31.7604 17.2738 31.9345 17.4473 32.2598 17.4473C32.6937 17.4473 33.1499 17.1111 33.6269 16.4384V7.22609H35.808V19.2704H33.6269H33.6261V17.9677C32.7365 18.9441 31.9012 19.4328 31.1201 19.4328C30.4259 19.4328 29.9593 19.14 29.7202 18.554C29.5897 18.1636 29.5254 17.5666 29.5254 16.7635V7.22609ZM21.2897 11.1325C21.2897 9.87399 21.5176 8.92971 21.9734 8.30057C22.5592 7.47601 23.4053 7.0635 24.512 7.0635C25.5757 7.0635 26.4223 7.47635 27.0509 8.30057C27.507 8.92983 27.7349 9.87399 27.7349 11.1325V15.3644C27.7349 16.6666 27.507 17.6106 27.0509 18.1965C26.4223 19.0215 25.5757 19.4338 24.512 19.4338C23.4053 19.4338 22.5592 19.0211 21.9734 18.1965C21.5176 17.5671 21.2897 16.623 21.2897 15.3644V11.1325ZM15.43 3.09199L17.1554 9.44005L18.8155 3.09199H21.257L18.3271 12.7275H18.3276V19.2704H15.9188V12.7275C15.6798 11.5339 15.1808 9.81949 14.4213 7.58444C13.9223 6.08696 13.6726 5.33822 13.6726 5.33822L12.891 3.09199H15.43ZM42.2536 42.383C42.0366 43.3156 41.5754 44.1076 40.8695 44.7593C40.1648 45.4101 39.3459 45.7901 38.4125 45.899C35.4398 46.224 30.9686 46.387 25.0011 46.387C19.033 46.387 14.5626 46.2239 11.5896 45.899C10.6566 45.7901 9.83754 45.4101 9.13201 44.7593C8.42671 44.1076 7.96574 43.3156 7.74865 42.383C7.31483 40.5597 7.09785 37.7383 7.09785 33.9192C7.09785 30.1641 7.31483 27.3439 7.74865 25.4555C7.96585 24.5006 8.42682 23.703 9.13201 23.0625C9.83754 22.4221 10.6673 22.0477 11.6223 21.9394C14.5733 21.6134 19.033 21.4509 25.0011 21.4509C30.9909 21.4509 35.4615 21.6138 38.4125 21.9394C39.3459 22.048 40.1695 22.422 40.8858 23.0625C41.6022 23.7026 42.0693 24.5002 42.2862 25.4555C42.6978 27.2566 42.9043 30.0776 42.9043 33.9192C42.9044 37.7382 42.6873 40.5592 42.2536 42.383Z" />
<path d="M9.76553 27.8971H12.3047V41.6665H14.7135V27.8971H17.3177V25.6184H9.76553V27.8971Z" />
<path d="M21.68 38.8346C21.2026 39.5068 20.7467 39.8433 20.3128 39.8433C20.009 39.8433 19.8462 39.6806 19.8245 39.3552C19.8027 39.3118 19.7918 39.0298 19.7918 38.5085V29.7192H17.6434V39.1593C17.6434 39.9841 17.7086 40.5701 17.8389 40.9166C18.0341 41.5245 18.4901 41.8281 19.2061 41.8281C20.009 41.8281 20.8336 41.34 21.68 40.3633V41.6658H23.8606V29.72H21.68V38.8346Z" />
<path d="M30.1114 29.5569C29.3302 29.5569 28.592 29.9908 27.8983 30.8593V25.6184H25.7171V41.6665H27.8983V40.4945C28.6138 41.384 29.3525 41.8288 30.1114 41.8288C31.0014 41.8288 31.5762 41.3731 31.836 40.4617C31.9881 40.0059 32.0638 39.2139 32.0638 38.0855V33.3331C32.0638 32.1827 31.9873 31.3797 31.836 30.924C31.5761 30.0126 31.0013 29.5569 30.1114 29.5569ZM29.9159 38.2486C29.9159 39.3118 29.6014 39.8428 28.9717 39.8436C28.6034 39.8436 28.2447 39.6697 27.8975 39.3224V32.0307C28.2447 31.6843 28.6033 31.5103 28.9717 31.5103C29.6014 31.5103 29.9159 32.0522 29.9159 33.1374V38.2486Z" />
<path d="M38.0203 38.2322C38.0203 38.46 38.0148 38.6387 38.0047 38.7691C37.9941 38.8994 37.9882 38.9755 37.9882 38.9969C37.8582 39.5607 37.5325 39.8428 37.0116 39.8428C36.2737 39.8428 35.9047 39.2895 35.9047 38.1829V36.0674H40.2342V33.5929C40.2342 32.3345 40.0067 31.4016 39.5507 30.7937C38.9653 29.9692 38.1186 29.5564 37.0116 29.5564C35.9047 29.5564 35.037 29.9691 34.4072 30.7937C33.9732 31.3797 33.7564 32.3134 33.7564 33.5929V37.7923C33.7564 39.0728 33.9842 40.0063 34.4399 40.5923C35.0696 41.4168 35.9483 41.8296 37.0772 41.8296C38.2274 41.8296 39.0952 41.3957 39.6817 40.5272C39.9418 40.1363 40.1053 39.7024 40.1701 39.2252C40.2131 38.9212 40.2349 38.4545 40.2349 37.8253V37.5331V37.5323H38.021V38.2323H38.0203V38.2322ZM35.9055 33.17C35.9055 32.0635 36.2637 31.5102 36.9797 31.5102C37.6961 31.5102 38.0539 32.0635 38.0539 33.17V34.2773H35.9055V33.17Z" />
<path d="M24.5119 17.4472C25.2064 17.4472 25.5534 16.8942 25.5534 15.7874V10.7091C25.5534 9.58096 25.2064 9.01636 24.5119 9.01636C23.8175 9.01636 23.4704 9.58096 23.4704 10.7091V15.7874C23.4704 16.8938 23.8175 17.4472 24.5119 17.4472Z" />
</svg>
